M48
;Layer_Color=9474304
;FILE_FORMAT=2:5
INCH,TZ
;TYPE=PLATED
T01F00S00C0.01181
T02F00S00C0.03543
T03F00S00C0.04000
T04F00S00C0.04528
T05F00S00C0.06299
T06F00S00C0.12795
;TYPE=NON_PLATED
T07F00S00C0.12795
T08F00S00C0.13386
%
T01
X88189Y48819
X112598Y43701
X137402Y62205
Y72835
X112598Y63779
X87795Y68504
X86221Y150787
X80709
X64961Y151969
X64988Y159842
X64961Y162598
X98032Y155905
X103150
X121260Y151181
X51968Y284646
Y295276
T02
X19842Y162779
Y170780
Y178779
Y186779
X26842Y190779
Y182780
Y174779
Y166779
Y228780
Y236779
Y244779
Y252780
X19842Y248780
Y240779
Y232780
Y224780
T03
X26496Y43740
X36496
Y53740
X26496
Y63740
Y73740
Y83740
Y93740
Y103740
Y113740
X36496
Y103740
Y93740
Y83740
Y73740
Y63740
T04
X157402Y119311
Y130217
Y141122
Y152027
Y162933
Y173839
Y184744
Y195650
X167402Y190197
Y179291
Y168386
Y157480
Y146575
Y135669
Y124764
T05
X23343Y144780
Y270779
T06
X162402Y91890
Y223071
T07
X9843Y151779
Y263779
T08
X17717Y17717
X179134
X17717Y297244
X179134
M30
