G04*
G04 #@! TF.GenerationSoftware,Altium Limited,Altium Designer,24.6.1 (21)*
G04*
G04 Layer_Physical_Order=2*
G04 Layer_Color=16711680*
%FSLAX25Y25*%
%MOIN*%
G70*
G04*
G04 #@! TF.SameCoordinates,82AAD4A9-244C-4A3F-97DA-24B785BF6BB8*
G04*
G04*
G04 #@! TF.FilePolarity,Positive*
G04*
G01*
G75*
%ADD46C,0.03937*%
%ADD47C,0.01968*%
%ADD48C,0.01181*%
%ADD49C,0.16795*%
%ADD50R,0.06791X0.06791*%
%ADD51C,0.06791*%
%ADD52C,0.12205*%
%ADD53R,0.05512X0.05512*%
%ADD54C,0.05512*%
%ADD55C,0.12795*%
%ADD56C,0.09449*%
%ADD57C,0.06000*%
%ADD58C,0.01968*%
G36*
X169291Y287402D02*
X188976D01*
Y27559D01*
X169291D01*
Y7874D01*
X27559D01*
Y27559D01*
X7874D01*
Y141937D01*
X19074D01*
X19247Y141637D01*
X20200Y140684D01*
X21367Y140010D01*
X22669Y139661D01*
X24016D01*
X25318Y140010D01*
X26485Y140684D01*
X27438Y141637D01*
X28112Y142804D01*
X28461Y144106D01*
Y145453D01*
X28112Y146755D01*
X27438Y147922D01*
X26485Y148875D01*
X25318Y149549D01*
X24016Y149898D01*
X22669D01*
X21367Y149549D01*
X20200Y148875D01*
X20147Y148822D01*
X19685Y149013D01*
Y159630D01*
X22992D01*
Y165929D01*
X18112D01*
X16712Y167329D01*
Y168902D01*
X17212Y169036D01*
X17322Y168846D01*
X17909Y168259D01*
X18627Y167845D01*
X19428Y167630D01*
X20257D01*
X21058Y167845D01*
X21776Y168259D01*
X22363Y168846D01*
X22777Y169564D01*
X22992Y170365D01*
Y171194D01*
X22777Y171995D01*
X22363Y172713D01*
X21776Y173300D01*
X21058Y173714D01*
X20257Y173929D01*
X19428D01*
X18627Y173714D01*
X17909Y173300D01*
X17322Y172713D01*
X17212Y172523D01*
X16712Y172657D01*
Y176902D01*
X17212Y177036D01*
X17322Y176846D01*
X17909Y176259D01*
X18627Y175845D01*
X19428Y175630D01*
X20257D01*
X21058Y175845D01*
X21776Y176259D01*
X22363Y176846D01*
X22777Y177564D01*
X22992Y178365D01*
Y179194D01*
X22985Y179222D01*
X23433Y179480D01*
X24622Y178291D01*
Y177167D01*
X24648Y177039D01*
X24322Y176713D01*
X23908Y175995D01*
X23693Y175194D01*
Y174365D01*
X23908Y173564D01*
X24322Y172846D01*
X24909Y172259D01*
X25627Y171845D01*
X26428Y171630D01*
X27257D01*
X28058Y171845D01*
X28776Y172259D01*
X29363Y172846D01*
X29473Y173036D01*
X29973Y172902D01*
Y171329D01*
X28249Y169605D01*
X28058Y169714D01*
X27257Y169929D01*
X26428D01*
X25627Y169714D01*
X24909Y169300D01*
X24322Y168713D01*
X23908Y167995D01*
X23693Y167194D01*
Y166365D01*
X23908Y165564D01*
X24322Y164846D01*
X24909Y164259D01*
X25627Y163845D01*
X26428Y163630D01*
X27257D01*
X28058Y163845D01*
X28776Y164259D01*
X29363Y164846D01*
X29778Y165564D01*
X29992Y166365D01*
Y167194D01*
X29778Y167995D01*
X29668Y168185D01*
X31686Y170204D01*
X31903Y170529D01*
X31980Y170913D01*
Y224230D01*
X32867Y225117D01*
X33085Y225443D01*
X33161Y225827D01*
Y236744D01*
X33163Y236754D01*
X33087Y237138D01*
X32869Y237463D01*
X29103Y241229D01*
X28778Y241447D01*
X28474Y241507D01*
X28381Y241727D01*
X28368Y242023D01*
X28776Y242259D01*
X29363Y242846D01*
X29778Y243564D01*
X29992Y244365D01*
Y245194D01*
X29778Y245995D01*
X29363Y246713D01*
X28776Y247300D01*
X28058Y247714D01*
X27257Y247929D01*
X26428D01*
X25627Y247714D01*
X24909Y247300D01*
X24322Y246713D01*
X23908Y245995D01*
X23693Y245194D01*
Y244365D01*
X23908Y243564D01*
X24322Y242846D01*
X24909Y242259D01*
X25317Y242023D01*
X25302Y241721D01*
X25211Y241507D01*
X24907Y241447D01*
X24582Y241229D01*
X24578Y241223D01*
X23433Y240079D01*
X22985Y240337D01*
X22992Y240365D01*
Y241194D01*
X22777Y241995D01*
X22363Y242713D01*
X21776Y243300D01*
X21058Y243714D01*
X20257Y243929D01*
X19428D01*
X18627Y243714D01*
X17909Y243300D01*
X17322Y242713D01*
X16908Y241995D01*
X16693Y241194D01*
Y240365D01*
X16908Y239564D01*
X17322Y238846D01*
X17909Y238259D01*
X18627Y237845D01*
X19428Y237630D01*
X20257D01*
X21058Y237845D01*
X21599Y238157D01*
X22057Y237940D01*
X22099Y237893D01*
Y235666D01*
X22057Y235619D01*
X21599Y235402D01*
X21058Y235715D01*
X20257Y235929D01*
X19428D01*
X18627Y235715D01*
X17909Y235300D01*
X17322Y234713D01*
X16908Y233995D01*
X16693Y233194D01*
Y232365D01*
X16908Y231564D01*
X17322Y230846D01*
X17909Y230259D01*
X18627Y229845D01*
X19428Y229630D01*
X20257D01*
X21058Y229845D01*
X21776Y230259D01*
X22363Y230846D01*
X22486Y231058D01*
X23093Y231110D01*
X24017Y230186D01*
X23908Y229995D01*
X23693Y229194D01*
Y228365D01*
X23908Y227564D01*
X24322Y226846D01*
X24909Y226259D01*
X25627Y225845D01*
X26428Y225630D01*
X27257D01*
X27735Y225758D01*
X27994Y225310D01*
X22393Y219708D01*
X22175Y219383D01*
X22099Y218999D01*
Y189666D01*
X22057Y189619D01*
X21599Y189402D01*
X21058Y189715D01*
X20257Y189929D01*
X19428D01*
X18627Y189715D01*
X17909Y189300D01*
X17322Y188713D01*
X17212Y188523D01*
X16712Y188657D01*
Y194441D01*
X20552Y198281D01*
X20770Y198606D01*
X20846Y198990D01*
Y221630D01*
X22992D01*
Y227929D01*
X16693D01*
Y221630D01*
X18839D01*
Y199406D01*
X14999Y195566D01*
X14782Y195240D01*
X14705Y194856D01*
Y166913D01*
X14782Y166529D01*
X14999Y166204D01*
X16693Y164510D01*
Y161622D01*
X7874D01*
Y253937D01*
X19685D01*
Y266546D01*
X20147Y266737D01*
X20200Y266684D01*
X21367Y266010D01*
X22669Y265661D01*
X24016D01*
X25318Y266010D01*
X26485Y266684D01*
X27438Y267637D01*
X28112Y268804D01*
X28461Y270106D01*
Y271453D01*
X28112Y272755D01*
X27438Y273922D01*
X26485Y274875D01*
X25318Y275549D01*
X24016Y275898D01*
X22669D01*
X21367Y275549D01*
X20200Y274875D01*
X19247Y273922D01*
X19074Y273622D01*
X7874D01*
Y287402D01*
X27559D01*
Y307087D01*
X169291D01*
Y287402D01*
D02*
G37*
G36*
X29973Y223797D02*
Y192657D01*
X29473Y192523D01*
X29363Y192713D01*
X28776Y193300D01*
X28058Y193714D01*
X27257Y193929D01*
X26428D01*
X25627Y193714D01*
X24909Y193300D01*
X24606Y192997D01*
X24106Y193204D01*
Y218583D01*
X29511Y223988D01*
X29973Y223797D01*
D02*
G37*
%LPC*%
G36*
X27257Y255929D02*
X26428D01*
X25627Y255715D01*
X24909Y255300D01*
X24322Y254713D01*
X23908Y253995D01*
X23693Y253194D01*
Y252365D01*
X23908Y251564D01*
X24322Y250846D01*
X24909Y250259D01*
X25627Y249845D01*
X26428Y249630D01*
X27257D01*
X28058Y249845D01*
X28776Y250259D01*
X29363Y250846D01*
X29778Y251564D01*
X29992Y252365D01*
Y253194D01*
X29778Y253995D01*
X29363Y254713D01*
X28776Y255300D01*
X28058Y255715D01*
X27257Y255929D01*
D02*
G37*
G36*
X20257Y251929D02*
X19428D01*
X18627Y251714D01*
X17909Y251300D01*
X17322Y250713D01*
X16908Y249995D01*
X16693Y249194D01*
Y248365D01*
X16908Y247564D01*
X17322Y246846D01*
X17909Y246259D01*
X18627Y245845D01*
X19428Y245630D01*
X20257D01*
X21058Y245845D01*
X21776Y246259D01*
X22363Y246846D01*
X22777Y247564D01*
X22992Y248365D01*
Y249194D01*
X22777Y249995D01*
X22363Y250713D01*
X21776Y251300D01*
X21058Y251714D01*
X20257Y251929D01*
D02*
G37*
G36*
X161191Y199439D02*
X153612D01*
Y191860D01*
X161191D01*
Y199439D01*
D02*
G37*
G36*
X167901Y193986D02*
X166903D01*
X165939Y193728D01*
X165075Y193229D01*
X164369Y192524D01*
X163870Y191659D01*
X163612Y190696D01*
Y189698D01*
X163870Y188734D01*
X164369Y187870D01*
X165075Y187165D01*
X165939Y186666D01*
X166903Y186407D01*
X167901D01*
X168864Y186666D01*
X169728Y187165D01*
X170434Y187870D01*
X170933Y188734D01*
X171191Y189698D01*
Y190696D01*
X170933Y191659D01*
X170434Y192524D01*
X169728Y193229D01*
X168864Y193728D01*
X167901Y193986D01*
D02*
G37*
G36*
X157901Y188533D02*
X156903D01*
X155939Y188275D01*
X155075Y187776D01*
X154369Y187071D01*
X153870Y186207D01*
X153612Y185243D01*
Y184245D01*
X153870Y183281D01*
X154369Y182417D01*
X155075Y181712D01*
X155939Y181213D01*
X156903Y180955D01*
X157901D01*
X158864Y181213D01*
X159728Y181712D01*
X160434Y182417D01*
X160933Y183281D01*
X161191Y184245D01*
Y185243D01*
X160933Y186207D01*
X160434Y187071D01*
X159728Y187776D01*
X158864Y188275D01*
X157901Y188533D01*
D02*
G37*
G36*
X167901Y183081D02*
X166903D01*
X165939Y182823D01*
X165075Y182324D01*
X164369Y181618D01*
X163870Y180754D01*
X163612Y179790D01*
Y178793D01*
X163870Y177829D01*
X164369Y176965D01*
X165075Y176259D01*
X165939Y175760D01*
X166903Y175502D01*
X167901D01*
X168864Y175760D01*
X169728Y176259D01*
X170434Y176965D01*
X170933Y177829D01*
X171191Y178793D01*
Y179790D01*
X170933Y180754D01*
X170434Y181618D01*
X169728Y182324D01*
X168864Y182823D01*
X167901Y183081D01*
D02*
G37*
G36*
Y172175D02*
X166903D01*
X165939Y171917D01*
X165075Y171418D01*
X164369Y170713D01*
X163870Y169849D01*
X163612Y168885D01*
Y167887D01*
X163870Y166923D01*
X164369Y166059D01*
X165075Y165354D01*
X165939Y164855D01*
X166903Y164596D01*
X167901D01*
X168864Y164855D01*
X169728Y165354D01*
X170434Y166059D01*
X170933Y166923D01*
X171191Y167887D01*
Y168885D01*
X170933Y169849D01*
X170434Y170713D01*
X169728Y171418D01*
X168864Y171917D01*
X167901Y172175D01*
D02*
G37*
G36*
X157901Y166722D02*
X156903D01*
X155939Y166464D01*
X155075Y165965D01*
X154369Y165260D01*
X153870Y164396D01*
X153612Y163432D01*
Y162434D01*
X153870Y161470D01*
X154369Y160606D01*
X155075Y159901D01*
X155939Y159402D01*
X156903Y159144D01*
X157901D01*
X158864Y159402D01*
X159728Y159901D01*
X160434Y160606D01*
X160933Y161470D01*
X161191Y162434D01*
Y163432D01*
X160933Y164396D01*
X160434Y165260D01*
X159728Y165965D01*
X158864Y166464D01*
X157901Y166722D01*
D02*
G37*
G36*
X64961Y164003D02*
X63779D01*
X63242Y163896D01*
X62786Y163592D01*
X60818Y161623D01*
X60513Y161168D01*
X60406Y160630D01*
Y158599D01*
X60513Y158061D01*
X60818Y157605D01*
X63556Y154867D01*
Y151969D01*
X63583Y151833D01*
Y151694D01*
X63636Y151567D01*
X63663Y151431D01*
X63740Y151316D01*
X63793Y151188D01*
X63890Y151090D01*
X63967Y150975D01*
X64082Y150898D01*
X64180Y150800D01*
X64308Y150747D01*
X64423Y150671D01*
X64559Y150644D01*
X64687Y150591D01*
X64825D01*
X64961Y150564D01*
X65096Y150591D01*
X65235D01*
X65363Y150644D01*
X65498Y150671D01*
X65613Y150747D01*
X65741Y150800D01*
X65839Y150898D01*
X65954Y150975D01*
X66031Y151090D01*
X66129Y151188D01*
X66182Y151316D01*
X66259Y151431D01*
X66286Y151567D01*
X66339Y151694D01*
Y151833D01*
X66366Y151969D01*
Y155449D01*
X66259Y155987D01*
X65954Y156443D01*
X64303Y158093D01*
X64587Y158517D01*
X64714Y158464D01*
X65263D01*
X65769Y158674D01*
X66157Y159062D01*
X66366Y159568D01*
Y160116D01*
X66157Y160623D01*
X65847Y160932D01*
X65847Y160934D01*
X65792Y161190D01*
X65835Y161524D01*
X65839Y161528D01*
X65954Y161605D01*
X66031Y161720D01*
X66129Y161818D01*
X66182Y161946D01*
X66259Y162061D01*
X66286Y162197D01*
X66339Y162324D01*
Y162463D01*
X66366Y162598D01*
X66339Y162734D01*
Y162873D01*
X66286Y163000D01*
X66259Y163136D01*
X66182Y163251D01*
X66129Y163379D01*
X66031Y163477D01*
X65954Y163592D01*
X65839Y163669D01*
X65741Y163767D01*
X65613Y163820D01*
X65498Y163896D01*
X65363Y163923D01*
X65235Y163976D01*
X65096D01*
X64961Y164003D01*
D02*
G37*
G36*
X167901Y161270D02*
X166903D01*
X165939Y161011D01*
X165075Y160513D01*
X164369Y159807D01*
X163870Y158943D01*
X163612Y157979D01*
Y156981D01*
X163870Y156018D01*
X164369Y155154D01*
X165075Y154448D01*
X165939Y153949D01*
X166903Y153691D01*
X167901D01*
X168864Y153949D01*
X169728Y154448D01*
X170434Y155154D01*
X170933Y156018D01*
X171191Y156981D01*
Y157979D01*
X170933Y158943D01*
X170434Y159807D01*
X169728Y160513D01*
X168864Y161011D01*
X167901Y161270D01*
D02*
G37*
G36*
X157901Y155817D02*
X156903D01*
X155939Y155559D01*
X155075Y155060D01*
X154369Y154354D01*
X153870Y153490D01*
X153612Y152526D01*
Y151529D01*
X153870Y150565D01*
X154369Y149701D01*
X155075Y148995D01*
X155939Y148496D01*
X156903Y148238D01*
X157901D01*
X158864Y148496D01*
X159728Y148995D01*
X160434Y149701D01*
X160933Y150565D01*
X161191Y151529D01*
Y152526D01*
X160933Y153490D01*
X160434Y154354D01*
X159728Y155060D01*
X158864Y155559D01*
X157901Y155817D01*
D02*
G37*
G36*
X167901Y150364D02*
X166903D01*
X165939Y150106D01*
X165075Y149607D01*
X164369Y148901D01*
X163870Y148037D01*
X163612Y147074D01*
Y146076D01*
X163870Y145112D01*
X164369Y144248D01*
X165075Y143543D01*
X165939Y143044D01*
X166903Y142785D01*
X167901D01*
X168864Y143044D01*
X169728Y143543D01*
X170434Y144248D01*
X170933Y145112D01*
X171191Y146076D01*
Y147074D01*
X170933Y148037D01*
X170434Y148901D01*
X169728Y149607D01*
X168864Y150106D01*
X167901Y150364D01*
D02*
G37*
G36*
X157901Y144911D02*
X156903D01*
X155939Y144653D01*
X155075Y144154D01*
X154369Y143449D01*
X153870Y142585D01*
X153612Y141621D01*
Y140623D01*
X153870Y139659D01*
X154369Y138795D01*
X155075Y138090D01*
X155939Y137591D01*
X156903Y137333D01*
X157901D01*
X158864Y137591D01*
X159728Y138090D01*
X160434Y138795D01*
X160933Y139659D01*
X161191Y140623D01*
Y141621D01*
X160933Y142585D01*
X160434Y143449D01*
X159728Y144154D01*
X158864Y144653D01*
X157901Y144911D01*
D02*
G37*
G36*
X167901Y139459D02*
X166903D01*
X165939Y139200D01*
X165075Y138701D01*
X164369Y137996D01*
X163870Y137132D01*
X163612Y136168D01*
Y135170D01*
X163870Y134207D01*
X164369Y133343D01*
X165075Y132637D01*
X165939Y132138D01*
X166903Y131880D01*
X167901D01*
X168864Y132138D01*
X169728Y132637D01*
X170434Y133343D01*
X170933Y134207D01*
X171191Y135170D01*
Y136168D01*
X170933Y137132D01*
X170434Y137996D01*
X169728Y138701D01*
X168864Y139200D01*
X167901Y139459D01*
D02*
G37*
G36*
X157901Y134006D02*
X156903D01*
X155939Y133748D01*
X155075Y133249D01*
X154369Y132543D01*
X153870Y131679D01*
X153612Y130715D01*
Y129718D01*
X153870Y128754D01*
X154369Y127890D01*
X155075Y127184D01*
X155939Y126685D01*
X156903Y126427D01*
X157901D01*
X158864Y126685D01*
X159728Y127184D01*
X160434Y127890D01*
X160933Y128754D01*
X161191Y129718D01*
Y130715D01*
X160933Y131679D01*
X160434Y132543D01*
X159728Y133249D01*
X158864Y133748D01*
X157901Y134006D01*
D02*
G37*
G36*
X167901Y128553D02*
X166903D01*
X165939Y128295D01*
X165075Y127796D01*
X164369Y127091D01*
X163870Y126226D01*
X163612Y125263D01*
Y124265D01*
X163870Y123301D01*
X164369Y122437D01*
X165075Y121731D01*
X165939Y121233D01*
X166903Y120974D01*
X167901D01*
X168864Y121233D01*
X169728Y121731D01*
X170434Y122437D01*
X170933Y123301D01*
X171191Y124265D01*
Y125263D01*
X170933Y126226D01*
X170434Y127091D01*
X169728Y127796D01*
X168864Y128295D01*
X167901Y128553D01*
D02*
G37*
G36*
X157901Y123100D02*
X156903D01*
X155939Y122842D01*
X155075Y122343D01*
X154369Y121638D01*
X153870Y120774D01*
X153612Y119810D01*
Y118812D01*
X153870Y117848D01*
X154369Y116984D01*
X155075Y116279D01*
X155939Y115780D01*
X156903Y115522D01*
X157901D01*
X158864Y115780D01*
X159728Y116279D01*
X160434Y116984D01*
X160933Y117848D01*
X161191Y118812D01*
Y119810D01*
X160933Y120774D01*
X160434Y121638D01*
X159728Y122343D01*
X158864Y122842D01*
X157901Y123100D01*
D02*
G37*
G36*
X37087Y117707D02*
Y114331D01*
X40463D01*
X40209Y115278D01*
X39684Y116187D01*
X38943Y116928D01*
X38034Y117453D01*
X37087Y117707D01*
D02*
G37*
G36*
X27087D02*
Y114331D01*
X30463D01*
X30209Y115278D01*
X29684Y116187D01*
X28942Y116928D01*
X28034Y117453D01*
X27087Y117707D01*
D02*
G37*
G36*
X35906D02*
X34958Y117453D01*
X34050Y116928D01*
X33308Y116187D01*
X32783Y115278D01*
X32530Y114331D01*
X35906D01*
Y117707D01*
D02*
G37*
G36*
X25905D02*
X24958Y117453D01*
X24050Y116928D01*
X23308Y116187D01*
X22783Y115278D01*
X22530Y114331D01*
X25905D01*
Y117707D01*
D02*
G37*
G36*
X40463Y113150D02*
X37087D01*
Y109774D01*
X38034Y110027D01*
X38943Y110552D01*
X39684Y111294D01*
X40209Y112202D01*
X40463Y113150D01*
D02*
G37*
G36*
X30463D02*
X27087D01*
Y109774D01*
X28034Y110027D01*
X28942Y110552D01*
X29684Y111294D01*
X30209Y112202D01*
X30463Y113150D01*
D02*
G37*
G36*
X25905D02*
X22530D01*
X22783Y112202D01*
X23308Y111294D01*
X24050Y110552D01*
X24958Y110027D01*
X25905Y109774D01*
Y113150D01*
D02*
G37*
G36*
X35906D02*
X32530D01*
X32783Y112202D01*
X33308Y111294D01*
X34050Y110552D01*
X34958Y110027D01*
X35906Y109774D01*
Y113150D01*
D02*
G37*
G36*
X36943Y107134D02*
X36049D01*
X35186Y106903D01*
X34412Y106456D01*
X33780Y105824D01*
X33334Y105050D01*
X33102Y104187D01*
Y103293D01*
X33334Y102430D01*
X33780Y101656D01*
X34412Y101024D01*
X35186Y100578D01*
X36049Y100347D01*
X36943D01*
X37806Y100578D01*
X38580Y101024D01*
X39212Y101656D01*
X39658Y102430D01*
X39890Y103293D01*
Y104187D01*
X39658Y105050D01*
X39212Y105824D01*
X38580Y106456D01*
X37806Y106903D01*
X36943Y107134D01*
D02*
G37*
G36*
X26943D02*
X26049D01*
X25186Y106903D01*
X24412Y106456D01*
X23780Y105824D01*
X23334Y105050D01*
X23102Y104187D01*
Y103293D01*
X23334Y102430D01*
X23780Y101656D01*
X24412Y101024D01*
X25186Y100578D01*
X26049Y100347D01*
X26943D01*
X27806Y100578D01*
X28580Y101024D01*
X29212Y101656D01*
X29658Y102430D01*
X29890Y103293D01*
Y104187D01*
X29658Y105050D01*
X29212Y105824D01*
X28580Y106456D01*
X27806Y106903D01*
X26943Y107134D01*
D02*
G37*
G36*
X36943Y97134D02*
X36049D01*
X35186Y96903D01*
X34412Y96456D01*
X33780Y95824D01*
X33334Y95050D01*
X33102Y94187D01*
Y93293D01*
X33334Y92430D01*
X33780Y91656D01*
X34412Y91025D01*
X35186Y90578D01*
X36049Y90346D01*
X36943D01*
X37806Y90578D01*
X38580Y91025D01*
X39212Y91656D01*
X39658Y92430D01*
X39890Y93293D01*
Y94187D01*
X39658Y95050D01*
X39212Y95824D01*
X38580Y96456D01*
X37806Y96903D01*
X36943Y97134D01*
D02*
G37*
G36*
X26943D02*
X26049D01*
X25186Y96903D01*
X24412Y96456D01*
X23780Y95824D01*
X23334Y95050D01*
X23102Y94187D01*
Y93293D01*
X23334Y92430D01*
X23780Y91656D01*
X24412Y91025D01*
X25186Y90578D01*
X26049Y90346D01*
X26943D01*
X27806Y90578D01*
X28580Y91025D01*
X29212Y91656D01*
X29658Y92430D01*
X29890Y93293D01*
Y94187D01*
X29658Y95050D01*
X29212Y95824D01*
X28580Y96456D01*
X27806Y96903D01*
X26943Y97134D01*
D02*
G37*
G36*
X37087Y87707D02*
Y84331D01*
X40463D01*
X40209Y85278D01*
X39684Y86186D01*
X38943Y86928D01*
X38034Y87453D01*
X37087Y87707D01*
D02*
G37*
G36*
X27087D02*
Y84331D01*
X30463D01*
X30209Y85278D01*
X29684Y86186D01*
X28942Y86928D01*
X28034Y87453D01*
X27087Y87707D01*
D02*
G37*
G36*
X35906D02*
X34958Y87453D01*
X34050Y86928D01*
X33308Y86186D01*
X32783Y85278D01*
X32530Y84331D01*
X35906D01*
Y87707D01*
D02*
G37*
G36*
X25905D02*
X24958Y87453D01*
X24050Y86928D01*
X23308Y86186D01*
X22783Y85278D01*
X22530Y84331D01*
X25905D01*
Y87707D01*
D02*
G37*
G36*
X163267Y231862D02*
X161536D01*
X159837Y231524D01*
X158237Y230862D01*
X156797Y229900D01*
X155573Y228675D01*
X154611Y227235D01*
X153948Y225635D01*
X153610Y223937D01*
Y222205D01*
X153948Y220507D01*
X154611Y218907D01*
X155573Y217467D01*
X156797Y216242D01*
X158237Y215280D01*
X159837Y214617D01*
X161536Y214280D01*
X162531D01*
X162637Y213744D01*
X163159Y212963D01*
X172395Y203727D01*
Y121470D01*
X160698Y109774D01*
X160176Y108993D01*
X159993Y108071D01*
Y100761D01*
X159389Y100158D01*
X158237Y99681D01*
X156797Y98718D01*
X155573Y97494D01*
X154611Y96054D01*
X153948Y94454D01*
X153610Y92756D01*
Y91024D01*
X153948Y89325D01*
X154611Y87726D01*
X155573Y86286D01*
X156797Y85061D01*
X158237Y84099D01*
X159837Y83436D01*
X161536Y83098D01*
X163267D01*
X164966Y83436D01*
X166566Y84099D01*
X168006Y85061D01*
X169230Y86286D01*
X170192Y87726D01*
X170855Y89325D01*
X171193Y91024D01*
Y92756D01*
X170855Y94454D01*
X170192Y96054D01*
X169230Y97494D01*
X168006Y98718D01*
X166566Y99681D01*
X164966Y100343D01*
X164810Y100374D01*
Y107073D01*
X176506Y118769D01*
X176506Y118769D01*
X177028Y119551D01*
X177212Y120472D01*
Y204723D01*
X177212Y204724D01*
X177029Y205646D01*
X176506Y206428D01*
X167579Y215355D01*
X167642Y215999D01*
X168006Y216242D01*
X169230Y217467D01*
X170192Y218907D01*
X170855Y220507D01*
X171193Y222205D01*
Y223937D01*
X170855Y225635D01*
X170192Y227235D01*
X169230Y228675D01*
X168006Y229900D01*
X166566Y230862D01*
X164966Y231524D01*
X163267Y231862D01*
D02*
G37*
G36*
X40463Y83150D02*
X37087D01*
Y79774D01*
X38034Y80027D01*
X38943Y80552D01*
X39684Y81294D01*
X40209Y82202D01*
X40463Y83150D01*
D02*
G37*
G36*
X30463D02*
X27087D01*
Y79774D01*
X28034Y80027D01*
X28942Y80552D01*
X29684Y81294D01*
X30209Y82202D01*
X30463Y83150D01*
D02*
G37*
G36*
X35906D02*
X32530D01*
X32783Y82202D01*
X33308Y81294D01*
X34050Y80552D01*
X34958Y80027D01*
X35906Y79774D01*
Y83150D01*
D02*
G37*
G36*
X25905D02*
X22530D01*
X22783Y82202D01*
X23308Y81294D01*
X24050Y80552D01*
X24958Y80027D01*
X25905Y79774D01*
Y83150D01*
D02*
G37*
G36*
X36943Y77134D02*
X36049D01*
X35186Y76903D01*
X34412Y76456D01*
X33780Y75824D01*
X33334Y75050D01*
X33102Y74187D01*
Y73293D01*
X33334Y72430D01*
X33780Y71656D01*
X34412Y71025D01*
X35186Y70578D01*
X36049Y70346D01*
X36943D01*
X37806Y70578D01*
X38580Y71025D01*
X39212Y71656D01*
X39658Y72430D01*
X39890Y73293D01*
Y74187D01*
X39658Y75050D01*
X39212Y75824D01*
X38580Y76456D01*
X37806Y76903D01*
X36943Y77134D01*
D02*
G37*
G36*
X26943D02*
X26049D01*
X25186Y76903D01*
X24412Y76456D01*
X23780Y75824D01*
X23334Y75050D01*
X23102Y74187D01*
Y73293D01*
X23334Y72430D01*
X23780Y71656D01*
X24412Y71025D01*
X25186Y70578D01*
X26049Y70346D01*
X26943D01*
X27806Y70578D01*
X28580Y71025D01*
X29212Y71656D01*
X29658Y72430D01*
X29890Y73293D01*
Y74187D01*
X29658Y75050D01*
X29212Y75824D01*
X28580Y76456D01*
X27806Y76903D01*
X26943Y77134D01*
D02*
G37*
G36*
X103150Y158314D02*
X102228Y158131D01*
X101447Y157609D01*
X100925Y156827D01*
X100741Y155905D01*
Y84856D01*
X86092Y70207D01*
X85570Y69426D01*
X85387Y68504D01*
X85570Y67582D01*
X86092Y66801D01*
X86874Y66279D01*
X87795Y66096D01*
X88717Y66279D01*
X89498Y66801D01*
X104853Y82155D01*
X105375Y82937D01*
X105558Y83858D01*
Y155905D01*
X105375Y156827D01*
X104853Y157609D01*
X104071Y158131D01*
X103150Y158314D01*
D02*
G37*
G36*
X36943Y67134D02*
X36049D01*
X35186Y66903D01*
X34412Y66456D01*
X33780Y65824D01*
X33334Y65050D01*
X33102Y64187D01*
Y63293D01*
X33334Y62430D01*
X33780Y61656D01*
X34412Y61024D01*
X35186Y60578D01*
X36049Y60347D01*
X36943D01*
X37806Y60578D01*
X38580Y61024D01*
X39212Y61656D01*
X39658Y62430D01*
X39890Y63293D01*
Y64187D01*
X39658Y65050D01*
X39212Y65824D01*
X38580Y66456D01*
X37806Y66903D01*
X36943Y67134D01*
D02*
G37*
G36*
X26943D02*
X26049D01*
X25186Y66903D01*
X24412Y66456D01*
X23780Y65824D01*
X23334Y65050D01*
X23102Y64187D01*
Y63293D01*
X23334Y62430D01*
X23780Y61656D01*
X24412Y61024D01*
X25186Y60578D01*
X26049Y60347D01*
X26943D01*
X27806Y60578D01*
X28580Y61024D01*
X29212Y61656D01*
X29658Y62430D01*
X29890Y63293D01*
Y64187D01*
X29658Y65050D01*
X29212Y65824D01*
X28580Y66456D01*
X27806Y66903D01*
X26943Y67134D01*
D02*
G37*
G36*
X36943Y57134D02*
X36049D01*
X35186Y56903D01*
X34412Y56456D01*
X33780Y55824D01*
X33334Y55050D01*
X33102Y54187D01*
Y53293D01*
X33334Y52430D01*
X33780Y51656D01*
X34412Y51025D01*
X35186Y50578D01*
X36049Y50346D01*
X36943D01*
X37806Y50578D01*
X38580Y51025D01*
X39212Y51656D01*
X39658Y52430D01*
X39890Y53293D01*
Y54187D01*
X39658Y55050D01*
X39212Y55824D01*
X38580Y56456D01*
X37806Y56903D01*
X36943Y57134D01*
D02*
G37*
G36*
X26943D02*
X26049D01*
X25186Y56903D01*
X24412Y56456D01*
X23780Y55824D01*
X23334Y55050D01*
X23102Y54187D01*
Y53293D01*
X23334Y52430D01*
X23780Y51656D01*
X24412Y51025D01*
X25186Y50578D01*
X26049Y50346D01*
X26943D01*
X27806Y50578D01*
X28580Y51025D01*
X29212Y51656D01*
X29658Y52430D01*
X29890Y53293D01*
Y54187D01*
X29658Y55050D01*
X29212Y55824D01*
X28580Y56456D01*
X27806Y56903D01*
X26943Y57134D01*
D02*
G37*
G36*
X157901Y177628D02*
X156903D01*
X155939Y177370D01*
X155075Y176871D01*
X154369Y176165D01*
X153870Y175301D01*
X153612Y174337D01*
Y173455D01*
X142391Y162234D01*
X141869Y161453D01*
X141686Y160531D01*
Y122257D01*
X125462Y106034D01*
X124940Y105252D01*
X124757Y104331D01*
Y57241D01*
X123862Y56345D01*
X93307D01*
X92385Y56162D01*
X91604Y55640D01*
X86486Y50522D01*
X85964Y49741D01*
X85781Y48819D01*
X85964Y47897D01*
X86486Y47116D01*
X87267Y46594D01*
X88189Y46410D01*
X89111Y46594D01*
X89892Y47116D01*
X94305Y51529D01*
X124859D01*
X125781Y51712D01*
X126562Y52234D01*
X128868Y54540D01*
X129391Y55322D01*
X129574Y56243D01*
Y103333D01*
X145798Y119557D01*
X146320Y120338D01*
X146503Y121260D01*
Y159534D01*
X157018Y170049D01*
X157901D01*
X158864Y170307D01*
X159728Y170806D01*
X160434Y171512D01*
X160933Y172376D01*
X161191Y173340D01*
Y174337D01*
X160933Y175301D01*
X160434Y176165D01*
X159728Y176871D01*
X158864Y177370D01*
X157901Y177628D01*
D02*
G37*
G36*
X36943Y47134D02*
X36049D01*
X35186Y46903D01*
X34412Y46456D01*
X33780Y45824D01*
X33334Y45050D01*
X33102Y44187D01*
Y43293D01*
X33334Y42430D01*
X33780Y41656D01*
X34412Y41025D01*
X35186Y40578D01*
X36049Y40347D01*
X36943D01*
X37806Y40578D01*
X38580Y41025D01*
X39212Y41656D01*
X39658Y42430D01*
X39890Y43293D01*
Y44187D01*
X39658Y45050D01*
X39212Y45824D01*
X38580Y46456D01*
X37806Y46903D01*
X36943Y47134D01*
D02*
G37*
G36*
X26943D02*
X26049D01*
X25186Y46903D01*
X24412Y46456D01*
X23780Y45824D01*
X23334Y45050D01*
X23102Y44187D01*
Y43293D01*
X23334Y42430D01*
X23780Y41656D01*
X24412Y41025D01*
X25186Y40578D01*
X26049Y40347D01*
X26943D01*
X27806Y40578D01*
X28580Y41025D01*
X29212Y41656D01*
X29658Y42430D01*
X29890Y43293D01*
Y44187D01*
X29658Y45050D01*
X29212Y45824D01*
X28580Y46456D01*
X27806Y46903D01*
X26943Y47134D01*
D02*
G37*
%LPD*%
D46*
X144095Y121260D02*
Y160531D01*
X157402Y173839D01*
X162402Y99764D02*
Y108071D01*
X174803Y120472D02*
Y204724D01*
X162402Y108071D02*
X174803Y120472D01*
X164862Y214666D02*
X174803Y204724D01*
X158465Y95827D02*
X162402Y99764D01*
X162402Y91890D02*
Y99764D01*
X158465Y223071D02*
X160925Y220610D01*
X164862Y214666D02*
Y220610D01*
X127165Y56243D02*
Y104331D01*
X144095Y121260D01*
X88189Y48819D02*
X93307Y53937D01*
X124859D01*
X127165Y56243D01*
X87795Y68504D02*
X103150Y83858D01*
Y155905D01*
D47*
X63779Y162598D02*
X64961D01*
Y151969D02*
Y155449D01*
X61811Y160630D02*
X63779Y162598D01*
X61811Y158599D02*
X64961Y155449D01*
X61811Y158599D02*
Y160630D01*
D48*
X26842Y236779D02*
X30583Y233039D01*
X23102Y189020D02*
Y218999D01*
X23583Y185230D02*
Y188539D01*
X23102Y218999D02*
X30583Y226479D01*
X26842Y174779D02*
Y175951D01*
X23102Y238329D02*
X25293Y240520D01*
X30976Y224646D02*
X32157Y225827D01*
X23102Y184750D02*
X23583Y185230D01*
X23102Y235230D02*
X23583Y234750D01*
X23102Y181230D02*
X25627Y178706D01*
X23583Y232039D02*
Y234750D01*
X25626Y177167D02*
X26842Y175951D01*
X32157Y225827D02*
Y236754D01*
X23102Y189020D02*
X23583Y188539D01*
X30583Y226479D02*
Y233039D01*
X23102Y235230D02*
Y238329D01*
X25291Y240520D02*
X28390D01*
X25626Y177167D02*
Y178706D01*
X28394Y240520D02*
X32159Y236754D01*
X23583Y232039D02*
X26842Y228780D01*
X23102Y181230D02*
Y184750D01*
X30976Y170913D02*
Y224646D01*
X15709Y194856D02*
X19842Y198990D01*
Y224780D01*
X26842Y166779D02*
X30976Y170913D01*
X15709Y166913D02*
X19842Y162779D01*
X15709Y166913D02*
Y194856D01*
D49*
X162402Y223071D02*
D03*
Y91890D02*
D03*
D50*
X157402Y195650D02*
D03*
D51*
Y184744D02*
D03*
Y173839D02*
D03*
Y162933D02*
D03*
Y152027D02*
D03*
Y141122D02*
D03*
Y130217D02*
D03*
Y119311D02*
D03*
X167402Y190197D02*
D03*
Y179291D02*
D03*
Y168386D02*
D03*
Y157480D02*
D03*
Y146575D02*
D03*
Y135669D02*
D03*
Y124764D02*
D03*
D52*
X17717Y17717D02*
D03*
X179134D02*
D03*
Y297244D02*
D03*
X17717D02*
D03*
D53*
X19842Y224780D02*
D03*
Y162779D02*
D03*
D54*
X26842Y228780D02*
D03*
X19842Y232780D02*
D03*
X26842Y236779D02*
D03*
X19842Y240779D02*
D03*
X26842Y244779D02*
D03*
X19842Y248780D02*
D03*
X26842Y252780D02*
D03*
Y190779D02*
D03*
X19842Y186779D02*
D03*
X26842Y182780D02*
D03*
X19842Y178779D02*
D03*
X26842Y174779D02*
D03*
X19842Y170780D02*
D03*
X26842Y166779D02*
D03*
D55*
X9843Y263779D02*
D03*
Y151779D02*
D03*
D56*
X23343Y270779D02*
D03*
Y144780D02*
D03*
D57*
X26496Y93740D02*
D03*
Y83740D02*
D03*
Y73740D02*
D03*
Y63740D02*
D03*
Y53740D02*
D03*
Y43740D02*
D03*
Y103740D02*
D03*
Y113740D02*
D03*
X36496Y43740D02*
D03*
Y53740D02*
D03*
Y63740D02*
D03*
Y73740D02*
D03*
Y83740D02*
D03*
Y93740D02*
D03*
Y103740D02*
D03*
Y113740D02*
D03*
D58*
X64961Y151969D02*
D03*
Y162598D02*
D03*
X64988Y159842D02*
D03*
X137402Y62205D02*
D03*
X51968Y295276D02*
D03*
X112598Y43701D02*
D03*
Y63779D02*
D03*
X137402Y72835D02*
D03*
X51968Y284646D02*
D03*
X87795Y68504D02*
D03*
X88189Y48819D02*
D03*
X98032Y155905D02*
D03*
X121260Y151181D02*
D03*
X86221Y150787D02*
D03*
X80709D02*
D03*
X103150Y155905D02*
D03*
M02*
