G04*
G04 #@! TF.GenerationSoftware,Altium Limited,Altium Designer,24.5.2 (23)*
G04*
G04 Layer_Physical_Order=1*
G04 Layer_Color=255*
%FSLAX25Y25*%
%MOIN*%
G70*
G04*
G04 #@! TF.SameCoordinates,D3B78500-698E-47E8-96C8-459089ADB98F*
G04*
G04*
G04 #@! TF.FilePolarity,Positive*
G04*
G01*
G75*
%ADD11C,0.01000*%
%ADD16R,0.04724X0.06496*%
%ADD17R,0.03150X0.03150*%
%ADD18R,0.03347X0.03740*%
%ADD19R,0.06102X0.05315*%
G04:AMPARAMS|DCode=20|XSize=47.64mil|YSize=71.65mil|CornerRadius=7.86mil|HoleSize=0mil|Usage=FLASHONLY|Rotation=180.000|XOffset=0mil|YOffset=0mil|HoleType=Round|Shape=RoundedRectangle|*
%AMROUNDEDRECTD20*
21,1,0.04764,0.05593,0,0,180.0*
21,1,0.03192,0.07165,0,0,180.0*
1,1,0.01572,-0.01596,0.02797*
1,1,0.01572,0.01596,0.02797*
1,1,0.01572,0.01596,-0.02797*
1,1,0.01572,-0.01596,-0.02797*
%
%ADD20ROUNDEDRECTD20*%
%ADD21R,0.03543X0.02756*%
%ADD22R,0.02756X0.03543*%
%ADD23R,0.02165X0.07874*%
%ADD24R,0.02165X0.07874*%
%ADD25R,0.06614X0.12362*%
%ADD46C,0.03937*%
%ADD47C,0.01968*%
%ADD48C,0.01181*%
%ADD49C,0.12205*%
%ADD50R,0.05512X0.05512*%
%ADD51C,0.05512*%
%ADD52C,0.12795*%
%ADD53C,0.09449*%
%ADD54C,0.06000*%
%ADD55C,0.06791*%
%ADD56R,0.06791X0.06791*%
%ADD57C,0.16795*%
%ADD58C,0.01968*%
D11*
X98032Y155905D02*
X98150Y155787D01*
X80709Y154724D02*
X80709Y154724D01*
X98150Y146181D02*
X98268Y146063D01*
D16*
X158268Y62205D02*
D03*
X147244D02*
D03*
X35433Y295276D02*
D03*
X46457D02*
D03*
D17*
X101181Y43701D02*
D03*
X107480D02*
D03*
X101181Y63779D02*
D03*
X107480D02*
D03*
D18*
X87992D02*
D03*
X93110D02*
D03*
X87992Y43701D02*
D03*
X93110D02*
D03*
X115945Y165354D02*
D03*
X121063D02*
D03*
X85236Y146063D02*
D03*
X80118D02*
D03*
X85236Y165354D02*
D03*
X80118D02*
D03*
X103347Y181102D02*
D03*
X98228D02*
D03*
X103347Y129921D02*
D03*
X98228D02*
D03*
X132874Y146063D02*
D03*
X127756D02*
D03*
X121063D02*
D03*
X115945D02*
D03*
X132874Y165354D02*
D03*
X127756D02*
D03*
D19*
X71653Y151969D02*
D03*
Y159843D02*
D03*
D20*
X46654Y284646D02*
D03*
X35236D02*
D03*
X147047Y72835D02*
D03*
X158465D02*
D03*
D21*
X86221Y154724D02*
D03*
Y160236D02*
D03*
X80709Y154724D02*
D03*
Y160236D02*
D03*
D22*
X103543Y174016D02*
D03*
X98032D02*
D03*
X103543Y137008D02*
D03*
X98032D02*
D03*
X121260Y155512D02*
D03*
X115748D02*
D03*
D23*
X93268Y146063D02*
D03*
X98268D02*
D03*
X103268D02*
D03*
X108268D02*
D03*
D24*
X93268Y165354D02*
D03*
X98268D02*
D03*
X103268D02*
D03*
X108268D02*
D03*
D25*
X80276Y43701D02*
D03*
X61457D02*
D03*
X80276Y63779D02*
D03*
X61457D02*
D03*
D46*
X158268Y62205D02*
X158366Y62303D01*
Y72736D02*
X158465Y72835D01*
X158366Y62303D02*
Y72736D01*
X158465Y72835D02*
Y91890D01*
X133465Y72835D02*
X147047D01*
X170866Y120472D02*
Y128268D01*
X159055Y108661D02*
X170866Y120472D01*
X163465Y135669D02*
X170866Y128268D01*
X131890Y108661D02*
X159055D01*
X126772Y103543D02*
X131890Y108661D01*
X46457Y295276D02*
X51968D01*
X35335Y284744D02*
Y295177D01*
X35236Y284646D02*
X35335Y284744D01*
Y295177D02*
X35433Y295276D01*
X133465Y62205D02*
X147244D01*
X107480Y43701D02*
X112598D01*
X107480Y63779D02*
X112598D01*
X12894Y240059D02*
X33968Y261134D01*
X12894Y148151D02*
Y240059D01*
X18025Y143020D02*
X25282D01*
X12894Y148151D02*
X18025Y143020D01*
X27518Y145256D02*
X34677D01*
X25282Y143020D02*
X27518Y145256D01*
X34677D02*
X35153Y144780D01*
X33968Y261134D02*
Y265717D01*
X124465Y53740D02*
X126772Y56046D01*
Y103543D01*
X48307Y53740D02*
X124465D01*
X46654Y284646D02*
X51968D01*
X34099Y269725D02*
X35153Y270779D01*
X33968Y265717D02*
X34099Y265848D01*
Y269725D01*
X87795Y68504D02*
X87992Y68307D01*
Y63779D02*
Y68307D01*
X38307Y63740D02*
X48307D01*
X88091Y43799D02*
Y48720D01*
X48307Y93740D02*
Y103740D01*
X38307Y93740D02*
Y103740D01*
Y93740D02*
X48307D01*
X32945Y79661D02*
X38307Y74298D01*
X32945Y79661D02*
Y87820D01*
X38307Y73740D02*
Y74298D01*
X32945Y87820D02*
X38307Y93182D01*
Y93740D01*
Y73740D02*
X48307D01*
X38307Y63740D02*
Y73740D01*
Y53740D02*
X48307D01*
X99702Y159353D02*
X103150Y155905D01*
Y153245D02*
X103268Y153127D01*
X103150Y153245D02*
Y155905D01*
X121260Y151181D02*
Y155512D01*
X86221Y150787D02*
Y154724D01*
X80709Y150787D02*
Y154724D01*
X103268Y146063D02*
Y153127D01*
X98425Y159353D02*
Y165197D01*
X35195Y270821D02*
Y284604D01*
X93110Y43701D02*
X101181D01*
X93110Y63779D02*
X101181D01*
X80276Y43701D02*
X87992D01*
X80276Y63779D02*
X87992D01*
X48307Y43740D02*
X61417D01*
X38307D02*
X48307D01*
Y63740D02*
X61417D01*
D47*
X145591Y195650D02*
X153465D01*
X132874Y134449D02*
X142559Y124764D01*
X163465D01*
X64988Y159842D02*
X71653D01*
X103543Y174016D02*
Y180905D01*
X103347Y181102D02*
X103543Y180905D01*
Y174016D02*
X104331Y173228D01*
Y172146D02*
Y173228D01*
Y172146D02*
X108268Y168209D01*
X132874Y134449D02*
Y146063D01*
Y182933D02*
X145591Y195650D01*
X132874Y165354D02*
Y182933D01*
X64961Y151969D02*
X71653D01*
X76673Y146063D02*
X80118D01*
X72047Y151969D02*
X76673Y147343D01*
Y146063D02*
Y147343D01*
X76772Y165354D02*
X80118D01*
X76772Y164567D02*
Y165354D01*
X72047Y159843D02*
X76772Y164567D01*
X80709Y160236D02*
X86221D01*
X86811Y159646D02*
X98133D01*
X98150Y146181D02*
Y155787D01*
X110256Y155512D02*
X115748D01*
X108268Y146063D02*
X115945D01*
X108268Y165354D02*
X115945D01*
X93760Y141673D02*
X98032Y137402D01*
X93760Y141673D02*
Y145571D01*
X103543Y137402D02*
X107776Y141634D01*
Y145571D01*
X98130Y130020D02*
Y136909D01*
X103445Y130020D02*
Y136909D01*
X98130Y174114D02*
Y181004D01*
X93268Y168209D02*
X97244Y172185D01*
Y173228D01*
X98032Y174016D01*
X121063Y146063D02*
X127756D01*
X121063Y165354D02*
X127756D01*
X85236D02*
X93268D01*
X85236Y146063D02*
X93268D01*
X103268Y162500D02*
X110256Y155512D01*
D48*
X24087Y233213D02*
X31653Y240779D01*
X24087Y173057D02*
Y233213D01*
X33203Y167039D02*
X35394Y169230D01*
Y172329D01*
X34913Y172809D02*
X35394Y172329D01*
X24087Y173057D02*
X30104Y167039D01*
X34913Y172809D02*
Y175520D01*
X31653Y178779D02*
X34913Y175520D01*
X27559Y185101D02*
Y225984D01*
X29881Y182780D02*
X38653D01*
X30104Y167039D02*
X33203D01*
X27559Y185101D02*
X29881Y182780D01*
X25661Y176772D02*
Y226787D01*
X26339Y227465D01*
X25661Y176772D02*
X31653Y170780D01*
X27913Y226339D02*
Y227943D01*
X32683Y228520D02*
X35394Y231230D01*
X27913Y227943D02*
X28490Y228520D01*
X27559Y225984D02*
X27913Y226339D01*
X34913Y235020D02*
X35394Y234539D01*
Y231230D02*
Y234539D01*
Y238809D02*
Y241520D01*
X34913Y238329D02*
X35394Y238809D01*
X34913Y235020D02*
Y238329D01*
X28490Y228520D02*
X32683D01*
X35394Y241520D02*
X38653Y244779D01*
X27838Y230095D02*
X28969D01*
X26339Y228595D02*
X27838Y230095D01*
X26339Y227465D02*
Y228595D01*
X28969Y230095D02*
X31653Y232780D01*
X36772Y186187D02*
X37104Y186520D01*
X32246Y186187D02*
X36772D01*
X31653Y186779D02*
X32246Y186187D01*
X43968Y183591D02*
X64961Y162598D01*
X42394Y182381D02*
X64933Y159842D01*
X64988D01*
X87992Y43701D02*
X88091Y43799D01*
Y48720D02*
X88189Y48819D01*
X71653Y151969D02*
X72047D01*
X43968Y183591D02*
Y184981D01*
X71653Y159843D02*
X72047D01*
X71653Y159842D02*
X71653Y159843D01*
X42394Y182381D02*
Y184329D01*
X38653Y190296D02*
X43968Y184981D01*
X38653Y190296D02*
Y190779D01*
X40203Y186520D02*
X42394Y184329D01*
X37104Y186520D02*
X40203D01*
X86221Y160236D02*
X86811Y159646D01*
X98133D02*
X98425Y159353D01*
X99702D01*
X121260Y155512D02*
X121260Y155512D01*
X86221Y154724D02*
X86221Y154724D01*
X98268Y165354D02*
X98425Y165197D01*
X93268Y146063D02*
X93760Y145571D01*
X98032Y137008D02*
Y137402D01*
X103543Y137008D02*
Y137402D01*
X107776Y145571D02*
X108268Y146063D01*
X98032Y137008D02*
X98130Y136909D01*
Y130020D02*
X98228Y129921D01*
X103445Y136909D02*
X103543Y137008D01*
X103347Y129921D02*
X103445Y130020D01*
X98130Y181004D02*
X98228Y181102D01*
X98032Y174016D02*
X98130Y174114D01*
X93268Y165354D02*
Y168209D01*
X108268Y165354D02*
Y168209D01*
X103268Y162500D02*
Y165354D01*
X35153Y270779D02*
X35195Y270821D01*
Y284604D02*
X35236Y284646D01*
X61417Y43740D02*
X61457Y43701D01*
X61417Y63740D02*
X61457Y63779D01*
D49*
X17717Y17717D02*
D03*
X179134D02*
D03*
Y297244D02*
D03*
X17717D02*
D03*
D50*
X31653Y224780D02*
D03*
Y162779D02*
D03*
D51*
X38653Y228780D02*
D03*
X31653Y232780D02*
D03*
X38653Y236779D02*
D03*
X31653Y240779D02*
D03*
X38653Y244779D02*
D03*
X31653Y248780D02*
D03*
X38653Y252780D02*
D03*
Y190779D02*
D03*
X31653Y186779D02*
D03*
X38653Y182780D02*
D03*
X31653Y178779D02*
D03*
X38653Y174779D02*
D03*
X31653Y170780D02*
D03*
X38653Y166779D02*
D03*
D52*
X21654Y263779D02*
D03*
Y151779D02*
D03*
D53*
X35153Y270779D02*
D03*
Y144780D02*
D03*
D54*
X38307Y93740D02*
D03*
Y83740D02*
D03*
Y73740D02*
D03*
Y63740D02*
D03*
Y53740D02*
D03*
Y43740D02*
D03*
Y103740D02*
D03*
Y113740D02*
D03*
X48307Y43740D02*
D03*
Y53740D02*
D03*
Y63740D02*
D03*
Y73740D02*
D03*
Y83740D02*
D03*
Y93740D02*
D03*
Y103740D02*
D03*
Y113740D02*
D03*
D55*
X163465Y124764D02*
D03*
Y135669D02*
D03*
Y146575D02*
D03*
Y157480D02*
D03*
Y168386D02*
D03*
Y179291D02*
D03*
Y190197D02*
D03*
X153465Y119311D02*
D03*
Y130217D02*
D03*
Y141122D02*
D03*
Y152027D02*
D03*
Y162933D02*
D03*
Y173839D02*
D03*
Y184744D02*
D03*
D56*
Y195650D02*
D03*
D57*
X158465Y91890D02*
D03*
Y223071D02*
D03*
D58*
X133465Y62205D02*
D03*
X51968Y295276D02*
D03*
X112598Y43701D02*
D03*
Y63779D02*
D03*
X133465Y72835D02*
D03*
X51968Y284646D02*
D03*
X64988Y159842D02*
D03*
X64961Y162598D02*
D03*
X87795Y68504D02*
D03*
X88189Y48819D02*
D03*
X64961Y151969D02*
D03*
X98032Y155905D02*
D03*
X121260Y151181D02*
D03*
X86221Y150787D02*
D03*
X80709D02*
D03*
X103150Y155905D02*
D03*
M02*
