G04*
G04 #@! TF.GenerationSoftware,Altium Limited,Altium Designer,24.6.1 (21)*
G04*
G04 Layer_Color=16711935*
%FSLAX25Y25*%
%MOIN*%
G70*
G04*
G04 #@! TF.SameCoordinates,710C80C3-CA58-4EFA-8537-2607FA9E4165*
G04*
G04*
G04 #@! TF.FilePolarity,Positive*
G04*
G01*
G75*
%ADD10C,0.00787*%
G36*
X117345Y191299D02*
X109488D01*
Y218163D01*
X117345D01*
Y191299D01*
D02*
G37*
G36*
X117002Y100000D02*
X106796D01*
Y118850D01*
X112611D01*
Y119889D01*
X111991D01*
X112008Y119897D01*
X112042Y119923D01*
X112100Y119973D01*
X112176Y120032D01*
X112259Y120107D01*
X112343Y120208D01*
X112427Y120308D01*
X112503Y120434D01*
X112511Y120451D01*
X112536Y120492D01*
X112569Y120568D01*
X112603Y120660D01*
X112637Y120769D01*
X112670Y120903D01*
X112695Y121046D01*
X112704Y121196D01*
Y121264D01*
X112695Y121322D01*
X112687Y121381D01*
X112670Y121456D01*
X112653Y121540D01*
X112628Y121624D01*
X112603Y121724D01*
X112561Y121817D01*
X112519Y121925D01*
X112461Y122026D01*
X112393Y122135D01*
X112318Y122236D01*
X112226Y122336D01*
X112125Y122437D01*
X112117Y122445D01*
X112100Y122462D01*
X112067Y122487D01*
X112016Y122520D01*
X111966Y122554D01*
X111891Y122596D01*
X111807Y122646D01*
X111715Y122696D01*
X111606Y122738D01*
X111488Y122789D01*
X111354Y122830D01*
X111212Y122872D01*
X111053Y122898D01*
X110893Y122923D01*
X110709Y122940D01*
X110525Y122948D01*
X110424D01*
X110349Y122940D01*
X110265Y122931D01*
X110164Y122923D01*
X110047Y122906D01*
X109930Y122881D01*
X109662Y122822D01*
X109528Y122780D01*
X109394Y122730D01*
X109259Y122671D01*
X109134Y122596D01*
X109008Y122520D01*
X108891Y122428D01*
X108882Y122420D01*
X108866Y122403D01*
X108840Y122378D01*
X108799Y122336D01*
X108757Y122286D01*
X108706Y122227D01*
X108656Y122160D01*
X108606Y122085D01*
X108547Y121993D01*
X108497Y121900D01*
X108405Y121691D01*
X108363Y121573D01*
X108338Y121448D01*
X108321Y121322D01*
X108312Y121188D01*
Y121129D01*
X108321Y121062D01*
X108329Y120978D01*
X108346Y120878D01*
X108371Y120769D01*
X108405Y120660D01*
X108447Y120551D01*
X108455Y120543D01*
X108472Y120501D01*
X108514Y120451D01*
X108564Y120375D01*
X108623Y120283D01*
X108706Y120191D01*
X108807Y120082D01*
X108924Y119965D01*
X106796D01*
Y100000D01*
X99695D01*
Y100000D01*
X92644D01*
Y138338D01*
X93647D01*
X92644D01*
Y100000D01*
X82677D01*
Y184812D01*
X92644D01*
Y159757D01*
X92644D01*
Y184812D01*
X99695D01*
Y184812D01*
X106796D01*
Y184812D01*
X117002D01*
Y100000D01*
D02*
G37*
G36*
X110684Y121800D02*
X110743Y121791D01*
X110885Y121775D01*
X111044Y121741D01*
X111212Y121699D01*
X111363Y121632D01*
X111497Y121540D01*
X111514Y121532D01*
X111547Y121490D01*
X111597Y121431D01*
X111664Y121356D01*
X111723Y121264D01*
X111773Y121154D01*
X111807Y121029D01*
X111824Y120886D01*
Y120870D01*
X111815Y120819D01*
X111807Y120744D01*
X111782Y120652D01*
X111748Y120543D01*
X111690Y120425D01*
X111614Y120317D01*
X111505Y120208D01*
X111488Y120199D01*
X111447Y120166D01*
X111371Y120124D01*
X111271Y120082D01*
X111136Y120032D01*
X110977Y119990D01*
X110793Y119956D01*
X110575Y119948D01*
X110567D01*
X110542D01*
X110508D01*
X110458Y119956D01*
X110399D01*
X110332Y119965D01*
X110181Y119981D01*
X110005Y120015D01*
X109829Y120065D01*
X109670Y120132D01*
X109595Y120174D01*
X109528Y120224D01*
X109511Y120241D01*
X109477Y120275D01*
X109419Y120333D01*
X109360Y120417D01*
X109301Y120509D01*
X109243Y120627D01*
X109209Y120761D01*
X109192Y120903D01*
Y120920D01*
X109201Y120970D01*
X109209Y121037D01*
X109234Y121129D01*
X109268Y121230D01*
X109326Y121339D01*
X109402Y121448D01*
X109502Y121548D01*
X109519Y121557D01*
X109561Y121590D01*
X109636Y121632D01*
X109746Y121683D01*
X109812Y121699D01*
X109888Y121724D01*
X109972Y121749D01*
X110064Y121766D01*
X110164Y121783D01*
X110273Y121800D01*
X110391Y121808D01*
X110516D01*
X110525D01*
X110550D01*
X110583D01*
X110625D01*
X110684Y121800D01*
D02*
G37*
%LPC*%
G36*
X112254Y216194D02*
X111528D01*
Y215468D01*
X112254D01*
Y216194D01*
D02*
G37*
G36*
X114187Y215157D02*
X113559Y214928D01*
X113564Y214922D01*
X113575Y214895D01*
X113597Y214862D01*
X113619Y214818D01*
X113641Y214764D01*
X113663Y214709D01*
X113673Y214649D01*
X113679Y214589D01*
Y214567D01*
X113673Y214534D01*
X113668Y214502D01*
X113657Y214463D01*
X113641Y214420D01*
X113619Y214376D01*
X113592Y214332D01*
X113586Y214327D01*
X113575Y214316D01*
X113553Y214294D01*
X113521Y214272D01*
X113482Y214245D01*
X113428Y214218D01*
X113362Y214191D01*
X113286Y214169D01*
X113275D01*
X113259Y214163D01*
X113242Y214158D01*
X113215D01*
X113182Y214152D01*
X113138Y214147D01*
X113089Y214141D01*
X113035Y214136D01*
X112964Y214130D01*
X112893Y214125D01*
X112805D01*
X112713Y214120D01*
X112609Y214114D01*
X112494D01*
X112369D01*
X111528D01*
Y213388D01*
X114269D01*
Y214059D01*
X113881D01*
X113886Y214065D01*
X113919Y214087D01*
X113968Y214120D01*
X114028Y214163D01*
X114088Y214207D01*
X114148Y214261D01*
X114203Y214311D01*
X114241Y214365D01*
X114247Y214371D01*
X114258Y214387D01*
X114269Y214420D01*
X114285Y214458D01*
X114301Y214502D01*
X114318Y214556D01*
X114323Y214611D01*
X114329Y214676D01*
Y213388D01*
D01*
Y214720D01*
X114323Y214769D01*
X114312Y214829D01*
X114296Y214906D01*
X114269Y214988D01*
X114236Y215070D01*
X114187Y215157D01*
D02*
G37*
G36*
X115306Y212618D02*
X111528D01*
Y211854D01*
X114017Y210319D01*
X111528D01*
Y209615D01*
X115306D01*
Y212618D01*
D02*
G37*
G36*
X113264Y209189D02*
X112538D01*
Y207764D01*
X113264D01*
Y209189D01*
D02*
G37*
G36*
X115306Y207103D02*
X111528D01*
Y206377D01*
X115306D01*
Y207103D01*
D02*
G37*
G36*
X111528Y205820D02*
D01*
Y205105D01*
X111533D01*
X111539Y205100D01*
X111560Y205094D01*
X111582Y205083D01*
X111610Y205072D01*
X111648Y205061D01*
X111691Y205050D01*
X111741Y205034D01*
X111746D01*
X111751Y205029D01*
X111773Y205023D01*
X111801Y205012D01*
X111822Y205007D01*
X111817Y204996D01*
X111795Y204974D01*
X111762Y204936D01*
X111724Y204887D01*
X111680Y204826D01*
X111631Y204761D01*
X111593Y204685D01*
X111555Y204608D01*
X111549Y204597D01*
X111544Y204570D01*
X111528Y204526D01*
X111511Y204472D01*
X111495Y204406D01*
X111484Y204330D01*
X111473Y204242D01*
X111468Y204155D01*
Y204117D01*
X111473Y204084D01*
Y204051D01*
X111478Y204008D01*
X111495Y203915D01*
X111522Y203805D01*
X111560Y203696D01*
X111615Y203587D01*
X111691Y203489D01*
X111697D01*
X111702Y203478D01*
X111735Y203451D01*
X111784Y203412D01*
X111850Y203369D01*
X111932Y203325D01*
X112030Y203287D01*
X112145Y203259D01*
X112205Y203254D01*
X112270Y203249D01*
X111468D01*
X112308D01*
X112352Y203254D01*
X112407Y203265D01*
X112472Y203276D01*
X112538Y203292D01*
X112609Y203320D01*
X112680Y203358D01*
X112691Y203363D01*
X112713Y203380D01*
X112745Y203401D01*
X112784Y203440D01*
X112827Y203478D01*
X112876Y203533D01*
X112920Y203593D01*
X112958Y203664D01*
X112964Y203675D01*
X112975Y203702D01*
X112991Y203746D01*
X113018Y203811D01*
X113046Y203893D01*
X113073Y203991D01*
X113100Y204111D01*
X113127Y204242D01*
Y204248D01*
X113133Y204264D01*
X113138Y204292D01*
X113144Y204324D01*
X113149Y204368D01*
X113160Y204417D01*
X113188Y204526D01*
X113215Y204641D01*
X113242Y204761D01*
X113275Y204865D01*
X113291Y204914D01*
X113308Y204952D01*
X113379D01*
X113390D01*
X113411D01*
X113450Y204947D01*
X113499Y204941D01*
X113548Y204925D01*
X113597Y204908D01*
X113641Y204881D01*
X113679Y204843D01*
X113684Y204837D01*
X113695Y204821D01*
X113706Y204794D01*
X113728Y204756D01*
X113744Y204701D01*
X113755Y204635D01*
X113766Y204554D01*
X113772Y204455D01*
Y204422D01*
X113766Y204390D01*
X113761Y204346D01*
X113750Y204297D01*
X113739Y204242D01*
X113717Y204193D01*
X113690Y204150D01*
X113684Y204144D01*
X113673Y204133D01*
X113657Y204111D01*
X113630Y204089D01*
X113592Y204057D01*
X113542Y204029D01*
X113488Y204002D01*
X113422Y203975D01*
X113542Y203325D01*
X113548D01*
X113559Y203330D01*
X113581Y203336D01*
X113608Y203347D01*
X113641Y203358D01*
X113679Y203374D01*
X113766Y203412D01*
X113859Y203467D01*
X113957Y203533D01*
X114050Y203609D01*
X114132Y203702D01*
Y203707D01*
X114143Y203713D01*
X114148Y203729D01*
X114165Y203751D01*
X114176Y203784D01*
X114192Y203817D01*
X114214Y203860D01*
X114230Y203904D01*
X114247Y203958D01*
X114269Y204018D01*
X114285Y204084D01*
X114296Y204160D01*
X114312Y204237D01*
X114318Y204324D01*
X114329Y204412D01*
Y204592D01*
X114323Y204630D01*
Y204674D01*
X114312Y204783D01*
X114301Y204897D01*
X114279Y205018D01*
X114247Y205132D01*
X114230Y205181D01*
X114208Y205231D01*
Y205236D01*
X114203Y205241D01*
X114187Y205269D01*
X114165Y205312D01*
X114132Y205362D01*
X114088Y205422D01*
X114039Y205476D01*
X113979Y205525D01*
X113919Y205569D01*
X113908Y205575D01*
X113886Y205586D01*
X113837Y205602D01*
X113810Y205607D01*
X113772Y205618D01*
X113733Y205629D01*
X113684Y205635D01*
X113630Y205646D01*
X113570Y205651D01*
X113504Y205657D01*
X113433Y205662D01*
X113357Y205667D01*
X113269D01*
X112423Y205657D01*
X112418D01*
X112407D01*
X112390D01*
X112363D01*
X112297D01*
X112221Y205662D01*
X112134D01*
X112046Y205673D01*
X111959Y205678D01*
X111888Y205689D01*
X111883D01*
X111861Y205695D01*
X111822Y205706D01*
X111779Y205716D01*
X111724Y205738D01*
X111664Y205760D01*
X111599Y205787D01*
X111528Y205820D01*
D02*
G37*
G36*
X115306Y202697D02*
X111528D01*
Y201971D01*
X114269D01*
Y202697D01*
X114634D01*
Y201971D01*
X115306D01*
Y202697D01*
D02*
G37*
G36*
X114187Y201660D02*
X113559Y201430D01*
X113564Y201425D01*
X113575Y201398D01*
X113597Y201365D01*
X113619Y201321D01*
X113641Y201267D01*
X113663Y201212D01*
X113673Y201152D01*
X113679Y201092D01*
Y201070D01*
X113673Y201037D01*
X113668Y201005D01*
X113657Y200966D01*
X113641Y200923D01*
X113619Y200879D01*
X113592Y200835D01*
X113586Y200830D01*
X113575Y200819D01*
X113553Y200797D01*
X113521Y200775D01*
X113482Y200748D01*
X113428Y200721D01*
X113362Y200693D01*
X113286Y200672D01*
X113275D01*
X113259Y200666D01*
X113242Y200661D01*
X113215D01*
X113182Y200655D01*
X113138Y200650D01*
X113089Y200644D01*
X113035Y200639D01*
X112964Y200633D01*
X112893Y200628D01*
X112805D01*
X112713Y200622D01*
X112609Y200617D01*
X112494D01*
X112369D01*
X111528D01*
Y199891D01*
X114269D01*
Y200562D01*
X113881D01*
X113886Y200568D01*
X113919Y200590D01*
X113968Y200622D01*
X114028Y200666D01*
X114088Y200710D01*
X114148Y200764D01*
X114203Y200813D01*
X114241Y200868D01*
X114247Y200873D01*
X114258Y200890D01*
X114269Y200923D01*
X114285Y200961D01*
X114301Y201005D01*
X114318Y201059D01*
X114323Y201114D01*
X114329Y201179D01*
Y200562D01*
Y201223D01*
X114323Y201272D01*
X114312Y201332D01*
X114296Y201409D01*
X114269Y201490D01*
X114236Y201572D01*
X114187Y201660D01*
D02*
G37*
G36*
X112838Y199328D02*
X111468D01*
Y198067D01*
X111473Y198034D01*
Y197985D01*
X111484Y197925D01*
X111495Y197854D01*
X111506Y197778D01*
X111528Y197701D01*
X111549Y197614D01*
X111582Y197527D01*
X111620Y197439D01*
X111664Y197352D01*
X111719Y197265D01*
X111779Y197183D01*
X111850Y197112D01*
X111932Y197041D01*
X111937Y197035D01*
X111948Y197030D01*
X111970Y197019D01*
X111997Y196997D01*
X112035Y196981D01*
X112079Y196959D01*
X112128Y196931D01*
X112188Y196909D01*
X112254Y196882D01*
X112325Y196860D01*
X112401Y196833D01*
X112489Y196817D01*
X112576Y196800D01*
X112669Y196784D01*
X112773Y196779D01*
X112876Y196773D01*
X114329D01*
Y198083D01*
X114323Y198127D01*
X114318Y198176D01*
X114307Y198236D01*
X114296Y198302D01*
X114279Y198373D01*
X114258Y198449D01*
X114230Y198526D01*
X114198Y198608D01*
X114154Y198689D01*
X114110Y198766D01*
X114056Y198842D01*
X113990Y198919D01*
X113919Y198984D01*
X113914Y198990D01*
X113903Y199001D01*
X113875Y199017D01*
X113843Y199039D01*
X113799Y199066D01*
X113750Y199094D01*
X113684Y199126D01*
X113613Y199159D01*
X113531Y199192D01*
X113439Y199225D01*
X113340Y199252D01*
X113226Y199279D01*
X113106Y199301D01*
X112975Y199317D01*
X112838Y199328D01*
D02*
G37*
G36*
X115377Y196342D02*
D01*
Y194851D01*
X115372Y194900D01*
X115366Y194960D01*
X115361Y195031D01*
X115350Y195102D01*
X115339Y195184D01*
X115301Y195359D01*
X115273Y195446D01*
X115246Y195534D01*
X115208Y195621D01*
X115164Y195703D01*
X115115Y195779D01*
X115060Y195850D01*
X115055Y195856D01*
X115044Y195867D01*
X115027Y195883D01*
X115006Y195905D01*
X114973Y195932D01*
X114935Y195965D01*
X114891Y195998D01*
X114842Y196036D01*
X114782Y196069D01*
X114722Y196101D01*
X114651Y196134D01*
X114574Y196161D01*
X114498Y196189D01*
X114410Y196211D01*
X114323Y196227D01*
X114225Y196232D01*
X114198Y195468D01*
X114203D01*
X114208D01*
X114247Y195457D01*
X114296Y195446D01*
X114356Y195424D01*
X114427Y195397D01*
X114492Y195359D01*
X114558Y195310D01*
X114613Y195255D01*
X114618Y195250D01*
X114634Y195228D01*
X114656Y195190D01*
X114678Y195135D01*
X114700Y195070D01*
X114722Y194988D01*
X114738Y194889D01*
X114744Y194775D01*
Y194720D01*
X114738Y194660D01*
X114727Y194589D01*
X114711Y194507D01*
X114683Y194420D01*
X114651Y194338D01*
X114602Y194261D01*
X114596Y194256D01*
X114585Y194245D01*
X114569Y194223D01*
X114542Y194201D01*
X114509Y194179D01*
X114465Y194158D01*
X114421Y194147D01*
X114367Y194141D01*
X114361D01*
X114345D01*
X114318Y194147D01*
X114290Y194158D01*
X114252Y194169D01*
X114214Y194185D01*
X114176Y194212D01*
X114138Y194251D01*
X114132Y194256D01*
X114116Y194283D01*
X114105Y194300D01*
X114094Y194327D01*
X114077Y194354D01*
X114061Y194393D01*
X114045Y194436D01*
X114023Y194485D01*
X114001Y194545D01*
X113979Y194605D01*
X113957Y194682D01*
X113935Y194764D01*
X113914Y194851D01*
X113886Y194949D01*
Y194955D01*
X113881Y194977D01*
X113875Y195004D01*
X113865Y195042D01*
X113854Y195086D01*
X113837Y195141D01*
X113821Y195201D01*
X113804Y195261D01*
X113761Y195392D01*
X113717Y195528D01*
X113668Y195659D01*
X113641Y195714D01*
X113613Y195768D01*
Y195774D01*
X113608Y195779D01*
X113586Y195812D01*
X113553Y195861D01*
X113510Y195921D01*
X113455Y195987D01*
X113390Y196058D01*
X113313Y196129D01*
X113226Y196189D01*
X113215Y196194D01*
X113182Y196211D01*
X113133Y196238D01*
X113062Y196265D01*
X112975Y196293D01*
X112871Y196320D01*
X112756Y196336D01*
X112625Y196342D01*
X112571D01*
X112543Y196336D01*
X112505Y196331D01*
X112429Y196320D01*
X112330Y196298D01*
X112226Y196265D01*
X112123Y196216D01*
X112014Y196156D01*
X112008D01*
X112003Y196145D01*
X111970Y196123D01*
X111915Y196080D01*
X111855Y196025D01*
X111784Y195954D01*
X111719Y195861D01*
X111653Y195763D01*
X111593Y195643D01*
Y195637D01*
X111588Y195626D01*
X111582Y195610D01*
X111571Y195583D01*
X111560Y195550D01*
X111549Y195512D01*
X111539Y195468D01*
X111528Y195419D01*
X111511Y195359D01*
X111500Y195299D01*
X111478Y195157D01*
X111462Y194999D01*
X111457Y194824D01*
Y194753D01*
X111462Y194704D01*
X111468Y194644D01*
X111473Y194578D01*
X111484Y194502D01*
X111500Y194420D01*
X111539Y194240D01*
X111566Y194147D01*
X111593Y194059D01*
X111631Y193967D01*
X111675Y193879D01*
X111724Y193797D01*
X111784Y193721D01*
X111790Y193716D01*
X111801Y193704D01*
X111817Y193683D01*
X111844Y193661D01*
X111883Y193628D01*
X111926Y193595D01*
X111975Y193557D01*
X112030Y193519D01*
X112095Y193481D01*
X112167Y193442D01*
X112248Y193404D01*
X112336Y193366D01*
X112429Y193339D01*
X112532Y193306D01*
X112642Y193284D01*
X112756Y193268D01*
D01*
X112827Y194010D01*
X112822D01*
X112811Y194016D01*
X112789D01*
X112767Y194021D01*
X112702Y194043D01*
X112620Y194070D01*
X112527Y194103D01*
X112434Y194152D01*
X112352Y194207D01*
X112276Y194278D01*
X112270Y194289D01*
X112248Y194316D01*
X112221Y194360D01*
X112188Y194425D01*
X112156Y194507D01*
X112128Y194600D01*
X112106Y194709D01*
X112101Y194835D01*
Y194895D01*
X112112Y194960D01*
X112123Y195042D01*
X112139Y195130D01*
X112167Y195222D01*
X112205Y195310D01*
X112254Y195386D01*
X112259Y195397D01*
X112281Y195419D01*
X112314Y195446D01*
X112358Y195484D01*
X112412Y195517D01*
X112478Y195550D01*
X112543Y195572D01*
X112620Y195577D01*
X112625D01*
X112642D01*
X112669Y195572D01*
X112702Y195566D01*
X112734Y195555D01*
X112773Y195545D01*
X112811Y195523D01*
X112849Y195495D01*
X112854Y195490D01*
X112865Y195479D01*
X112882Y195463D01*
X112904Y195435D01*
X112931Y195397D01*
X112958Y195348D01*
X112986Y195293D01*
X113013Y195222D01*
Y195217D01*
X113024Y195195D01*
X113035Y195157D01*
X113046Y195130D01*
X113051Y195097D01*
X113062Y195059D01*
X113078Y195015D01*
X113089Y194966D01*
X113106Y194911D01*
X113122Y194846D01*
X113138Y194775D01*
X113160Y194698D01*
X113182Y194611D01*
Y194605D01*
X113188Y194584D01*
X113198Y194551D01*
X113209Y194513D01*
X113226Y194464D01*
X113242Y194403D01*
X113264Y194343D01*
X113286Y194272D01*
X113340Y194130D01*
X113406Y193994D01*
X113439Y193923D01*
X113477Y193863D01*
X113515Y193803D01*
X113553Y193754D01*
X113559Y193748D01*
X113570Y193737D01*
X113586Y193721D01*
X113608Y193699D01*
X113641Y193672D01*
X113679Y193644D01*
X113717Y193612D01*
X113766Y193584D01*
X113881Y193519D01*
X114012Y193464D01*
X114083Y193442D01*
X114154Y193426D01*
X114236Y193415D01*
X114318Y193410D01*
X114323D01*
X114329D01*
X114345D01*
X114367D01*
X114421Y193421D01*
X114492Y193431D01*
X114574Y193448D01*
X114667Y193475D01*
X114766Y193513D01*
X114858Y193568D01*
X114864D01*
X114869Y193573D01*
X114902Y193601D01*
X114946Y193633D01*
X115000Y193688D01*
X115060Y193754D01*
X115126Y193836D01*
X115186Y193928D01*
X115241Y194038D01*
Y194043D01*
X115246Y194054D01*
X115251Y194070D01*
X115262Y194092D01*
X115273Y194125D01*
X115284Y194158D01*
X115295Y194201D01*
X115311Y194251D01*
X115333Y194360D01*
X115355Y194485D01*
X115372Y194627D01*
X115377Y194786D01*
Y193268D01*
Y196342D01*
D02*
G37*
%LPD*%
G36*
X115306Y210352D02*
X112762Y211914D01*
X115306D01*
Y210352D01*
D02*
G37*
G36*
X112838Y204947D02*
X112827Y204925D01*
X112822Y204892D01*
X112805Y204843D01*
X112789Y204783D01*
X112767Y204701D01*
X112745Y204614D01*
X112723Y204504D01*
Y204493D01*
X112718Y204477D01*
X112713Y204455D01*
X112702Y204406D01*
X112685Y204341D01*
X112669Y204275D01*
X112647Y204210D01*
X112620Y204155D01*
X112598Y204111D01*
X112592Y204106D01*
X112581Y204089D01*
X112560Y204068D01*
X112532Y204046D01*
X112494Y204018D01*
X112450Y203997D01*
X112401Y203980D01*
X112347Y203975D01*
X112341D01*
X112319D01*
X112292Y203980D01*
X112259Y203991D01*
X112216Y204002D01*
X112172Y204018D01*
X112128Y204046D01*
X112085Y204084D01*
X112079Y204089D01*
X112068Y204106D01*
X112052Y204128D01*
X112030Y204166D01*
X112008Y204204D01*
X111992Y204253D01*
X111981Y204313D01*
X111975Y204373D01*
Y204406D01*
X111981Y204444D01*
X111992Y204493D01*
X112008Y204554D01*
X112030Y204614D01*
X112057Y204685D01*
X112101Y204750D01*
X112106Y204756D01*
X112117Y204772D01*
X112139Y204794D01*
X112167Y204821D01*
X112205Y204848D01*
X112243Y204876D01*
X112292Y204903D01*
X112341Y204919D01*
X112347D01*
X112358Y204925D01*
X112385Y204930D01*
X112418Y204936D01*
X112467Y204941D01*
X112527Y204947D01*
X112603Y204952D01*
X112691D01*
X112838D01*
Y204947D01*
D02*
G37*
G36*
X113177Y198602D02*
X113237Y198597D01*
X113302Y198586D01*
X113379Y198564D01*
X113461Y198537D01*
X113537Y198493D01*
X113602Y198444D01*
X113608Y198438D01*
X113630Y198416D01*
X113657Y198384D01*
X113690Y198340D01*
X113717Y198285D01*
X113744Y198220D01*
X113766Y198149D01*
X113772Y198067D01*
Y198029D01*
X113761Y197985D01*
X113750Y197931D01*
X113728Y197871D01*
X113701Y197805D01*
X113657Y197740D01*
X113597Y197679D01*
X113592Y197674D01*
X113564Y197658D01*
X113526Y197630D01*
X113471Y197603D01*
X113406Y197570D01*
X113324Y197548D01*
X113231Y197532D01*
X113127Y197527D01*
Y198608D01*
X113133D01*
X113144D01*
X113155D01*
X113177Y198602D01*
D02*
G37*
G36*
X112685Y197516D02*
X112680D01*
X112669D01*
X112652D01*
X112631Y197521D01*
X112576Y197527D01*
X112499Y197537D01*
X112423Y197559D01*
X112336Y197592D01*
X112254Y197630D01*
X112183Y197685D01*
X112177Y197690D01*
X112156Y197718D01*
X112128Y197750D01*
X112095Y197800D01*
X112063Y197860D01*
X112035Y197936D01*
X112014Y198018D01*
X112008Y198105D01*
Y198133D01*
X112014Y198165D01*
X112019Y198204D01*
X112030Y198247D01*
X112046Y198296D01*
X112068Y198345D01*
X112101Y198389D01*
X112106Y198395D01*
X112117Y198411D01*
X112139Y198433D01*
X112172Y198455D01*
X112216Y198487D01*
X112265Y198515D01*
X112330Y198542D01*
X112401Y198569D01*
X112281Y199290D01*
X112276D01*
X112265Y199285D01*
X112243Y199274D01*
X112216Y199263D01*
X112183Y199246D01*
X112145Y199230D01*
X112057Y199181D01*
X111959Y199121D01*
X111855Y199044D01*
X111762Y198952D01*
X111675Y198848D01*
Y198842D01*
X111664Y198837D01*
X111659Y198815D01*
X111642Y198793D01*
X111626Y198766D01*
X111610Y198728D01*
X111593Y198689D01*
X111571Y198640D01*
X111533Y198531D01*
X111500Y198406D01*
X111478Y198258D01*
X111468Y198100D01*
Y199328D01*
X112685D01*
Y197516D01*
D02*
G37*
G36*
X114329Y196773D02*
X112942D01*
X112991Y196779D01*
X113046Y196784D01*
X113111Y196789D01*
X113182Y196800D01*
X113264Y196817D01*
X113433Y196860D01*
X113521Y196888D01*
X113613Y196921D01*
X113701Y196964D01*
X113783Y197013D01*
X113865Y197068D01*
X113941Y197128D01*
X113946Y197133D01*
X113957Y197144D01*
X113979Y197166D01*
X114001Y197194D01*
X114028Y197226D01*
X114061Y197270D01*
X114099Y197319D01*
X114138Y197374D01*
X114170Y197434D01*
X114208Y197505D01*
X114241Y197576D01*
X114269Y197658D01*
X114290Y197740D01*
X114312Y197832D01*
X114323Y197925D01*
X114329Y198023D01*
Y196773D01*
D02*
G37*
%LPC*%
G36*
X112611Y179471D02*
X108405D01*
Y175088D01*
D01*
X110567Y176605D01*
X112611Y175155D01*
Y176513D01*
X111447Y177250D01*
X112611Y178038D01*
Y179337D01*
X110617Y177921D01*
X108405Y179471D01*
X112611D01*
D01*
D02*
G37*
G36*
X110516Y174761D02*
X110424D01*
X110357Y174753D01*
X110273Y174745D01*
X110181Y174728D01*
X110072Y174711D01*
X109963Y174686D01*
X109838Y174652D01*
X109712Y174610D01*
X109578Y174560D01*
X109444Y174502D01*
X109310Y174426D01*
X109184Y174342D01*
X109058Y174250D01*
X108933Y174141D01*
X108924Y174133D01*
X108907Y174116D01*
X108874Y174083D01*
X108832Y174032D01*
X108790Y173974D01*
X108740Y173898D01*
X108681Y173814D01*
X108623Y173722D01*
X108564Y173613D01*
X108505Y173496D01*
X108455Y173370D01*
X108413Y173228D01*
X108371Y173085D01*
X108338Y172926D01*
X108321Y172767D01*
X108312Y172591D01*
Y174761D01*
D01*
Y170421D01*
X112704D01*
X110625D01*
X110659Y170429D01*
X110709D01*
X110768Y170437D01*
X110910Y170454D01*
X111070Y170488D01*
X111246Y170538D01*
X111438Y170597D01*
X111631Y170689D01*
X111639D01*
X111656Y170705D01*
X111681Y170714D01*
X111715Y170739D01*
X111807Y170806D01*
X111924Y170890D01*
X112050Y170999D01*
X112184Y171133D01*
X112310Y171284D01*
X112427Y171460D01*
Y171468D01*
X112435Y171485D01*
X112452Y171510D01*
X112469Y171552D01*
X112494Y171594D01*
X112511Y171652D01*
X112536Y171719D01*
X112569Y171786D01*
X112620Y171954D01*
X112662Y172147D01*
X112695Y172356D01*
X112704Y172583D01*
Y172675D01*
X112695Y172742D01*
X112687Y172826D01*
X112670Y172918D01*
X112653Y173027D01*
X112628Y173136D01*
X112595Y173261D01*
X112553Y173387D01*
X112503Y173513D01*
X112444Y173647D01*
X112368Y173781D01*
X112285Y173907D01*
X112192Y174032D01*
X112083Y174150D01*
X112075Y174158D01*
X112058Y174175D01*
X112016Y174208D01*
X111975Y174242D01*
X111907Y174292D01*
X111840Y174342D01*
X111748Y174401D01*
X111656Y174460D01*
X111547Y174510D01*
X111430Y174569D01*
X111296Y174619D01*
X111162Y174669D01*
X111011Y174703D01*
X110860Y174736D01*
X110692Y174753D01*
X110516Y174761D01*
D02*
G37*
G36*
X110550Y169792D02*
X110449D01*
X110374Y169784D01*
X110282Y169775D01*
X110181Y169767D01*
X110064Y169750D01*
X109938Y169725D01*
X109670Y169666D01*
X109536Y169624D01*
X109394Y169574D01*
X109259Y169516D01*
X109125Y169440D01*
X109008Y169365D01*
X108891Y169272D01*
X108882Y169264D01*
X108866Y169247D01*
X108840Y169222D01*
X108799Y169180D01*
X108757Y169130D01*
X108706Y169071D01*
X108656Y169004D01*
X108606Y168929D01*
X108547Y168837D01*
X108497Y168745D01*
X108405Y168527D01*
X108363Y168409D01*
X108338Y168292D01*
X108321Y168158D01*
X108312Y168024D01*
Y169792D01*
D01*
Y165677D01*
X114204D01*
Y166792D01*
X112117D01*
X112125Y166800D01*
X112142Y166817D01*
X112167Y166842D01*
X112209Y166884D01*
X112251Y166935D01*
X112301Y166993D01*
X112360Y167060D01*
X112410Y167136D01*
X112519Y167312D01*
X112611Y167521D01*
X112653Y167630D01*
X112678Y167756D01*
X112695Y167881D01*
X112704Y168007D01*
Y168082D01*
X112695Y168133D01*
X112687Y168200D01*
X112670Y168275D01*
X112653Y168359D01*
X112637Y168460D01*
X112569Y168661D01*
X112519Y168761D01*
X112469Y168870D01*
X112402Y168979D01*
X112327Y169080D01*
X112243Y169180D01*
X112142Y169281D01*
X112134Y169289D01*
X112117Y169306D01*
X112083Y169331D01*
X112042Y169365D01*
X111983Y169398D01*
X111916Y169440D01*
X111832Y169490D01*
X111740Y169541D01*
X111631Y169582D01*
X111514Y169633D01*
X111380Y169675D01*
X111237Y169717D01*
X111086Y169742D01*
X110919Y169767D01*
X110743Y169784D01*
X110550Y169792D01*
D02*
G37*
G36*
X97035Y163335D02*
D01*
Y162665D01*
X97026Y162740D01*
X97009Y162832D01*
X96984Y162950D01*
X96943Y163075D01*
X96892Y163201D01*
X96817Y163335D01*
X95853Y162983D01*
X95862Y162975D01*
X95878Y162933D01*
X95912Y162883D01*
X95945Y162816D01*
X95979Y162732D01*
X96012Y162648D01*
X96029Y162556D01*
X96038Y162464D01*
Y162430D01*
X96029Y162380D01*
X96021Y162330D01*
X96004Y162271D01*
X95979Y162204D01*
X95945Y162137D01*
X95903Y162070D01*
X95895Y162062D01*
X95878Y162045D01*
X95845Y162011D01*
X95794Y161978D01*
X95736Y161936D01*
X95652Y161894D01*
X95551Y161852D01*
X95434Y161819D01*
X95417D01*
X95392Y161810D01*
X95367Y161802D01*
X95325D01*
X95275Y161793D01*
X95208Y161785D01*
X95132Y161777D01*
X95049Y161768D01*
X94940Y161760D01*
X94831Y161751D01*
X94697D01*
X94554Y161743D01*
X94395Y161735D01*
X94219D01*
X94026D01*
X92736D01*
Y160620D01*
X96943D01*
Y161651D01*
X96347D01*
X96356Y161659D01*
X96406Y161693D01*
X96482Y161743D01*
X96574Y161810D01*
X96666Y161877D01*
X96758Y161961D01*
X96842Y162036D01*
X96901Y162120D01*
X96909Y162128D01*
X96926Y162154D01*
X96943Y162204D01*
X96968Y162263D01*
X96993Y162330D01*
X97018Y162413D01*
X97026Y162497D01*
X97035Y162598D01*
Y161651D01*
Y163335D01*
D02*
G37*
G36*
X107525Y165183D02*
X106804D01*
Y160557D01*
X108405D01*
X107525D01*
Y165183D01*
D02*
G37*
G36*
X112704Y160306D02*
X110416D01*
D01*
X110181D01*
Y157524D01*
X110173D01*
X110156D01*
X110131D01*
X110097Y157532D01*
X110014Y157541D01*
X109896Y157557D01*
X109779Y157591D01*
X109645Y157641D01*
X109519Y157700D01*
X109410Y157783D01*
X109402Y157792D01*
X109368Y157834D01*
X109326Y157884D01*
X109276Y157959D01*
X109226Y158052D01*
X109184Y158169D01*
X109151Y158295D01*
X109142Y158429D01*
Y158471D01*
X109151Y158521D01*
X109159Y158580D01*
X109176Y158647D01*
X109201Y158722D01*
X109234Y158798D01*
X109284Y158864D01*
X109293Y158873D01*
X109310Y158898D01*
X109343Y158932D01*
X109394Y158965D01*
X109460Y159015D01*
X109536Y159057D01*
X109636Y159099D01*
X109746Y159141D01*
X109561Y160247D01*
X109553D01*
X109536Y160239D01*
X109502Y160222D01*
X109460Y160205D01*
X109410Y160180D01*
X109352Y160155D01*
X109218Y160080D01*
X109067Y159987D01*
X108907Y159870D01*
X108765Y159728D01*
X108631Y159568D01*
Y159560D01*
X108614Y159552D01*
X108606Y159518D01*
X108581Y159485D01*
X108555Y159443D01*
X108530Y159384D01*
X108505Y159325D01*
X108472Y159250D01*
X108413Y159082D01*
X108363Y158890D01*
X108329Y158663D01*
X108312Y158420D01*
Y156384D01*
X112704D01*
X110575D01*
X110651Y156392D01*
X110734Y156401D01*
X110835Y156409D01*
X110944Y156426D01*
X111070Y156451D01*
X111329Y156518D01*
X111463Y156560D01*
X111606Y156610D01*
X111740Y156677D01*
X111866Y156753D01*
X111991Y156837D01*
X112109Y156929D01*
X112117Y156937D01*
X112134Y156954D01*
X112167Y156987D01*
X112201Y157029D01*
X112243Y157080D01*
X112293Y157147D01*
X112352Y157222D01*
X112410Y157306D01*
X112461Y157398D01*
X112519Y157507D01*
X112569Y157616D01*
X112611Y157742D01*
X112645Y157867D01*
X112678Y158010D01*
X112695Y158152D01*
X112704Y158303D01*
Y158395D01*
X112695Y158462D01*
X112687Y158538D01*
X112670Y158630D01*
X112653Y158730D01*
X112628Y158839D01*
X112595Y158957D01*
X112553Y159074D01*
X112503Y159200D01*
X112435Y159325D01*
X112368Y159443D01*
X112285Y159560D01*
X112184Y159677D01*
X112075Y159778D01*
X112067Y159786D01*
X112050Y159803D01*
X112008Y159828D01*
X111958Y159862D01*
X111891Y159904D01*
X111815Y159945D01*
X111715Y159996D01*
X111606Y160046D01*
X111480Y160096D01*
X111338Y160147D01*
X111187Y160189D01*
X111011Y160231D01*
X110827Y160264D01*
X110625Y160289D01*
X110416Y160306D01*
X112704D01*
D02*
G37*
G36*
X97035Y159757D02*
X94512D01*
Y156975D01*
X94504D01*
X94487D01*
X94462D01*
X94428Y156983D01*
X94345Y156992D01*
X94227Y157008D01*
X94110Y157042D01*
X93976Y157092D01*
X93850Y157151D01*
X93741Y157235D01*
X93733Y157243D01*
X93699Y157285D01*
X93657Y157335D01*
X93607Y157411D01*
X93557Y157503D01*
X93515Y157620D01*
X93482Y157746D01*
X93473Y157880D01*
Y157922D01*
X93482Y157972D01*
X93490Y158031D01*
X93507Y158098D01*
X93532Y158173D01*
X93565Y158249D01*
X93616Y158316D01*
X93624Y158324D01*
X93641Y158349D01*
X93674Y158383D01*
X93725Y158416D01*
X93792Y158466D01*
X93867Y158508D01*
X93968Y158550D01*
X94077Y158592D01*
X93892Y159698D01*
X93884D01*
X93867Y159690D01*
X93834Y159673D01*
X93792Y159656D01*
X93741Y159631D01*
X93683Y159606D01*
X93549Y159531D01*
X93398Y159439D01*
X93239Y159321D01*
X93096Y159179D01*
X92962Y159020D01*
Y159011D01*
X92945Y159003D01*
X92937Y158969D01*
X92912Y158936D01*
X92887Y158894D01*
X92861Y158835D01*
X92836Y158776D01*
X92803Y158701D01*
X92744Y158534D01*
X92694Y158341D01*
X92660Y158115D01*
X92644Y157871D01*
Y157821D01*
X92652Y157771D01*
Y157695D01*
X92669Y157603D01*
X92686Y157494D01*
X92702Y157377D01*
X92736Y157260D01*
X92769Y157126D01*
X92819Y156992D01*
X92878Y156858D01*
X92945Y156723D01*
X93029Y156589D01*
X93121Y156464D01*
X93230Y156355D01*
X93356Y156246D01*
X93364Y156237D01*
X93381Y156229D01*
X93414Y156212D01*
X93456Y156179D01*
X93515Y156154D01*
X93582Y156120D01*
X93657Y156078D01*
X93750Y156045D01*
X93850Y156003D01*
X93959Y155969D01*
X94077Y155927D01*
X94211Y155902D01*
X94345Y155877D01*
X94487Y155852D01*
X94646Y155843D01*
X94806Y155835D01*
X92644D01*
Y147145D01*
X92644D01*
Y155835D01*
X97035D01*
X94906D01*
X94982Y155843D01*
X95065Y155852D01*
X95166Y155860D01*
X95275Y155877D01*
X95401Y155902D01*
X95660Y155969D01*
X95794Y156011D01*
X95937Y156061D01*
X96071Y156128D01*
X96197Y156204D01*
X96322Y156288D01*
X96440Y156380D01*
X96448Y156388D01*
X96465Y156405D01*
X96498Y156439D01*
X96532Y156480D01*
X96574Y156531D01*
X96624Y156598D01*
X96683Y156673D01*
X96741Y156757D01*
X96792Y156849D01*
X96850Y156958D01*
X96901Y157067D01*
X96943Y157193D01*
X96976Y157318D01*
X97009Y157461D01*
X97026Y157603D01*
X97035Y157754D01*
Y157846D01*
X97026Y157913D01*
X97018Y157989D01*
X97001Y158081D01*
X96984Y158182D01*
X96959Y158291D01*
X96926Y158408D01*
X96884Y158525D01*
X96834Y158651D01*
X96767Y158776D01*
X96700Y158894D01*
X96616Y159011D01*
X96515Y159128D01*
X96406Y159229D01*
X96398Y159237D01*
X96381Y159254D01*
X96339Y159279D01*
X96289Y159313D01*
X96222Y159355D01*
X96146Y159397D01*
X96046Y159447D01*
X95937Y159497D01*
X95811Y159547D01*
X95669Y159598D01*
X95518Y159640D01*
X95342Y159682D01*
X95158Y159715D01*
X94956Y159740D01*
X94747Y159757D01*
X97035D01*
D02*
G37*
G36*
X112611Y155563D02*
X108405D01*
Y154532D01*
X109033D01*
X109016Y154524D01*
X108975Y154490D01*
X108916Y154440D01*
X108840Y154365D01*
X108748Y154281D01*
X108664Y154172D01*
X108572Y154054D01*
X108497Y153920D01*
X108488Y153904D01*
X108472Y153853D01*
X108438Y153778D01*
X108405Y153677D01*
X108371Y153560D01*
X108338Y153426D01*
X108321Y153283D01*
X108312Y153133D01*
Y155563D01*
D01*
Y151733D01*
X112611D01*
Y152848D01*
X110676D01*
X110667D01*
X110634D01*
X110592D01*
X110533D01*
X110466D01*
X110391D01*
X110215Y152856D01*
X110022Y152864D01*
X109846Y152873D01*
X109771Y152881D01*
X109695Y152890D01*
X109636Y152898D01*
X109595Y152906D01*
X109586D01*
X109561Y152915D01*
X109528Y152931D01*
X109477Y152957D01*
X109427Y152982D01*
X109377Y153024D01*
X109326Y153066D01*
X109276Y153124D01*
X109268Y153133D01*
X109259Y153158D01*
X109243Y153191D01*
X109226Y153242D01*
X109201Y153300D01*
X109184Y153376D01*
X109176Y153451D01*
X109167Y153543D01*
Y153594D01*
X109176Y153644D01*
X109184Y153711D01*
X109201Y153795D01*
X109234Y153878D01*
X109268Y153971D01*
X109318Y154054D01*
X109326Y154063D01*
X109343Y154088D01*
X109377Y154130D01*
X109427Y154180D01*
X109486Y154230D01*
X109544Y154281D01*
X109620Y154331D01*
X109704Y154365D01*
X109712D01*
X109754Y154381D01*
X109787D01*
X109829Y154390D01*
X109871Y154398D01*
X109930Y154406D01*
X110005Y154415D01*
X110081Y154423D01*
X110173Y154431D01*
X110282D01*
X110399Y154440D01*
X110533Y154448D01*
X110676D01*
X110835D01*
X112611D01*
Y155563D01*
D02*
G37*
G36*
X97035Y155031D02*
X92736D01*
Y153916D01*
X94873D01*
X94881D01*
X94906D01*
X94940D01*
X94982D01*
X95040D01*
X95099D01*
X95241Y153908D01*
X95384Y153899D01*
X95535Y153883D01*
X95660Y153866D01*
X95711Y153858D01*
X95753Y153841D01*
X95761D01*
X95786Y153824D01*
X95820Y153807D01*
X95870Y153782D01*
X95970Y153707D01*
X96021Y153665D01*
X96063Y153606D01*
X96071Y153598D01*
X96079Y153581D01*
X96096Y153547D01*
X96121Y153497D01*
X96146Y153438D01*
X96163Y153380D01*
X96171Y153304D01*
X96180Y153221D01*
Y153170D01*
X96171Y153120D01*
X96163Y153053D01*
X96138Y152969D01*
X96113Y152885D01*
X96071Y152793D01*
X96021Y152701D01*
X96012Y152693D01*
X95996Y152667D01*
X95954Y152626D01*
X95912Y152575D01*
X95845Y152525D01*
X95778Y152475D01*
X95685Y152425D01*
X95593Y152391D01*
X95585D01*
X95543Y152374D01*
X95476Y152366D01*
X95375Y152349D01*
X95317Y152341D01*
X95241Y152332D01*
X95166Y152324D01*
X95074D01*
X94982Y152316D01*
X94873Y152307D01*
X94755D01*
X94630D01*
X92736D01*
Y151193D01*
X96943D01*
Y152223D01*
X96322D01*
X96331Y152232D01*
X96356Y152249D01*
X96389Y152282D01*
X96431Y152324D01*
X96490Y152374D01*
X96549Y152441D01*
X96616Y152517D01*
X96683Y152601D01*
X96741Y152693D01*
X96808Y152802D01*
X96867Y152910D01*
X96926Y153036D01*
X96968Y153170D01*
X97001Y153304D01*
X97026Y153455D01*
X97035Y153606D01*
Y151566D01*
Y153677D01*
Y153665D01*
X97026Y153740D01*
X97018Y153832D01*
X97001Y153933D01*
X96976Y154042D01*
X96943Y154159D01*
X96901Y154277D01*
X96892Y154293D01*
X96876Y154327D01*
X96850Y154385D01*
X96808Y154452D01*
X96758Y154528D01*
X96700Y154603D01*
X96632Y154679D01*
X96557Y154746D01*
X96549Y154754D01*
X96523Y154771D01*
X96482Y154796D01*
X96423Y154830D01*
X96356Y154871D01*
X96272Y154905D01*
X96188Y154938D01*
X96088Y154964D01*
X96079D01*
X96038Y154972D01*
X95979Y154989D01*
X95895Y154997D01*
X95794Y155014D01*
X95660Y155022D01*
X95518Y155031D01*
X97035D01*
D02*
G37*
G36*
X91408Y152286D02*
Y151566D01*
X87721D01*
Y152286D01*
X86749D01*
Y151566D01*
X85584D01*
Y151876D01*
Y150493D01*
X86749D01*
Y148113D01*
X85584D01*
X87713D01*
X91408Y150627D01*
Y148113D01*
D01*
Y152286D01*
D02*
G37*
G36*
X105636Y153388D02*
X99803D01*
Y152274D01*
X104002D01*
X103993Y152265D01*
X103977Y152249D01*
X103952Y152215D01*
X103910Y152165D01*
X103859Y152106D01*
X103809Y152039D01*
X103750Y151955D01*
X103683Y151863D01*
X103616Y151762D01*
X103549Y151654D01*
X103474Y151536D01*
X103407Y151410D01*
X103281Y151142D01*
X103164Y150841D01*
X99803D01*
X105636D01*
X104169D01*
Y150849D01*
X104178Y150857D01*
X104186Y150883D01*
X104194Y150916D01*
X104236Y151000D01*
X104287Y151117D01*
X104354Y151260D01*
X104446Y151419D01*
X104563Y151595D01*
X104697Y151779D01*
X104706Y151788D01*
X104714Y151804D01*
X104739Y151830D01*
X104773Y151863D01*
X104857Y151955D01*
X104965Y152056D01*
X105100Y152173D01*
X105267Y152290D01*
X105443Y152399D01*
X105636Y152483D01*
Y153388D01*
D02*
G37*
G36*
X97035Y150723D02*
D01*
Y150053D01*
X97026Y150128D01*
X97009Y150221D01*
X96984Y150338D01*
X96943Y150464D01*
X96892Y150589D01*
X96817Y150723D01*
X95853Y150371D01*
X95862Y150363D01*
X95878Y150321D01*
X95912Y150271D01*
X95945Y150204D01*
X95979Y150120D01*
X96012Y150036D01*
X96029Y149944D01*
X96038Y149852D01*
Y149818D01*
X96029Y149768D01*
X96021Y149718D01*
X96004Y149659D01*
X95979Y149592D01*
X95945Y149525D01*
X95903Y149458D01*
X95895Y149450D01*
X95878Y149433D01*
X95845Y149399D01*
X95794Y149366D01*
X95736Y149324D01*
X95652Y149282D01*
X95551Y149240D01*
X95434Y149207D01*
X95417D01*
X95392Y149198D01*
X95367Y149190D01*
X95325D01*
X95275Y149181D01*
X95208Y149173D01*
X95132Y149165D01*
X95049Y149156D01*
X94940Y149148D01*
X94831Y149139D01*
X94697D01*
X94554Y149131D01*
X94395Y149123D01*
X94219D01*
X94026D01*
X92736D01*
Y148008D01*
X96943D01*
Y149039D01*
X96347D01*
X96356Y149047D01*
X96406Y149081D01*
X96482Y149131D01*
X96574Y149198D01*
X96666Y149265D01*
X96758Y149349D01*
X96842Y149425D01*
X96901Y149508D01*
X96909Y149517D01*
X96926Y149542D01*
X96943Y149592D01*
X96968Y149651D01*
X96993Y149718D01*
X97018Y149802D01*
X97026Y149885D01*
X97035Y149986D01*
Y148180D01*
Y150723D01*
D02*
G37*
G36*
X102661Y149802D02*
X99695D01*
X102502D01*
X102393Y149793D01*
X102259Y149785D01*
X102100Y149768D01*
X101932Y149751D01*
X101748Y149734D01*
X101555Y149701D01*
X101354Y149659D01*
X101161Y149617D01*
X100968Y149558D01*
X100776Y149500D01*
X100600Y149416D01*
X100432Y149332D01*
X100289Y149232D01*
X100281Y149223D01*
X100264Y149207D01*
X100231Y149181D01*
X100197Y149148D01*
X100155Y149098D01*
X100105Y149039D01*
X100046Y148964D01*
X99996Y148888D01*
X99937Y148796D01*
X99879Y148704D01*
X99829Y148595D01*
X99787Y148477D01*
X99753Y148352D01*
X99720Y148209D01*
X99703Y148067D01*
X99695Y147916D01*
Y147882D01*
X99703Y147832D01*
Y147774D01*
X99711Y147706D01*
X99728Y147623D01*
X99745Y147531D01*
X99778Y147430D01*
X99812Y147321D01*
X99854Y147212D01*
X99904Y147095D01*
X99971Y146986D01*
X100038Y146869D01*
X100130Y146760D01*
X100222Y146651D01*
X100340Y146550D01*
X100348Y146542D01*
X100373Y146525D01*
X100415Y146500D01*
X100465Y146475D01*
X100541Y146433D01*
X100633Y146391D01*
X100750Y146341D01*
X100876Y146299D01*
X101027Y146248D01*
X101195Y146198D01*
X101387Y146156D01*
X101597Y146123D01*
X101831Y146089D01*
X102091Y146064D01*
X102368Y146047D01*
X102669Y146039D01*
X105636D01*
Y146743D01*
Y146039D01*
X102829D01*
X102937Y146047D01*
X103072Y146056D01*
X103231Y146072D01*
X103398Y146089D01*
X103583Y146106D01*
X103776Y146140D01*
X103968Y146173D01*
X104169Y146223D01*
X104362Y146274D01*
X104546Y146341D01*
X104722Y146416D01*
X104890Y146500D01*
X105033Y146600D01*
X105041Y146609D01*
X105058Y146625D01*
X105091Y146651D01*
X105125Y146693D01*
X105175Y146734D01*
X105225Y146793D01*
X105276Y146869D01*
X105334Y146944D01*
X105393Y147036D01*
X105443Y147128D01*
X105493Y147237D01*
X105544Y147355D01*
X105577Y147480D01*
X105611Y147623D01*
X105628Y147765D01*
X105636Y147916D01*
Y146743D01*
Y147916D01*
Y148000D01*
X105628Y148058D01*
X105619Y148126D01*
X105602Y148209D01*
X105586Y148293D01*
X105561Y148394D01*
X105527Y148503D01*
X105485Y148603D01*
X105443Y148712D01*
X105385Y148821D01*
X105309Y148930D01*
X105234Y149039D01*
X105141Y149139D01*
X105033Y149232D01*
X105024Y149240D01*
X104999Y149257D01*
X104957Y149282D01*
X104899Y149324D01*
X104815Y149366D01*
X104714Y149416D01*
X104605Y149466D01*
X104463Y149517D01*
X104312Y149567D01*
X104136Y149626D01*
X103943Y149668D01*
X103725Y149709D01*
X103491Y149751D01*
X103239Y149776D01*
X102963Y149793D01*
X102661Y149802D01*
D02*
G37*
G36*
X112704Y150661D02*
X106796D01*
Y149546D01*
X108916D01*
X108907Y149538D01*
X108874Y149504D01*
X108824Y149462D01*
X108757Y149395D01*
X108690Y149320D01*
X108614Y149227D01*
X108539Y149119D01*
X108472Y149001D01*
X108463Y148985D01*
X108447Y148943D01*
X108421Y148876D01*
X108396Y148792D01*
X108363Y148683D01*
X108338Y148565D01*
X108321Y148440D01*
X108312Y148297D01*
Y148230D01*
X108321Y148180D01*
X108329Y148121D01*
X108338Y148046D01*
X108379Y147887D01*
X108447Y147694D01*
X108488Y147602D01*
X108539Y147501D01*
X108597Y147401D01*
X108673Y147309D01*
X108757Y147216D01*
X108849Y147124D01*
X108857Y147116D01*
X108882Y147099D01*
X108916Y147074D01*
X108966Y147040D01*
X109025Y146998D01*
X109109Y146948D01*
X109192Y146906D01*
X109301Y146856D01*
X109410Y146797D01*
X109544Y146755D01*
X109678Y146705D01*
X109829Y146663D01*
X109997Y146630D01*
X110173Y146605D01*
X110357Y146588D01*
X110550Y146579D01*
X110651D01*
X110717Y146588D01*
X110801Y146596D01*
X110902Y146605D01*
X111011Y146621D01*
X111128Y146646D01*
X111380Y146705D01*
X111514Y146747D01*
X111648Y146797D01*
X111773Y146856D01*
X111899Y146923D01*
X112025Y146998D01*
X112134Y147091D01*
X112142Y147099D01*
X112159Y147116D01*
X112184Y147141D01*
X112226Y147183D01*
X112268Y147233D01*
X112318Y147292D01*
X112368Y147359D01*
X112419Y147443D01*
X112469Y147526D01*
X112528Y147627D01*
X112611Y147845D01*
X112653Y147962D01*
X112678Y148088D01*
X112695Y148222D01*
X112704Y148364D01*
Y148431D01*
X112695Y148515D01*
X112678Y148616D01*
X112662Y148725D01*
X112628Y148842D01*
X112578Y148968D01*
X112519Y149085D01*
X112511Y149102D01*
X112486Y149135D01*
X112444Y149194D01*
X112385Y149269D01*
X112310Y149353D01*
X112218Y149445D01*
X112109Y149546D01*
X111983Y149638D01*
X112611D01*
Y150661D01*
X112704D01*
D02*
G37*
G36*
X97035Y147145D02*
Y145234D01*
X97026Y145301D01*
X97018Y145377D01*
X97001Y145469D01*
X96984Y145570D01*
X96959Y145679D01*
X96926Y145796D01*
X96884Y145913D01*
X96834Y146039D01*
X96767Y146165D01*
X96700Y146282D01*
X96616Y146399D01*
X96515Y146517D01*
X96406Y146617D01*
X96398Y146625D01*
X96381Y146642D01*
X96339Y146667D01*
X96289Y146701D01*
X96222Y146743D01*
X96146Y146785D01*
X96046Y146835D01*
X95937Y146885D01*
X95811Y146936D01*
X95669Y146986D01*
X95518Y147028D01*
X95342Y147070D01*
X95158Y147103D01*
X94956Y147128D01*
X94747Y147145D01*
X97035D01*
X94512D01*
Y144363D01*
X94504D01*
X94487D01*
X94462D01*
X94428Y144371D01*
X94345Y144380D01*
X94227Y144396D01*
X94110Y144430D01*
X93976Y144480D01*
X93850Y144539D01*
X93741Y144623D01*
X93733Y144631D01*
X93699Y144673D01*
X93657Y144723D01*
X93607Y144799D01*
X93557Y144891D01*
X93515Y145008D01*
X93482Y145134D01*
X93473Y145268D01*
Y145310D01*
X93482Y145360D01*
X93490Y145419D01*
X93507Y145486D01*
X93532Y145561D01*
X93565Y145637D01*
X93616Y145704D01*
X93624Y145712D01*
X93641Y145737D01*
X93674Y145771D01*
X93725Y145804D01*
X93792Y145855D01*
X93867Y145896D01*
X93968Y145938D01*
X94077Y145980D01*
X93892Y147086D01*
X93884D01*
X93867Y147078D01*
X93834Y147061D01*
X93792Y147045D01*
X93741Y147019D01*
X93683Y146994D01*
X93549Y146919D01*
X93398Y146827D01*
X93239Y146709D01*
X93096Y146567D01*
X92962Y146408D01*
Y146399D01*
X92945Y146391D01*
X92937Y146357D01*
X92912Y146324D01*
X92887Y146282D01*
X92861Y146223D01*
X92836Y146165D01*
X92803Y146089D01*
X92744Y145922D01*
X92694Y145729D01*
X92660Y145503D01*
X92644Y145260D01*
Y145209D01*
X92652Y145159D01*
Y145084D01*
X92669Y144991D01*
X92686Y144883D01*
X92702Y144765D01*
X92736Y144648D01*
X92769Y144514D01*
X92819Y144380D01*
X92878Y144246D01*
X92945Y144112D01*
X93029Y143977D01*
X93121Y143852D01*
X93230Y143743D01*
X93356Y143634D01*
X93364Y143625D01*
X93381Y143617D01*
X93414Y143600D01*
X93456Y143567D01*
X93515Y143542D01*
X93582Y143508D01*
X93657Y143466D01*
X93750Y143433D01*
X93850Y143391D01*
X93959Y143357D01*
X94077Y143315D01*
X94211Y143290D01*
X94345Y143265D01*
X94487Y143240D01*
X94646Y143232D01*
X94806Y143223D01*
X92644D01*
Y142678D01*
X92644D01*
Y143223D01*
X97035D01*
X94906D01*
X94982Y143232D01*
X95065Y143240D01*
X95166Y143248D01*
X95275Y143265D01*
X95401Y143290D01*
X95660Y143357D01*
X95794Y143399D01*
X95937Y143449D01*
X96071Y143517D01*
X96197Y143592D01*
X96322Y143676D01*
X96440Y143768D01*
X96448Y143776D01*
X96465Y143793D01*
X96498Y143827D01*
X96532Y143869D01*
X96574Y143919D01*
X96624Y143986D01*
X96683Y144061D01*
X96741Y144145D01*
X96792Y144237D01*
X96850Y144346D01*
X96901Y144455D01*
X96943Y144581D01*
X96976Y144706D01*
X97009Y144849D01*
X97026Y144991D01*
X97035Y145142D01*
Y147145D01*
D02*
G37*
G36*
X112486Y146320D02*
X111522Y145968D01*
X111530Y145959D01*
X111547Y145917D01*
X111581Y145867D01*
X111614Y145800D01*
X111648Y145716D01*
X111681Y145633D01*
X111698Y145540D01*
X111706Y145448D01*
Y145415D01*
X111698Y145364D01*
X111690Y145314D01*
X111673Y145255D01*
X111648Y145188D01*
X111614Y145121D01*
X111572Y145054D01*
X111564Y145046D01*
X111547Y145029D01*
X111514Y144996D01*
X111463Y144962D01*
X111405Y144920D01*
X111321Y144878D01*
X111220Y144836D01*
X111103Y144803D01*
X111086D01*
X111061Y144794D01*
X111036Y144786D01*
X110994D01*
X110944Y144778D01*
X110877Y144769D01*
X110801Y144761D01*
X110717Y144753D01*
X110609Y144744D01*
X110500Y144736D01*
X110366D01*
X110223Y144728D01*
X110064Y144719D01*
X109888D01*
X109695D01*
X108405D01*
Y146320D01*
Y143605D01*
X112611D01*
Y144635D01*
X112016D01*
X112025Y144644D01*
X112075Y144677D01*
X112151Y144728D01*
X112243Y144794D01*
X112335Y144861D01*
X112427Y144945D01*
X112511Y145021D01*
X112569Y145105D01*
X112578Y145113D01*
X112595Y145138D01*
X112611Y145188D01*
X112637Y145247D01*
X112662Y145314D01*
X112687Y145398D01*
X112695Y145482D01*
X112704Y145582D01*
Y145649D01*
X112695Y145725D01*
X112678Y145817D01*
X112653Y145934D01*
X112611Y146060D01*
X112561Y146186D01*
X112486Y146320D01*
D02*
G37*
G36*
X91417Y147552D02*
X85584D01*
Y143655D01*
X85609D01*
X85643Y143663D01*
X85685Y143672D01*
X85735Y143680D01*
X85794Y143688D01*
X85945Y143722D01*
X86112Y143772D01*
X86296Y143839D01*
X86498Y143923D01*
X86690Y144032D01*
X86699D01*
X86716Y144049D01*
X86749Y144065D01*
X86783Y144099D01*
X86841Y144132D01*
X86900Y144183D01*
X86975Y144241D01*
X87059Y144308D01*
X87160Y144384D01*
X87260Y144476D01*
X87378Y144577D01*
X87503Y144694D01*
X87629Y144820D01*
X87771Y144962D01*
X87922Y145113D01*
X88082Y145281D01*
X88090Y145289D01*
X88115Y145314D01*
X88148Y145348D01*
X88199Y145398D01*
X88249Y145465D01*
X88316Y145532D01*
X88467Y145683D01*
X88626Y145834D01*
X88785Y145984D01*
X88852Y146052D01*
X88928Y146118D01*
X88986Y146169D01*
X89037Y146202D01*
X89054Y146211D01*
X89095Y146236D01*
X89162Y146278D01*
X89255Y146320D01*
X89355Y146362D01*
X89473Y146404D01*
X89590Y146429D01*
X89716Y146437D01*
X89724D01*
X89732D01*
X89774D01*
X89850Y146429D01*
X89934Y146412D01*
X90026Y146387D01*
X90118Y146353D01*
X90210Y146303D01*
X90294Y146236D01*
X90302Y146228D01*
X90327Y146202D01*
X90361Y146152D01*
X90394Y146093D01*
X90428Y146010D01*
X90461Y145917D01*
X90487Y145808D01*
X90495Y145683D01*
Y145624D01*
X90487Y145557D01*
X90470Y145482D01*
X90445Y145389D01*
X90403Y145297D01*
X90352Y145205D01*
X90285Y145121D01*
X90277Y145113D01*
X90244Y145088D01*
X90193Y145054D01*
X90118Y145021D01*
X90026Y144979D01*
X89900Y144945D01*
X89758Y144912D01*
X89590Y144895D01*
X89699Y143789D01*
X89707D01*
X89741Y143797D01*
X89783D01*
X89850Y143814D01*
X89925Y143822D01*
X90009Y143848D01*
X90101Y143873D01*
X90210Y143898D01*
X90420Y143982D01*
X90637Y144082D01*
X90746Y144149D01*
X90847Y144225D01*
X90931Y144308D01*
X91014Y144401D01*
X91023Y144409D01*
X91031Y144426D01*
X91048Y144451D01*
X91082Y144493D01*
X91107Y144543D01*
X91140Y144610D01*
X91182Y144677D01*
X91216Y144761D01*
X91258Y144853D01*
X91291Y144954D01*
X91358Y145172D01*
X91400Y145431D01*
X91408Y145565D01*
X91417Y145708D01*
Y143655D01*
D01*
Y147552D01*
D02*
G37*
G36*
X104010Y145586D02*
X99803D01*
Y142913D01*
X104010Y141220D01*
D01*
Y142385D01*
X101857Y143181D01*
X101144Y143408D01*
X101153Y143416D01*
X101186Y143424D01*
X101236Y143441D01*
X101287Y143458D01*
X101412Y143500D01*
X101463Y143517D01*
X101505Y143525D01*
X101513D01*
X101538Y143533D01*
X101572Y143542D01*
X101613Y143558D01*
X101731Y143592D01*
X101857Y143642D01*
X104010Y144447D01*
Y145586D01*
D02*
G37*
G36*
X91484Y143462D02*
X85484D01*
X91484D01*
X85484Y142012D01*
Y141191D01*
X91484Y142624D01*
Y143462D01*
D02*
G37*
G36*
X110516Y142783D02*
X110424D01*
X110357Y142775D01*
X110273Y142766D01*
X110181Y142750D01*
X110072Y142733D01*
X109963Y142708D01*
X109838Y142674D01*
X109712Y142632D01*
X109578Y142582D01*
X109444Y142524D01*
X109310Y142448D01*
X109184Y142364D01*
X109058Y142272D01*
X108933Y142163D01*
X108924Y142155D01*
X108907Y142138D01*
X108874Y142104D01*
X108832Y142054D01*
X108790Y141996D01*
X108740Y141920D01*
X108681Y141836D01*
X108623Y141744D01*
X108564Y141635D01*
X108505Y141518D01*
X108455Y141392D01*
X108413Y141250D01*
X108371Y141107D01*
X108338Y140948D01*
X108321Y140789D01*
X108312Y140613D01*
Y142783D01*
D01*
Y138443D01*
D01*
Y140554D01*
X108321Y140512D01*
Y140462D01*
X108329Y140403D01*
X108346Y140261D01*
X108379Y140085D01*
X108421Y139901D01*
X108488Y139708D01*
X108572Y139507D01*
Y139498D01*
X108581Y139482D01*
X108597Y139456D01*
X108623Y139423D01*
X108681Y139331D01*
X108765Y139213D01*
X108874Y139088D01*
X109008Y138954D01*
X109159Y138828D01*
X109335Y138711D01*
X109343D01*
X109360Y138702D01*
X109385Y138686D01*
X109427Y138669D01*
X109477Y138652D01*
X109536Y138627D01*
X109603Y138602D01*
X109678Y138576D01*
X109762Y138551D01*
X109854Y138526D01*
X110064Y138484D01*
X110307Y138451D01*
X110567Y138443D01*
X112704D01*
X110625D01*
X110659Y138451D01*
X110709D01*
X110768Y138459D01*
X110910Y138476D01*
X111070Y138510D01*
X111246Y138560D01*
X111438Y138618D01*
X111631Y138711D01*
X111639D01*
X111656Y138727D01*
X111681Y138736D01*
X111715Y138761D01*
X111807Y138828D01*
X111924Y138912D01*
X112050Y139021D01*
X112184Y139155D01*
X112310Y139306D01*
X112427Y139482D01*
Y139490D01*
X112435Y139507D01*
X112452Y139532D01*
X112469Y139574D01*
X112494Y139616D01*
X112511Y139674D01*
X112536Y139741D01*
X112569Y139808D01*
X112620Y139976D01*
X112662Y140169D01*
X112695Y140378D01*
X112704Y140604D01*
Y140697D01*
X112695Y140764D01*
X112687Y140848D01*
X112670Y140940D01*
X112653Y141049D01*
X112628Y141158D01*
X112595Y141283D01*
X112553Y141409D01*
X112503Y141535D01*
X112444Y141669D01*
X112368Y141803D01*
X112285Y141929D01*
X112192Y142054D01*
X112083Y142172D01*
X112075Y142180D01*
X112058Y142197D01*
X112016Y142230D01*
X111975Y142264D01*
X111907Y142314D01*
X111840Y142364D01*
X111748Y142423D01*
X111656Y142482D01*
X111547Y142532D01*
X111430Y142591D01*
X111296Y142641D01*
X111162Y142691D01*
X111011Y142725D01*
X110860Y142758D01*
X110692Y142775D01*
X110516Y142783D01*
D02*
G37*
G36*
X97035Y142678D02*
Y140592D01*
X97026Y140659D01*
X97018Y140743D01*
X97001Y140835D01*
X96984Y140944D01*
X96959Y141053D01*
X96926Y141179D01*
X96884Y141304D01*
X96834Y141430D01*
X96775Y141564D01*
X96700Y141698D01*
X96616Y141824D01*
X96523Y141949D01*
X96415Y142067D01*
X96406Y142075D01*
X96389Y142092D01*
X96347Y142125D01*
X96306Y142159D01*
X96239Y142209D01*
X96171Y142260D01*
X96079Y142318D01*
X95987Y142377D01*
X95878Y142427D01*
X95761Y142486D01*
X95627Y142536D01*
X95493Y142586D01*
X95342Y142620D01*
X95191Y142653D01*
X95024Y142670D01*
X94848Y142678D01*
X97035D01*
X94755D01*
X94688Y142670D01*
X94604Y142662D01*
X94512Y142645D01*
X94403Y142628D01*
X94294Y142603D01*
X94169Y142570D01*
X94043Y142528D01*
X93909Y142477D01*
X93775Y142419D01*
X93641Y142343D01*
X93515Y142260D01*
X93389Y142167D01*
X93264Y142058D01*
X93255Y142050D01*
X93239Y142033D01*
X93205Y142000D01*
X93163Y141949D01*
X93121Y141891D01*
X93071Y141815D01*
X93012Y141732D01*
X92954Y141639D01*
X92895Y141531D01*
X92836Y141413D01*
X92786Y141288D01*
X92744Y141145D01*
X92702Y141003D01*
X92669Y140843D01*
X92652Y140684D01*
X92644Y140508D01*
Y140450D01*
X92652Y140408D01*
Y140357D01*
X92660Y140299D01*
X92677Y140156D01*
X92711Y139980D01*
X92752Y139796D01*
X92819Y139603D01*
X92903Y139402D01*
Y139394D01*
X92912Y139377D01*
X92928Y139352D01*
X92954Y139318D01*
X93012Y139226D01*
X93096Y139109D01*
X93205Y138983D01*
X93339Y138849D01*
X93490Y138723D01*
X93666Y138606D01*
X93674D01*
X93691Y138598D01*
X93716Y138581D01*
X93758Y138564D01*
X93808Y138547D01*
X93867Y138522D01*
X93934Y138497D01*
X94010Y138472D01*
X94093Y138447D01*
X94186Y138421D01*
X94395Y138380D01*
X94638Y138346D01*
X94898Y138338D01*
X97035D01*
X94956D01*
X94990Y138346D01*
X95040D01*
X95099Y138355D01*
X95241Y138371D01*
X95401Y138405D01*
X95577Y138455D01*
X95769Y138514D01*
X95962Y138606D01*
X95970D01*
X95987Y138623D01*
X96012Y138631D01*
X96046Y138656D01*
X96138Y138723D01*
X96255Y138807D01*
X96381Y138916D01*
X96515Y139050D01*
X96641Y139201D01*
X96758Y139377D01*
Y139385D01*
X96767Y139402D01*
X96783Y139427D01*
X96800Y139469D01*
X96825Y139511D01*
X96842Y139570D01*
X96867Y139637D01*
X96901Y139704D01*
X96951Y139871D01*
X96993Y140064D01*
X97026Y140273D01*
X97035Y140500D01*
Y142678D01*
D02*
G37*
G36*
Y139771D02*
D01*
D01*
D01*
D02*
G37*
G36*
Y139599D02*
D01*
D01*
D01*
D02*
G37*
G36*
X104102Y140860D02*
X101580D01*
Y138078D01*
X101572D01*
X101555D01*
X101530D01*
X101496Y138086D01*
X101412Y138095D01*
X101295Y138111D01*
X101178Y138145D01*
X101044Y138195D01*
X100918Y138254D01*
X100809Y138338D01*
X100801Y138346D01*
X100767Y138388D01*
X100725Y138438D01*
X100675Y138514D01*
X100625Y138606D01*
X100583Y138723D01*
X100549Y138849D01*
X100541Y138983D01*
Y139025D01*
X100549Y139075D01*
X100558Y139134D01*
X100574Y139201D01*
X100600Y139276D01*
X100633Y139352D01*
X100683Y139419D01*
X100692Y139427D01*
X100708Y139452D01*
X100742Y139486D01*
X100792Y139519D01*
X100859Y139570D01*
X100935Y139611D01*
X101035Y139653D01*
X101144Y139695D01*
X100960Y140801D01*
X100952D01*
X100935Y140793D01*
X100901Y140776D01*
X100859Y140760D01*
X100809Y140734D01*
X100750Y140709D01*
X100616Y140634D01*
X100465Y140542D01*
X100306Y140424D01*
X100164Y140282D01*
X100030Y140123D01*
Y140114D01*
X100013Y140106D01*
X100004Y140072D01*
X99979Y140039D01*
X99954Y139997D01*
X99929Y139938D01*
X99904Y139880D01*
X99871Y139804D01*
X99812Y139637D01*
X99761Y139444D01*
X99728Y139218D01*
X99711Y138975D01*
Y140860D01*
D01*
Y136938D01*
D01*
Y138924D01*
X99720Y138874D01*
Y138799D01*
X99736Y138706D01*
X99753Y138598D01*
X99770Y138480D01*
X99803Y138363D01*
X99837Y138229D01*
X99887Y138095D01*
X99946Y137961D01*
X100013Y137827D01*
X100097Y137692D01*
X100189Y137567D01*
X100298Y137458D01*
X100424Y137349D01*
X100432Y137340D01*
X100449Y137332D01*
X100482Y137315D01*
X100524Y137282D01*
X100583Y137257D01*
X100650Y137223D01*
X100725Y137181D01*
X100817Y137148D01*
X100918Y137106D01*
X101027Y137072D01*
X101144Y137030D01*
X101278Y137005D01*
X101412Y136980D01*
X101555Y136955D01*
X101714Y136947D01*
X101873Y136938D01*
X104102D01*
X101974D01*
X102049Y136947D01*
X102133Y136955D01*
X102234Y136963D01*
X102343Y136980D01*
X102468Y137005D01*
X102728Y137072D01*
X102862Y137114D01*
X103005Y137164D01*
X103139Y137232D01*
X103264Y137307D01*
X103390Y137391D01*
X103507Y137483D01*
X103516Y137491D01*
X103533Y137508D01*
X103566Y137542D01*
X103600Y137583D01*
X103641Y137634D01*
X103692Y137701D01*
X103750Y137776D01*
X103809Y137860D01*
X103859Y137952D01*
X103918Y138061D01*
X103968Y138170D01*
X104010Y138296D01*
X104044Y138421D01*
X104077Y138564D01*
X104094Y138706D01*
X104102Y138857D01*
Y138950D01*
X104094Y139016D01*
X104086Y139092D01*
X104069Y139184D01*
X104052Y139285D01*
X104027Y139394D01*
X103993Y139511D01*
X103952Y139628D01*
X103901Y139754D01*
X103834Y139880D01*
X103767Y139997D01*
X103683Y140114D01*
X103583Y140232D01*
X103474Y140332D01*
X103465Y140340D01*
X103449Y140357D01*
X103407Y140382D01*
X103357Y140416D01*
X103289Y140458D01*
X103214Y140500D01*
X103113Y140550D01*
X103005Y140600D01*
X102879Y140651D01*
X102736Y140701D01*
X102586Y140743D01*
X102410Y140785D01*
X102225Y140818D01*
X102024Y140843D01*
X101815Y140860D01*
X104102D01*
D02*
G37*
G36*
X91417Y140915D02*
X85475D01*
X87361D01*
X87294Y140906D01*
X87218Y140898D01*
X87134Y140889D01*
X87034Y140873D01*
X86933Y140848D01*
X86699Y140789D01*
X86581Y140747D01*
X86464Y140688D01*
X86347Y140630D01*
X86229Y140563D01*
X86112Y140479D01*
X86012Y140387D01*
X86003Y140378D01*
X85987Y140361D01*
X85961Y140336D01*
X85928Y140294D01*
X85886Y140244D01*
X85844Y140177D01*
X85794Y140110D01*
X85743Y140026D01*
X85693Y139934D01*
X85643Y139833D01*
X85601Y139725D01*
X85559Y139599D01*
X85526Y139473D01*
X85500Y139339D01*
X85484Y139197D01*
X85475Y139046D01*
Y139004D01*
X85484Y138962D01*
Y138903D01*
X85500Y138828D01*
X85509Y138736D01*
X85534Y138644D01*
X85559Y138535D01*
X85593Y138426D01*
X85643Y138308D01*
X85693Y138183D01*
X85760Y138065D01*
X85836Y137940D01*
X85928Y137822D01*
X86037Y137705D01*
X86154Y137596D01*
X86163Y137588D01*
X86188Y137571D01*
X86229Y137546D01*
X86288Y137512D01*
X86364Y137462D01*
X86456Y137420D01*
X86565Y137370D01*
X86690Y137320D01*
X86841Y137261D01*
X87001Y137211D01*
X87185Y137169D01*
X87394Y137127D01*
X87612Y137085D01*
X87855Y137060D01*
X88115Y137043D01*
X88400Y137035D01*
X88551D01*
X88660Y137043D01*
X88794Y137051D01*
X88945Y137068D01*
X89112Y137085D01*
X89288Y137110D01*
X89473Y137135D01*
X89665Y137177D01*
X89858Y137227D01*
X90051Y137286D01*
X90227Y137353D01*
X90403Y137428D01*
X90562Y137521D01*
X90704Y137621D01*
X90713Y137630D01*
X90738Y137646D01*
X90772Y137680D01*
X90813Y137730D01*
X90872Y137789D01*
X90931Y137856D01*
X90998Y137940D01*
X91065Y138032D01*
X91123Y138141D01*
X91190Y138250D01*
X91249Y138384D01*
X91308Y138518D01*
X91350Y138660D01*
X91383Y138820D01*
X91408Y138979D01*
X91417Y139155D01*
Y137395D01*
Y140915D01*
D02*
G37*
G36*
X108472Y138023D02*
Y138015D01*
X108463Y138007D01*
X108447Y137956D01*
X108421Y137873D01*
X108396Y137764D01*
X108363Y137638D01*
X108338Y137487D01*
X108321Y137320D01*
X108312Y137144D01*
Y137236D01*
Y137093D01*
X108321Y137035D01*
X108329Y136959D01*
X108338Y136875D01*
X108354Y136783D01*
X108379Y136691D01*
X108413Y136599D01*
X108421Y136591D01*
X108430Y136557D01*
X108455Y136515D01*
X108480Y136465D01*
X108564Y136347D01*
X108614Y136289D01*
X108673Y136239D01*
X108681Y136230D01*
X108706Y136222D01*
X108740Y136205D01*
X108790Y136180D01*
X108849Y136155D01*
X108924Y136130D01*
X109008Y136104D01*
X109100Y136088D01*
X109109D01*
X109142Y136079D01*
X109192D01*
X109276Y136071D01*
X109385Y136063D01*
X109519D01*
X109595Y136054D01*
X109687D01*
X109779D01*
X109888D01*
X111723D01*
Y135543D01*
X108312D01*
X112611D01*
Y136054D01*
X113449D01*
X114103Y137169D01*
X112611D01*
Y137931D01*
X111723D01*
Y137169D01*
X110022D01*
X110014D01*
X109997D01*
X109972D01*
X109938D01*
X109854D01*
X109754D01*
X109653Y137177D01*
X109553D01*
X109477D01*
X109444Y137186D01*
X109427D01*
X109410Y137194D01*
X109377Y137211D01*
X109335Y137236D01*
X109284Y137286D01*
X109276Y137303D01*
X109259Y137336D01*
X109243Y137395D01*
X109234Y137470D01*
Y137504D01*
X109243Y137537D01*
X109251Y137588D01*
X109259Y137655D01*
X109276Y137730D01*
X109301Y137822D01*
X109335Y137923D01*
X108472Y138023D01*
D02*
G37*
G36*
X108312Y137030D02*
Y135543D01*
D01*
Y137030D01*
D02*
G37*
G36*
X91417Y136289D02*
X85475D01*
X88283D01*
X88174Y136280D01*
X88040Y136272D01*
X87880Y136255D01*
X87713Y136239D01*
X87528Y136222D01*
X87336Y136188D01*
X87134Y136146D01*
X86942Y136104D01*
X86749Y136046D01*
X86556Y135987D01*
X86380Y135903D01*
X86213Y135819D01*
X86070Y135719D01*
X86062Y135711D01*
X86045Y135694D01*
X86012Y135669D01*
X85978Y135635D01*
X85936Y135585D01*
X85886Y135526D01*
X85827Y135451D01*
X85777Y135375D01*
X85718Y135283D01*
X85660Y135191D01*
X85609Y135082D01*
X85567Y134965D01*
X85534Y134839D01*
X85500Y134697D01*
X85484Y134554D01*
X85475Y134403D01*
Y134370D01*
X85484Y134319D01*
Y134261D01*
X85492Y134194D01*
X85509Y134110D01*
X85526Y134018D01*
X85559Y133917D01*
X85593Y133808D01*
X85634Y133699D01*
X85685Y133582D01*
X85752Y133473D01*
X85819Y133356D01*
X85911Y133247D01*
X86003Y133138D01*
X86121Y133037D01*
X86129Y133029D01*
X86154Y133012D01*
X86196Y132987D01*
X86246Y132962D01*
X86322Y132920D01*
X86414Y132878D01*
X86531Y132828D01*
X86657Y132786D01*
X86808Y132736D01*
X86975Y132685D01*
X87168Y132643D01*
X87378Y132610D01*
X87612Y132577D01*
X87872Y132551D01*
X88148Y132535D01*
X88450Y132526D01*
X88609D01*
X88718Y132535D01*
X88852Y132543D01*
X89012Y132560D01*
X89179Y132577D01*
X89364Y132593D01*
X89556Y132627D01*
X89749Y132660D01*
X89950Y132711D01*
X90143Y132761D01*
X90327Y132828D01*
X90503Y132903D01*
X90671Y132987D01*
X90813Y133088D01*
X90822Y133096D01*
X90838Y133113D01*
X90872Y133138D01*
X90905Y133180D01*
X90956Y133222D01*
X91006Y133280D01*
X91056Y133356D01*
X91115Y133431D01*
X91174Y133523D01*
X91224Y133616D01*
X91274Y133724D01*
X91325Y133842D01*
X91358Y133967D01*
X91392Y134110D01*
X91408Y134253D01*
X91417Y134403D01*
Y132828D01*
Y134487D01*
X91408Y134546D01*
X91400Y134613D01*
X91383Y134697D01*
X91366Y134780D01*
X91341Y134881D01*
X91308Y134990D01*
X91266Y135090D01*
X91224Y135199D01*
X91165Y135308D01*
X91090Y135417D01*
X91014Y135526D01*
X90922Y135627D01*
X90813Y135719D01*
X90805Y135727D01*
X90780Y135744D01*
X90738Y135769D01*
X90679Y135811D01*
X90596Y135853D01*
X90495Y135903D01*
X90386Y135954D01*
X90244Y136004D01*
X90093Y136054D01*
X89917Y136113D01*
X89724Y136155D01*
X89506Y136197D01*
X89271Y136239D01*
X89020Y136264D01*
X88744Y136280D01*
X88442Y136289D01*
X91417D01*
Y134919D01*
Y136289D01*
D02*
G37*
G36*
X98535Y137391D02*
X92736D01*
Y132757D01*
X98535D01*
Y133930D01*
X96255D01*
Y136218D01*
X98535D01*
Y137391D01*
D02*
G37*
G36*
X105602Y136637D02*
X99803D01*
Y131424D01*
X105602D01*
Y134039D01*
X105594Y134114D01*
Y134206D01*
X105586Y134299D01*
Y134407D01*
X105561Y134625D01*
X105535Y134852D01*
X105493Y135061D01*
X105468Y135153D01*
X105443Y135237D01*
Y135246D01*
X105435Y135254D01*
X105410Y135304D01*
X105368Y135380D01*
X105317Y135480D01*
X105234Y135589D01*
X105141Y135698D01*
X105024Y135807D01*
X104882Y135907D01*
X104873D01*
X104865Y135916D01*
X104840Y135933D01*
X104815Y135949D01*
X104731Y135991D01*
X104622Y136042D01*
X104488Y136083D01*
X104337Y136125D01*
X104161Y136159D01*
X103977Y136167D01*
X103968D01*
X103952D01*
X103910D01*
X103868Y136159D01*
X103809D01*
X103750Y136151D01*
X103600Y136117D01*
X103424Y136075D01*
X103248Y136008D01*
X103063Y135907D01*
X102979Y135849D01*
X102896Y135782D01*
X102887Y135773D01*
X102879Y135765D01*
X102854Y135740D01*
X102829Y135706D01*
X102795Y135673D01*
X102753Y135623D01*
X102711Y135564D01*
X102669Y135497D01*
X102619Y135422D01*
X102577Y135329D01*
X102535Y135237D01*
X102493Y135137D01*
X102452Y135019D01*
X102418Y134902D01*
X102384Y134776D01*
X102359Y134634D01*
Y134642D01*
X102351Y134651D01*
X102317Y134701D01*
X102276Y134768D01*
X102217Y134852D01*
X102141Y134952D01*
X102066Y135053D01*
X101974Y135162D01*
X101873Y135254D01*
X101865Y135262D01*
X101823Y135304D01*
X101756Y135354D01*
X101655Y135430D01*
X101530Y135530D01*
X101446Y135581D01*
X101362Y135639D01*
X101270Y135706D01*
X101169Y135773D01*
X101052Y135849D01*
X100935Y135924D01*
X99803Y136637D01*
X105602D01*
D02*
G37*
G36*
X107525Y135459D02*
X106804D01*
Y130833D01*
X108405D01*
X107525D01*
Y135459D01*
D02*
G37*
G36*
X112486Y131009D02*
X111522Y130657D01*
X111530Y130649D01*
X111547Y130607D01*
X111581Y130557D01*
X111614Y130490D01*
X111648Y130406D01*
X111681Y130322D01*
X111698Y130230D01*
X111706Y130138D01*
Y130104D01*
X111698Y130054D01*
X111690Y130004D01*
X111673Y129945D01*
X111648Y129878D01*
X111614Y129811D01*
X111572Y129744D01*
X111564Y129736D01*
X111547Y129719D01*
X111514Y129685D01*
X111463Y129652D01*
X111405Y129610D01*
X111321Y129568D01*
X111220Y129526D01*
X111103Y129493D01*
X111086D01*
X111061Y129484D01*
X111036Y129476D01*
X110994D01*
X110944Y129467D01*
X110877Y129459D01*
X110801Y129451D01*
X110717Y129442D01*
X110609Y129434D01*
X110500Y129426D01*
X110366D01*
X110223Y129417D01*
X110064Y129409D01*
X109888D01*
X109695D01*
X108405D01*
Y131009D01*
Y128294D01*
X112611D01*
Y129325D01*
X112016D01*
X112025Y129333D01*
X112075Y129367D01*
X112151Y129417D01*
X112243Y129484D01*
X112335Y129551D01*
X112427Y129635D01*
X112511Y129710D01*
X112569Y129794D01*
X112578Y129803D01*
X112595Y129828D01*
X112611Y129878D01*
X112637Y129937D01*
X112662Y130004D01*
X112687Y130088D01*
X112695Y130171D01*
X112704Y130272D01*
Y130339D01*
X112695Y130414D01*
X112678Y130507D01*
X112653Y130624D01*
X112611Y130750D01*
X112561Y130875D01*
X112486Y131009D01*
D02*
G37*
G36*
X93850Y129346D02*
X92736D01*
Y128231D01*
X93850D01*
Y129346D01*
D02*
G37*
G36*
X112704Y127431D02*
X110181D01*
Y124649D01*
X110173D01*
X110156D01*
X110131D01*
X110097Y124657D01*
X110014Y124666D01*
X109896Y124682D01*
X109779Y124716D01*
X109645Y124766D01*
X109519Y124825D01*
X109410Y124909D01*
X109402Y124917D01*
X109368Y124959D01*
X109326Y125009D01*
X109276Y125085D01*
X109226Y125177D01*
X109184Y125294D01*
X109151Y125420D01*
X109142Y125554D01*
Y125596D01*
X109151Y125646D01*
X109159Y125705D01*
X109176Y125772D01*
X109201Y125847D01*
X109234Y125923D01*
X109284Y125990D01*
X109293Y125998D01*
X109310Y126023D01*
X109343Y126057D01*
X109394Y126090D01*
X109460Y126141D01*
X109536Y126182D01*
X109636Y126224D01*
X109746Y126266D01*
X109561Y127373D01*
X109553D01*
X109536Y127364D01*
X109502Y127347D01*
X109460Y127331D01*
X109410Y127305D01*
X109352Y127280D01*
X109218Y127205D01*
X109067Y127113D01*
X108907Y126995D01*
X108765Y126853D01*
X108631Y126694D01*
Y126685D01*
X108614Y126677D01*
X108606Y126643D01*
X108581Y126610D01*
X108555Y126568D01*
X108530Y126509D01*
X108505Y126451D01*
X108472Y126375D01*
X108413Y126208D01*
X108363Y126015D01*
X108329Y125789D01*
X108312Y125546D01*
Y123509D01*
D01*
Y125495D01*
X108321Y125445D01*
Y125370D01*
X108338Y125277D01*
X108354Y125169D01*
X108371Y125051D01*
X108405Y124934D01*
X108438Y124800D01*
X108488Y124666D01*
X108547Y124532D01*
X108614Y124398D01*
X108698Y124264D01*
X108790Y124138D01*
X108899Y124029D01*
X109025Y123920D01*
X109033Y123911D01*
X109050Y123903D01*
X109083Y123886D01*
X109125Y123853D01*
X109184Y123828D01*
X109251Y123794D01*
X109326Y123752D01*
X109419Y123719D01*
X109519Y123677D01*
X109628Y123643D01*
X109746Y123601D01*
X109880Y123576D01*
X110014Y123551D01*
X110156Y123526D01*
X110315Y123518D01*
X110475Y123509D01*
X112704D01*
X110575D01*
X110651Y123518D01*
X110734Y123526D01*
X110835Y123534D01*
X110944Y123551D01*
X111070Y123576D01*
X111329Y123643D01*
X111463Y123685D01*
X111606Y123736D01*
X111740Y123803D01*
X111866Y123878D01*
X111991Y123962D01*
X112109Y124054D01*
X112117Y124062D01*
X112134Y124079D01*
X112167Y124113D01*
X112201Y124155D01*
X112243Y124205D01*
X112293Y124272D01*
X112352Y124347D01*
X112410Y124431D01*
X112461Y124523D01*
X112519Y124632D01*
X112569Y124741D01*
X112611Y124867D01*
X112645Y124993D01*
X112678Y125135D01*
X112695Y125277D01*
X112704Y125428D01*
Y125521D01*
X112695Y125587D01*
X112687Y125663D01*
X112670Y125755D01*
X112653Y125856D01*
X112628Y125965D01*
X112595Y126082D01*
X112553Y126199D01*
X112503Y126325D01*
X112435Y126451D01*
X112368Y126568D01*
X112285Y126685D01*
X112184Y126803D01*
X112075Y126903D01*
X112067Y126912D01*
X112050Y126928D01*
X112008Y126953D01*
X111958Y126987D01*
X111891Y127029D01*
X111815Y127071D01*
X111715Y127121D01*
X111606Y127171D01*
X111480Y127222D01*
X111338Y127272D01*
X111187Y127314D01*
X111011Y127356D01*
X110827Y127389D01*
X110625Y127414D01*
X110416Y127431D01*
X112704D01*
D02*
G37*
G36*
X106796Y146579D02*
Y122948D01*
D01*
Y146579D01*
D02*
G37*
G36*
X98535Y127058D02*
X92736D01*
Y121477D01*
X98535D01*
Y123229D01*
X94571Y124268D01*
X98535Y125298D01*
Y127058D01*
D02*
G37*
G36*
X107525Y118339D02*
X106804D01*
Y113713D01*
X108405D01*
X107525D01*
Y118339D01*
D02*
G37*
G36*
X112611Y113621D02*
X108405D01*
Y109867D01*
X109284D01*
X111086Y111434D01*
X111095Y111442D01*
X111103Y111451D01*
X111162Y111501D01*
X111237Y111568D01*
X111329Y111652D01*
X111430Y111744D01*
X111539Y111844D01*
X111631Y111928D01*
X111715Y112012D01*
Y111978D01*
X111706Y111928D01*
Y111802D01*
X111698Y111710D01*
Y111501D01*
X111690Y110018D01*
X112611D01*
Y113495D01*
X111824D01*
X109972Y111886D01*
X109360Y111325D01*
Y111367D01*
X109368Y111400D01*
Y111476D01*
X109377Y111568D01*
Y111668D01*
X109385Y111760D01*
Y113621D01*
X112611D01*
D02*
G37*
G36*
Y109171D02*
X108312D01*
Y105341D01*
D01*
Y106666D01*
X108321Y106590D01*
X108338Y106490D01*
X108354Y106364D01*
X108388Y106238D01*
X108438Y106104D01*
X108497Y105978D01*
X108505Y105962D01*
X108530Y105928D01*
X108572Y105861D01*
X108631Y105794D01*
X108706Y105710D01*
X108790Y105635D01*
X108899Y105559D01*
X109016Y105492D01*
X109033Y105484D01*
X109075Y105467D01*
X109151Y105442D01*
X109259Y105417D01*
X109394Y105392D01*
X109553Y105367D01*
X109737Y105350D01*
X109947Y105341D01*
X112611D01*
Y106456D01*
X110676D01*
X110667D01*
X110634D01*
X110592D01*
X110533D01*
X110466D01*
X110391D01*
X110215Y106464D01*
X110022Y106473D01*
X109846Y106481D01*
X109771Y106490D01*
X109695Y106498D01*
X109636Y106506D01*
X109595Y106515D01*
X109586D01*
X109561Y106523D01*
X109528Y106540D01*
X109477Y106565D01*
X109427Y106590D01*
X109377Y106632D01*
X109326Y106674D01*
X109276Y106732D01*
X109268Y106741D01*
X109259Y106766D01*
X109243Y106800D01*
X109226Y106850D01*
X109201Y106909D01*
X109184Y106984D01*
X109176Y107059D01*
X109167Y107151D01*
Y107202D01*
X109176Y107252D01*
X109184Y107319D01*
X109201Y107403D01*
X109234Y107487D01*
X109268Y107579D01*
X109318Y107663D01*
X109326Y107671D01*
X109343Y107696D01*
X109377Y107738D01*
X109427Y107788D01*
X109486Y107839D01*
X109544Y107889D01*
X109620Y107939D01*
X109704Y107973D01*
X109712D01*
X109754Y107990D01*
X109787D01*
X109829Y107998D01*
X109871Y108006D01*
X109930Y108015D01*
X110005Y108023D01*
X110081Y108031D01*
X110173Y108040D01*
X110282D01*
X110399Y108048D01*
X110533Y108057D01*
X110676D01*
X110835D01*
X112611D01*
Y109171D01*
D02*
G37*
%LPD*%
G36*
X109704Y177250D02*
X108405Y176387D01*
Y178113D01*
X109704Y177250D01*
D02*
G37*
G36*
X110609Y173613D02*
X110659D01*
X110726Y173605D01*
X110860Y173588D01*
X111011Y173546D01*
X111170Y173496D01*
X111329Y173421D01*
X111463Y173320D01*
X111480Y173303D01*
X111514Y173270D01*
X111572Y173203D01*
X111631Y173119D01*
X111690Y173010D01*
X111748Y172893D01*
X111782Y172750D01*
X111799Y172591D01*
Y172549D01*
X111790Y172515D01*
X111782Y172440D01*
X111757Y172340D01*
X111715Y172222D01*
X111656Y172097D01*
X111572Y171971D01*
X111463Y171853D01*
X111447Y171845D01*
X111405Y171812D01*
X111321Y171761D01*
X111220Y171711D01*
X111086Y171652D01*
X110919Y171610D01*
X110726Y171577D01*
X110508Y171560D01*
X110500D01*
X110483D01*
X110449D01*
X110407Y171569D01*
X110349D01*
X110290Y171577D01*
X110156Y171594D01*
X109997Y171636D01*
X109838Y171686D01*
X109678Y171753D01*
X109544Y171853D01*
X109528Y171870D01*
X109494Y171904D01*
X109444Y171971D01*
X109385Y172063D01*
X109318Y172164D01*
X109268Y172289D01*
X109234Y172432D01*
X109218Y172591D01*
Y172633D01*
X109226Y172666D01*
X109234Y172742D01*
X109259Y172842D01*
X109301Y172960D01*
X109352Y173085D01*
X109435Y173203D01*
X109544Y173320D01*
X109561Y173337D01*
X109603Y173370D01*
X109687Y173412D01*
X109787Y173471D01*
X109930Y173530D01*
X110089Y173571D01*
X110290Y173605D01*
X110508Y173622D01*
X110516D01*
X110533D01*
X110567D01*
X110609Y173613D01*
D02*
G37*
G36*
X108321Y172490D02*
Y172440D01*
X108329Y172381D01*
X108346Y172239D01*
X108379Y172063D01*
X108421Y171879D01*
X108488Y171686D01*
X108572Y171485D01*
Y171476D01*
X108581Y171460D01*
X108597Y171434D01*
X108623Y171401D01*
X108681Y171309D01*
X108765Y171192D01*
X108874Y171066D01*
X109008Y170932D01*
X109159Y170806D01*
X109335Y170689D01*
X109343D01*
X109360Y170680D01*
X109385Y170664D01*
X109427Y170647D01*
X109477Y170630D01*
X109536Y170605D01*
X109603Y170580D01*
X109678Y170555D01*
X109762Y170529D01*
X109854Y170504D01*
X110064Y170462D01*
X110307Y170429D01*
X110567Y170421D01*
X108312D01*
Y172532D01*
X108321Y172490D01*
D02*
G37*
G36*
X110667Y168644D02*
X110734Y168636D01*
X110893Y168619D01*
X111061Y168585D01*
X111237Y168543D01*
X111396Y168476D01*
X111463Y168435D01*
X111530Y168384D01*
X111547Y168376D01*
X111581Y168334D01*
X111631Y168284D01*
X111690Y168200D01*
X111748Y168108D01*
X111799Y167990D01*
X111832Y167865D01*
X111849Y167714D01*
Y167697D01*
X111840Y167647D01*
X111832Y167571D01*
X111807Y167479D01*
X111773Y167370D01*
X111715Y167253D01*
X111639Y167144D01*
X111539Y167035D01*
X111522Y167027D01*
X111480Y166993D01*
X111405Y166951D01*
X111304Y166909D01*
X111170Y166859D01*
X111011Y166817D01*
X110818Y166784D01*
X110592Y166775D01*
X110583D01*
X110567D01*
X110533D01*
X110483D01*
X110433Y166784D01*
X110366D01*
X110223Y166800D01*
X110072Y166825D01*
X109913Y166859D01*
X109762Y166909D01*
X109628Y166976D01*
X109620D01*
X109611Y166993D01*
X109561Y167027D01*
X109494Y167094D01*
X109410Y167186D01*
X109326Y167295D01*
X109259Y167429D01*
X109209Y167580D01*
X109201Y167664D01*
X109192Y167756D01*
Y167772D01*
X109201Y167814D01*
X109209Y167890D01*
X109234Y167974D01*
X109268Y168074D01*
X109326Y168175D01*
X109402Y168284D01*
X109502Y168384D01*
X109519Y168393D01*
X109561Y168426D01*
X109636Y168468D01*
X109746Y168518D01*
X109880Y168569D01*
X110047Y168611D01*
X110148Y168627D01*
X110257Y168644D01*
X110366Y168652D01*
X110491D01*
X110500D01*
X110525D01*
X110558D01*
X110609D01*
X110667Y168644D01*
D02*
G37*
G36*
X108321Y167890D02*
X108338Y167798D01*
X108354Y167689D01*
X108388Y167571D01*
X108430Y167446D01*
X108488Y167312D01*
X108497Y167295D01*
X108522Y167253D01*
X108564Y167186D01*
X108623Y167102D01*
X108698Y167010D01*
X108782Y166909D01*
X108891Y166809D01*
X109016Y166708D01*
X108405D01*
Y165677D01*
X108312D01*
Y167965D01*
X108321Y167890D01*
D02*
G37*
G36*
X110935Y159191D02*
X111028Y159183D01*
X111128Y159166D01*
X111246Y159133D01*
X111371Y159091D01*
X111488Y159024D01*
X111589Y158948D01*
X111597Y158940D01*
X111631Y158906D01*
X111673Y158856D01*
X111723Y158789D01*
X111765Y158705D01*
X111807Y158605D01*
X111840Y158496D01*
X111849Y158370D01*
Y158311D01*
X111832Y158244D01*
X111815Y158161D01*
X111782Y158068D01*
X111740Y157968D01*
X111673Y157867D01*
X111581Y157775D01*
X111572Y157767D01*
X111530Y157742D01*
X111472Y157700D01*
X111388Y157658D01*
X111287Y157607D01*
X111162Y157574D01*
X111019Y157549D01*
X110860Y157541D01*
Y159200D01*
X110868D01*
X110885D01*
X110902D01*
X110935Y159191D01*
D02*
G37*
G36*
X108321Y158320D02*
Y158244D01*
X108338Y158152D01*
X108354Y158043D01*
X108371Y157926D01*
X108405Y157809D01*
X108438Y157675D01*
X108488Y157541D01*
X108547Y157406D01*
X108614Y157272D01*
X108698Y157138D01*
X108790Y157012D01*
X108899Y156904D01*
X109025Y156795D01*
X109033Y156786D01*
X109050Y156778D01*
X109083Y156761D01*
X109125Y156728D01*
X109184Y156702D01*
X109251Y156669D01*
X109326Y156627D01*
X109419Y156594D01*
X109519Y156552D01*
X109628Y156518D01*
X109746Y156476D01*
X109880Y156451D01*
X110014Y156426D01*
X110156Y156401D01*
X110315Y156392D01*
X110475Y156384D01*
X108312D01*
Y158370D01*
X108321Y158320D01*
D02*
G37*
G36*
X95266Y158642D02*
X95359Y158634D01*
X95459Y158617D01*
X95577Y158584D01*
X95702Y158542D01*
X95820Y158475D01*
X95920Y158399D01*
X95929Y158391D01*
X95962Y158358D01*
X96004Y158307D01*
X96054Y158240D01*
X96096Y158156D01*
X96138Y158056D01*
X96171Y157947D01*
X96180Y157821D01*
Y157763D01*
X96163Y157695D01*
X96146Y157612D01*
X96113Y157519D01*
X96071Y157419D01*
X96004Y157318D01*
X95912Y157226D01*
X95903Y157218D01*
X95862Y157193D01*
X95803Y157151D01*
X95719Y157109D01*
X95618Y157059D01*
X95493Y157025D01*
X95350Y157000D01*
X95191Y156992D01*
Y158651D01*
X95200D01*
X95216D01*
X95233D01*
X95266Y158642D01*
D02*
G37*
G36*
X108321Y152982D02*
X108338Y152881D01*
X108354Y152755D01*
X108388Y152630D01*
X108438Y152496D01*
X108497Y152370D01*
X108505Y152353D01*
X108530Y152320D01*
X108572Y152253D01*
X108631Y152186D01*
X108706Y152102D01*
X108790Y152026D01*
X108899Y151951D01*
X109016Y151884D01*
X109033Y151876D01*
X109075Y151859D01*
X109151Y151834D01*
X109259Y151809D01*
X109394Y151783D01*
X109553Y151758D01*
X109737Y151742D01*
X109947Y151733D01*
X108312D01*
Y153057D01*
X108321Y152982D01*
D02*
G37*
G36*
X87721Y149144D02*
Y150493D01*
X89716D01*
X87721Y149144D01*
D02*
G37*
G36*
X103005Y148620D02*
X103113D01*
X103223Y148612D01*
X103457Y148603D01*
X103683Y148586D01*
X103792Y148570D01*
X103901Y148553D01*
X103993Y148536D01*
X104069Y148519D01*
X104077D01*
X104086Y148511D01*
X104128Y148503D01*
X104194Y148477D01*
X104278Y148452D01*
X104362Y148410D01*
X104446Y148369D01*
X104521Y148318D01*
X104580Y148268D01*
X104588Y148260D01*
X104605Y148243D01*
X104622Y148209D01*
X104647Y148168D01*
X104672Y148117D01*
X104697Y148058D01*
X104706Y147992D01*
X104714Y147916D01*
Y147882D01*
X104706Y147841D01*
X104697Y147799D01*
X104681Y147740D01*
X104655Y147681D01*
X104622Y147614D01*
X104580Y147556D01*
X104572Y147547D01*
X104555Y147531D01*
X104521Y147505D01*
X104480Y147472D01*
X104412Y147430D01*
X104337Y147397D01*
X104236Y147355D01*
X104119Y147321D01*
X104111D01*
X104102Y147313D01*
X104069D01*
X104035Y147304D01*
X103985Y147296D01*
X103926Y147288D01*
X103859Y147279D01*
X103776Y147271D01*
X103675Y147254D01*
X103574Y147246D01*
X103449Y147237D01*
X103323Y147229D01*
X103172Y147221D01*
X103021D01*
X102845Y147212D01*
X102661D01*
X102653D01*
X102619D01*
X102560D01*
X102493D01*
X102410D01*
X102317Y147221D01*
X102208D01*
X102100Y147229D01*
X101865Y147237D01*
X101630Y147254D01*
X101521Y147262D01*
X101421Y147279D01*
X101329Y147296D01*
X101245Y147313D01*
X101228Y147321D01*
X101186Y147329D01*
X101119Y147355D01*
X101044Y147380D01*
X100960Y147422D01*
X100876Y147464D01*
X100801Y147514D01*
X100742Y147564D01*
X100734Y147573D01*
X100725Y147589D01*
X100700Y147623D01*
X100683Y147665D01*
X100658Y147715D01*
X100633Y147774D01*
X100625Y147841D01*
X100616Y147916D01*
Y147950D01*
X100625Y147992D01*
X100633Y148033D01*
X100650Y148092D01*
X100667Y148151D01*
X100700Y148209D01*
X100742Y148268D01*
X100750Y148276D01*
X100767Y148293D01*
X100801Y148327D01*
X100851Y148360D01*
X100910Y148394D01*
X100993Y148436D01*
X101086Y148477D01*
X101203Y148511D01*
X101211D01*
X101220Y148519D01*
X101253D01*
X101287Y148528D01*
X101337Y148536D01*
X101396Y148545D01*
X101463Y148561D01*
X101547Y148570D01*
X101639Y148578D01*
X101748Y148595D01*
X101865Y148603D01*
X101999Y148612D01*
X102141Y148620D01*
X102301D01*
X102477Y148628D01*
X102661D01*
X102669D01*
X102703D01*
X102762D01*
X102829D01*
X102912D01*
X103005Y148620D01*
D02*
G37*
G36*
X110717Y149571D02*
X110776Y149563D01*
X110919Y149546D01*
X111078Y149512D01*
X111237Y149470D01*
X111388Y149404D01*
X111514Y149311D01*
X111530Y149303D01*
X111564Y149261D01*
X111614Y149211D01*
X111673Y149135D01*
X111732Y149035D01*
X111782Y148926D01*
X111815Y148800D01*
X111832Y148658D01*
Y148641D01*
X111824Y148591D01*
X111815Y148515D01*
X111790Y148423D01*
X111757Y148314D01*
X111698Y148205D01*
X111614Y148096D01*
X111505Y147987D01*
X111488Y147979D01*
X111447Y147945D01*
X111371Y147904D01*
X111262Y147853D01*
X111120Y147803D01*
X111036Y147778D01*
X110944Y147761D01*
X110843Y147744D01*
X110734Y147728D01*
X110617Y147719D01*
X110491D01*
X110483D01*
X110458D01*
X110424D01*
X110382Y147728D01*
X110324D01*
X110257Y147736D01*
X110106Y147753D01*
X109947Y147786D01*
X109779Y147828D01*
X109628Y147895D01*
X109553Y147937D01*
X109494Y147979D01*
X109477Y147987D01*
X109444Y148029D01*
X109402Y148080D01*
X109343Y148155D01*
X109284Y148247D01*
X109243Y148356D01*
X109209Y148482D01*
X109192Y148616D01*
Y148633D01*
X109201Y148683D01*
X109209Y148750D01*
X109234Y148842D01*
X109276Y148951D01*
X109335Y149060D01*
X109419Y149177D01*
X109536Y149286D01*
X109553Y149303D01*
X109603Y149337D01*
X109678Y149378D01*
X109796Y149437D01*
X109938Y149487D01*
X110114Y149538D01*
X110324Y149571D01*
X110558Y149580D01*
X110567D01*
X110583D01*
X110617D01*
X110667D01*
X110717Y149571D01*
D02*
G37*
G36*
X95266Y146030D02*
X95359Y146022D01*
X95459Y146005D01*
X95577Y145972D01*
X95702Y145930D01*
X95820Y145863D01*
X95920Y145788D01*
X95929Y145779D01*
X95962Y145746D01*
X96004Y145695D01*
X96054Y145628D01*
X96096Y145545D01*
X96138Y145444D01*
X96171Y145335D01*
X96180Y145209D01*
Y145151D01*
X96163Y145084D01*
X96146Y145000D01*
X96113Y144908D01*
X96071Y144807D01*
X96004Y144706D01*
X95912Y144614D01*
X95903Y144606D01*
X95862Y144581D01*
X95803Y144539D01*
X95719Y144497D01*
X95618Y144447D01*
X95493Y144413D01*
X95350Y144388D01*
X95191Y144380D01*
Y146039D01*
X95200D01*
X95216D01*
X95233D01*
X95266Y146030D01*
D02*
G37*
G36*
X91417Y145792D02*
X91408Y145850D01*
X91400Y145926D01*
X91392Y146010D01*
X91375Y146102D01*
X91358Y146202D01*
X91299Y146420D01*
X91216Y146638D01*
X91165Y146755D01*
X91107Y146856D01*
X91031Y146965D01*
X90947Y147057D01*
X90939Y147065D01*
X90931Y147082D01*
X90897Y147099D01*
X90864Y147133D01*
X90822Y147174D01*
X90763Y147216D01*
X90704Y147258D01*
X90629Y147309D01*
X90461Y147392D01*
X90269Y147476D01*
X90160Y147510D01*
X90042Y147526D01*
X89917Y147543D01*
X89791Y147552D01*
X91417D01*
Y145792D01*
D02*
G37*
G36*
X89648Y147543D02*
X89556Y147535D01*
X89439Y147518D01*
X89313Y147493D01*
X89179Y147459D01*
X89045Y147409D01*
X89028Y147401D01*
X88986Y147384D01*
X88911Y147350D01*
X88819Y147300D01*
X88710Y147241D01*
X88584Y147166D01*
X88450Y147074D01*
X88308Y146965D01*
X88299Y146957D01*
X88257Y146923D01*
X88199Y146873D01*
X88115Y146797D01*
X88014Y146697D01*
X87880Y146571D01*
X87738Y146420D01*
X87562Y146236D01*
X87554Y146228D01*
X87545Y146211D01*
X87520Y146186D01*
X87486Y146152D01*
X87403Y146060D01*
X87302Y145951D01*
X87193Y145842D01*
X87084Y145733D01*
X86992Y145633D01*
X86950Y145599D01*
X86917Y145565D01*
X86908Y145557D01*
X86892Y145540D01*
X86858Y145515D01*
X86816Y145482D01*
X86724Y145406D01*
X86615Y145339D01*
Y147552D01*
X89724D01*
X89648Y147543D01*
D02*
G37*
G36*
X99803Y143919D02*
Y145586D01*
X104010D01*
X99803Y143919D01*
D02*
G37*
G36*
X110609Y141635D02*
X110659D01*
X110726Y141627D01*
X110860Y141610D01*
X111011Y141568D01*
X111170Y141518D01*
X111329Y141443D01*
X111463Y141342D01*
X111480Y141325D01*
X111514Y141292D01*
X111572Y141225D01*
X111631Y141141D01*
X111690Y141032D01*
X111748Y140915D01*
X111782Y140772D01*
X111799Y140613D01*
Y140571D01*
X111790Y140538D01*
X111782Y140462D01*
X111757Y140361D01*
X111715Y140244D01*
X111656Y140119D01*
X111572Y139993D01*
X111463Y139875D01*
X111447Y139867D01*
X111405Y139833D01*
X111321Y139783D01*
X111220Y139733D01*
X111086Y139674D01*
X110919Y139632D01*
X110726Y139599D01*
X110508Y139582D01*
X110500D01*
X110483D01*
X110449D01*
X110407Y139591D01*
X110349D01*
X110290Y139599D01*
X110156Y139616D01*
X109997Y139658D01*
X109838Y139708D01*
X109678Y139775D01*
X109544Y139875D01*
X109528Y139892D01*
X109494Y139926D01*
X109444Y139993D01*
X109385Y140085D01*
X109318Y140185D01*
X109268Y140311D01*
X109234Y140454D01*
X109218Y140613D01*
Y140655D01*
X109226Y140688D01*
X109234Y140764D01*
X109259Y140864D01*
X109301Y140982D01*
X109352Y141107D01*
X109435Y141225D01*
X109544Y141342D01*
X109561Y141359D01*
X109603Y141392D01*
X109687Y141434D01*
X109787Y141493D01*
X109930Y141551D01*
X110089Y141593D01*
X110290Y141627D01*
X110508Y141644D01*
X110516D01*
X110533D01*
X110567D01*
X110609Y141635D01*
D02*
G37*
G36*
X94940Y141531D02*
X94990D01*
X95057Y141522D01*
X95191Y141505D01*
X95342Y141463D01*
X95501Y141413D01*
X95660Y141338D01*
X95794Y141237D01*
X95811Y141220D01*
X95845Y141187D01*
X95903Y141120D01*
X95962Y141036D01*
X96021Y140927D01*
X96079Y140810D01*
X96113Y140667D01*
X96130Y140508D01*
Y140466D01*
X96121Y140433D01*
X96113Y140357D01*
X96088Y140257D01*
X96046Y140139D01*
X95987Y140014D01*
X95903Y139888D01*
X95794Y139771D01*
X95778Y139762D01*
X95736Y139729D01*
X95652Y139679D01*
X95551Y139628D01*
X95417Y139570D01*
X95250Y139528D01*
X95057Y139494D01*
X94839Y139477D01*
X94831D01*
X94814D01*
X94780D01*
X94739Y139486D01*
X94680D01*
X94621Y139494D01*
X94487Y139511D01*
X94328Y139553D01*
X94169Y139603D01*
X94010Y139670D01*
X93875Y139771D01*
X93859Y139787D01*
X93825Y139821D01*
X93775Y139888D01*
X93716Y139980D01*
X93649Y140081D01*
X93599Y140206D01*
X93565Y140349D01*
X93549Y140508D01*
Y140550D01*
X93557Y140584D01*
X93565Y140659D01*
X93590Y140760D01*
X93632Y140877D01*
X93683Y141003D01*
X93766Y141120D01*
X93875Y141237D01*
X93892Y141254D01*
X93934Y141288D01*
X94018Y141329D01*
X94118Y141388D01*
X94261Y141447D01*
X94420Y141489D01*
X94621Y141522D01*
X94839Y141539D01*
X94848D01*
X94864D01*
X94898D01*
X94940Y141531D01*
D02*
G37*
G36*
X102334Y139746D02*
X102426Y139737D01*
X102527Y139720D01*
X102644Y139687D01*
X102770Y139645D01*
X102887Y139578D01*
X102988Y139503D01*
X102996Y139494D01*
X103030Y139461D01*
X103072Y139410D01*
X103122Y139343D01*
X103164Y139260D01*
X103206Y139159D01*
X103239Y139050D01*
X103248Y138924D01*
Y138866D01*
X103231Y138799D01*
X103214Y138715D01*
X103181Y138623D01*
X103139Y138522D01*
X103072Y138421D01*
X102979Y138329D01*
X102971Y138321D01*
X102929Y138296D01*
X102871Y138254D01*
X102787Y138212D01*
X102686Y138162D01*
X102560Y138128D01*
X102418Y138103D01*
X102259Y138095D01*
Y139754D01*
X102267D01*
X102284D01*
X102301D01*
X102334Y139746D01*
D02*
G37*
G36*
X91417Y139222D02*
X91408Y139264D01*
Y139322D01*
X91400Y139389D01*
X91366Y139540D01*
X91325Y139708D01*
X91258Y139892D01*
X91165Y140077D01*
X91107Y140160D01*
X91040Y140244D01*
Y140252D01*
X91023Y140261D01*
X90998Y140286D01*
X90973Y140311D01*
X90931Y140353D01*
X90889Y140387D01*
X90772Y140479D01*
X90612Y140571D01*
X90428Y140663D01*
X90218Y140747D01*
X89967Y140806D01*
X89850Y139733D01*
X89866D01*
X89900Y139725D01*
X89959Y139708D01*
X90034Y139691D01*
X90109Y139666D01*
X90193Y139624D01*
X90269Y139582D01*
X90336Y139523D01*
X90344Y139515D01*
X90361Y139490D01*
X90386Y139456D01*
X90420Y139406D01*
X90445Y139348D01*
X90470Y139272D01*
X90487Y139180D01*
X90495Y139088D01*
Y139071D01*
X90487Y139029D01*
X90478Y138962D01*
X90453Y138878D01*
X90420Y138786D01*
X90361Y138686D01*
X90285Y138585D01*
X90176Y138493D01*
X90160Y138484D01*
X90143Y138468D01*
X90109Y138451D01*
X90076Y138434D01*
X90026Y138409D01*
X89967Y138392D01*
X89892Y138367D01*
X89808Y138333D01*
X89716Y138308D01*
X89607Y138283D01*
X89489Y138258D01*
X89355Y138233D01*
X89204Y138216D01*
X89037Y138199D01*
X88861Y138183D01*
X88869Y138191D01*
X88886Y138199D01*
X88903Y138225D01*
X88936Y138258D01*
X88978Y138300D01*
X89020Y138350D01*
X89112Y138468D01*
X89196Y138618D01*
X89280Y138794D01*
X89313Y138895D01*
X89330Y138996D01*
X89347Y139104D01*
X89355Y139222D01*
Y139289D01*
X89347Y139339D01*
X89338Y139398D01*
X89330Y139465D01*
X89313Y139549D01*
X89288Y139632D01*
X89221Y139817D01*
X89179Y139917D01*
X89129Y140018D01*
X89070Y140119D01*
X88995Y140219D01*
X88911Y140320D01*
X88819Y140412D01*
X88810Y140420D01*
X88794Y140437D01*
X88769Y140462D01*
X88727Y140487D01*
X88668Y140529D01*
X88609Y140571D01*
X88534Y140613D01*
X88450Y140663D01*
X88358Y140713D01*
X88249Y140755D01*
X88140Y140797D01*
X88014Y140839D01*
X87889Y140864D01*
X87746Y140889D01*
X87604Y140906D01*
X87445Y140915D01*
X91417D01*
Y139222D01*
D02*
G37*
G36*
X87621Y139817D02*
X87746Y139800D01*
X87880Y139767D01*
X88023Y139733D01*
X88157Y139674D01*
X88266Y139599D01*
X88274Y139591D01*
X88308Y139557D01*
X88350Y139515D01*
X88400Y139448D01*
X88450Y139364D01*
X88492Y139272D01*
X88526Y139163D01*
X88534Y139046D01*
Y138996D01*
X88517Y138928D01*
X88500Y138853D01*
X88467Y138769D01*
X88425Y138677D01*
X88358Y138585D01*
X88274Y138501D01*
X88266Y138493D01*
X88224Y138468D01*
X88165Y138434D01*
X88090Y138392D01*
X87981Y138350D01*
X87855Y138317D01*
X87704Y138292D01*
X87528Y138283D01*
X87520D01*
X87503D01*
X87478D01*
X87436D01*
X87344Y138300D01*
X87218Y138317D01*
X87084Y138342D01*
X86942Y138384D01*
X86808Y138443D01*
X86690Y138526D01*
X86682Y138535D01*
X86648Y138568D01*
X86598Y138627D01*
X86548Y138694D01*
X86489Y138778D01*
X86447Y138870D01*
X86414Y138979D01*
X86397Y139096D01*
Y139146D01*
X86414Y139205D01*
X86431Y139280D01*
X86456Y139356D01*
X86498Y139448D01*
X86556Y139532D01*
X86632Y139616D01*
X86640Y139624D01*
X86682Y139649D01*
X86741Y139683D01*
X86825Y139725D01*
X86933Y139758D01*
X87068Y139792D01*
X87235Y139817D01*
X87428Y139825D01*
X87436D01*
X87453D01*
X87486D01*
X87520D01*
X87621Y139817D01*
D02*
G37*
G36*
X88785Y135107D02*
X88894D01*
X89003Y135099D01*
X89238Y135090D01*
X89464Y135074D01*
X89573Y135057D01*
X89682Y135040D01*
X89774Y135023D01*
X89850Y135007D01*
X89858D01*
X89866Y134998D01*
X89908Y134990D01*
X89975Y134965D01*
X90059Y134940D01*
X90143Y134898D01*
X90227Y134856D01*
X90302Y134806D01*
X90361Y134755D01*
X90369Y134747D01*
X90386Y134730D01*
X90403Y134697D01*
X90428Y134655D01*
X90453Y134604D01*
X90478Y134546D01*
X90487Y134479D01*
X90495Y134403D01*
Y134370D01*
X90487Y134328D01*
X90478Y134286D01*
X90461Y134227D01*
X90436Y134169D01*
X90403Y134102D01*
X90361Y134043D01*
X90352Y134035D01*
X90336Y134018D01*
X90302Y133993D01*
X90260Y133959D01*
X90193Y133917D01*
X90118Y133884D01*
X90017Y133842D01*
X89900Y133808D01*
X89892D01*
X89883Y133800D01*
X89850D01*
X89816Y133792D01*
X89766Y133783D01*
X89707Y133775D01*
X89640Y133766D01*
X89556Y133758D01*
X89456Y133741D01*
X89355Y133733D01*
X89230Y133724D01*
X89104Y133716D01*
X88953Y133708D01*
X88802D01*
X88626Y133699D01*
X88442D01*
X88433D01*
X88400D01*
X88341D01*
X88274D01*
X88190D01*
X88098Y133708D01*
X87989D01*
X87880Y133716D01*
X87646Y133724D01*
X87411Y133741D01*
X87302Y133750D01*
X87202Y133766D01*
X87109Y133783D01*
X87026Y133800D01*
X87009Y133808D01*
X86967Y133817D01*
X86900Y133842D01*
X86825Y133867D01*
X86741Y133909D01*
X86657Y133951D01*
X86581Y134001D01*
X86523Y134051D01*
X86514Y134060D01*
X86506Y134076D01*
X86481Y134110D01*
X86464Y134152D01*
X86439Y134202D01*
X86414Y134261D01*
X86405Y134328D01*
X86397Y134403D01*
Y134437D01*
X86405Y134479D01*
X86414Y134521D01*
X86431Y134579D01*
X86447Y134638D01*
X86481Y134697D01*
X86523Y134755D01*
X86531Y134764D01*
X86548Y134780D01*
X86581Y134814D01*
X86632Y134847D01*
X86690Y134881D01*
X86774Y134923D01*
X86866Y134965D01*
X86984Y134998D01*
X86992D01*
X87001Y135007D01*
X87034D01*
X87068Y135015D01*
X87118Y135023D01*
X87176Y135032D01*
X87243Y135049D01*
X87327Y135057D01*
X87419Y135065D01*
X87528Y135082D01*
X87646Y135090D01*
X87780Y135099D01*
X87922Y135107D01*
X88082D01*
X88257Y135116D01*
X88442D01*
X88450D01*
X88484D01*
X88542D01*
X88609D01*
X88693D01*
X88785Y135107D01*
D02*
G37*
G36*
X95275Y133930D02*
X92736D01*
Y136218D01*
X95275D01*
Y133930D01*
D02*
G37*
G36*
X103993Y134952D02*
X104060Y134944D01*
X104136Y134919D01*
X104211Y134894D01*
X104295Y134852D01*
X104362Y134801D01*
X104370Y134793D01*
X104396Y134776D01*
X104421Y134734D01*
X104463Y134684D01*
X104505Y134625D01*
X104538Y134550D01*
X104572Y134458D01*
X104597Y134357D01*
Y134349D01*
X104605Y134324D01*
Y134273D01*
X104613Y134198D01*
Y134014D01*
X104622Y133938D01*
Y132597D01*
X103147D01*
Y133737D01*
X103155Y133905D01*
X103164Y134081D01*
X103172Y134257D01*
X103181Y134332D01*
X103189Y134399D01*
X103206Y134466D01*
X103214Y134508D01*
Y134516D01*
X103231Y134542D01*
X103248Y134583D01*
X103273Y134625D01*
X103348Y134734D01*
X103398Y134785D01*
X103457Y134835D01*
X103465Y134843D01*
X103491Y134852D01*
X103524Y134877D01*
X103574Y134902D01*
X103641Y134919D01*
X103717Y134944D01*
X103801Y134952D01*
X103893Y134961D01*
X103910D01*
X103943D01*
X103993Y134952D01*
D02*
G37*
G36*
X101060Y134391D02*
X101069Y134382D01*
X101094Y134374D01*
X101128Y134349D01*
X101169Y134315D01*
X101220Y134282D01*
X101287Y134240D01*
X101421Y134148D01*
X101572Y134039D01*
X101706Y133938D01*
X101831Y133846D01*
X101873Y133804D01*
X101915Y133771D01*
X101924Y133762D01*
X101940Y133746D01*
X101974Y133712D01*
X102016Y133670D01*
X102049Y133611D01*
X102091Y133553D01*
X102125Y133486D01*
X102158Y133419D01*
Y133410D01*
X102167Y133385D01*
X102183Y133343D01*
X102192Y133276D01*
X102208Y133192D01*
X102217Y133092D01*
X102225Y132975D01*
Y132597D01*
X99803D01*
Y135229D01*
X101060Y134391D01*
D02*
G37*
G36*
X110935Y126317D02*
X111028Y126308D01*
X111128Y126292D01*
X111246Y126258D01*
X111371Y126216D01*
X111488Y126149D01*
X111589Y126074D01*
X111597Y126065D01*
X111631Y126032D01*
X111673Y125981D01*
X111723Y125914D01*
X111765Y125831D01*
X111807Y125730D01*
X111840Y125621D01*
X111849Y125495D01*
Y125437D01*
X111832Y125370D01*
X111815Y125286D01*
X111782Y125194D01*
X111740Y125093D01*
X111673Y124993D01*
X111581Y124900D01*
X111572Y124892D01*
X111530Y124867D01*
X111472Y124825D01*
X111388Y124783D01*
X111287Y124733D01*
X111162Y124699D01*
X111019Y124674D01*
X110860Y124666D01*
Y126325D01*
X110868D01*
X110885D01*
X110902D01*
X110935Y126317D01*
D02*
G37*
G36*
X97294Y125969D02*
X92736Y124829D01*
Y125977D01*
X97294Y125969D01*
D02*
G37*
G36*
Y122558D02*
X92736D01*
Y123698D01*
X97294Y122558D01*
D02*
G37*
G36*
X108405Y108140D02*
X109033D01*
X109016Y108132D01*
X108975Y108098D01*
X108916Y108048D01*
X108840Y107973D01*
X108748Y107889D01*
X108664Y107780D01*
X108572Y107663D01*
X108497Y107529D01*
X108488Y107512D01*
X108472Y107462D01*
X108438Y107386D01*
X108405Y107286D01*
X108371Y107168D01*
X108338Y107034D01*
X108321Y106892D01*
X108312Y106741D01*
Y109171D01*
X108405D01*
Y108140D01*
D02*
G37*
D10*
X83465Y191732D02*
Y217717D01*
Y191732D02*
X109449D01*
Y217717D01*
X83465D02*
X109449D01*
M02*
