G04*
G04 #@! TF.GenerationSoftware,Altium Limited,Altium Designer,24.6.1 (21)*
G04*
G04 Layer_Color=65535*
%FSLAX25Y25*%
%MOIN*%
G70*
G04*
G04 #@! TF.SameCoordinates,82AAD4A9-244C-4A3F-97DA-24B785BF6BB8*
G04*
G04*
G04 #@! TF.FilePolarity,Positive*
G04*
G01*
G75*
%ADD10C,0.00787*%
%ADD11C,0.00500*%
%ADD12C,0.01000*%
%ADD13C,0.00800*%
%ADD14C,0.00013*%
%ADD15C,0.00591*%
G36*
X155235Y289372D02*
X155604Y289219D01*
X155920Y288976D01*
X155920Y288976D01*
X155921Y288976D01*
X156163Y288659D01*
X156316Y288291D01*
X156351Y288024D01*
X156368Y287895D01*
Y287761D01*
Y266925D01*
X156357Y266796D01*
X156357Y266796D01*
X156403Y266566D01*
X156533Y266371D01*
X156534Y266370D01*
X156728Y266241D01*
X156958Y266195D01*
X156961Y266196D01*
X157091Y266206D01*
X162998D01*
X163000Y266204D01*
Y266204D01*
X163000Y266204D01*
X163218Y266160D01*
X163405Y266035D01*
X163530Y265848D01*
X163549Y265752D01*
X163572Y265627D01*
X163573Y265622D01*
X163551Y265503D01*
X163530Y265396D01*
X163409Y265214D01*
X163305Y265142D01*
X163218Y265084D01*
X163000Y265040D01*
X163000D01*
X162998Y265038D01*
X156743D01*
Y265038D01*
X156350Y265090D01*
X155980Y265243D01*
X155663Y265487D01*
X155419Y265804D01*
X155266Y266174D01*
X155231Y266440D01*
X155214Y266570D01*
X155214Y266703D01*
Y287680D01*
X155225Y287680D01*
X155179Y287911D01*
X155048Y288107D01*
X154852Y288238D01*
X154624Y288283D01*
X154624Y288273D01*
X154624Y288273D01*
X137376D01*
X137376Y288273D01*
X137376Y288283D01*
X137148Y288238D01*
X136952Y288107D01*
X136821Y287911D01*
X136775Y287680D01*
X136775Y287680D01*
X136786Y287551D01*
Y266584D01*
X136786Y266584D01*
X136785Y266584D01*
X136786Y266570D01*
X136734Y266174D01*
X136581Y265804D01*
X136344Y265494D01*
X136243Y265414D01*
X136020Y265243D01*
X135651Y265090D01*
X135260Y265039D01*
X135259Y265038D01*
X120379D01*
Y265040D01*
X120158Y265084D01*
X120076Y265139D01*
X119971Y265209D01*
X119846Y265396D01*
X119802Y265616D01*
X119846Y265837D01*
X119901Y265919D01*
X119971Y266024D01*
X120158Y266149D01*
X120379Y266193D01*
Y266195D01*
X134910D01*
X135039Y266184D01*
X135042Y266184D01*
X135272Y266230D01*
X135467Y266360D01*
X135597Y266555D01*
X135643Y266785D01*
X135632D01*
Y287761D01*
X135632Y287895D01*
X135649Y288022D01*
X135684Y288291D01*
X135837Y288659D01*
X136080Y288976D01*
X136080Y288976D01*
X136080Y288976D01*
X136397Y289219D01*
X136766Y289372D01*
X137161Y289424D01*
X137161Y289424D01*
X154839D01*
X154839Y289424D01*
X155235Y289372D01*
D02*
G37*
G36*
X114097Y289424D02*
X130547D01*
X130549Y289413D01*
X130595Y289419D01*
X130784Y289394D01*
X130961Y289320D01*
X131113Y289204D01*
X131230Y289052D01*
X131303Y288875D01*
X131328Y288685D01*
X131303Y288495D01*
X131230Y288319D01*
X131152Y288217D01*
X131161Y288209D01*
X131161Y288209D01*
X114458Y265603D01*
X114440Y265600D01*
X114440D01*
X114320Y265444D01*
X114033Y265224D01*
X113699Y265085D01*
X113399Y265046D01*
X113399D01*
X113392Y265038D01*
X96333D01*
Y265038D01*
X95939Y265090D01*
X95569Y265243D01*
X95252Y265487D01*
X95008Y265804D01*
X94855Y266174D01*
X94820Y266440D01*
X94804Y266570D01*
X94804D01*
Y266703D01*
Y288731D01*
X94805D01*
X94849Y288952D01*
X94974Y289139D01*
X95079Y289209D01*
X95161Y289264D01*
X95253Y289282D01*
X95382Y289307D01*
Y289307D01*
X95600Y289264D01*
X95787Y289139D01*
X95912Y288952D01*
X95955Y288731D01*
X95957Y288731D01*
Y266928D01*
X95946Y266799D01*
Y266799D01*
X95992Y266569D01*
X96122Y266374D01*
X96123Y266373D01*
X96124D01*
X96317Y266243D01*
X96547Y266198D01*
X96550Y266198D01*
X96680Y266209D01*
X113400D01*
X113401Y266209D01*
X113445Y266218D01*
X113528Y266273D01*
X113528Y266273D01*
X113528Y266276D01*
X129499Y287918D01*
X129581Y288021D01*
X129622Y288120D01*
X129622Y288121D01*
X129571Y288243D01*
X129449Y288294D01*
X129448Y288293D01*
X129446Y288293D01*
X129316Y288281D01*
X114314D01*
Y288292D01*
X114083Y288246D01*
X113887Y288115D01*
X113756Y287919D01*
X113710Y287688D01*
X113721Y287677D01*
Y272665D01*
X113721Y272665D01*
X113719Y272665D01*
X113720Y272662D01*
X113676Y272443D01*
X113552Y272257D01*
X113365Y272132D01*
X113146Y272089D01*
Y272089D01*
X113020Y272114D01*
X112925Y272132D01*
X112738Y272257D01*
X112668Y272362D01*
X112613Y272445D01*
X112569Y272665D01*
X112568D01*
Y287895D01*
X112567Y287895D01*
X112619Y288291D01*
X112772Y288659D01*
X113015Y288976D01*
X113015Y288976D01*
X113016Y288976D01*
X113332Y289219D01*
X113701Y289372D01*
X114096Y289424D01*
X114097Y289424D01*
D02*
G37*
G36*
X116122Y257927D02*
X116922Y257791D01*
X117516Y257620D01*
X117526Y257625D01*
X118086Y257393D01*
X118617Y257067D01*
X119010Y256732D01*
X119104Y256639D01*
X119421Y256268D01*
X119733Y255759D01*
X119962Y255207D01*
X119992Y255081D01*
X119989Y255080D01*
X120098Y254698D01*
X120233Y253905D01*
X120278Y253101D01*
X120274Y253016D01*
X120279Y253016D01*
X120279Y253016D01*
Y244330D01*
X118900D01*
Y245768D01*
Y245892D01*
X118900Y246040D01*
X118898Y246045D01*
X118880Y246055D01*
X118766Y245951D01*
X118674Y245868D01*
X118624Y245823D01*
X117885Y245274D01*
X117488Y245037D01*
X117488D01*
X117374Y244966D01*
X116857Y244680D01*
X116293Y244447D01*
X116168Y244401D01*
X116044Y244359D01*
X115656Y244228D01*
X115014Y244100D01*
X114880Y244085D01*
X114536Y244034D01*
X113717Y243994D01*
X113584Y243991D01*
X113452Y243995D01*
X112893Y244031D01*
X112253Y244159D01*
X111945Y244263D01*
X111818Y244306D01*
X111419Y244472D01*
X110896Y244793D01*
X110636Y245015D01*
X110635Y245015D01*
X110473Y245153D01*
X110115Y245572D01*
X109827Y246042D01*
X109764Y246195D01*
X109764D01*
X109713Y246317D01*
X109611Y246563D01*
X109479Y247112D01*
X109442Y247591D01*
X109441Y247725D01*
X109441D01*
X109438Y247767D01*
X109435Y247858D01*
X109482Y248455D01*
X109629Y249065D01*
X109869Y249646D01*
X110197Y250181D01*
X110605Y250658D01*
X111082Y251066D01*
X111402Y251262D01*
X111511Y251335D01*
X111629Y251415D01*
X112141Y251667D01*
X112265Y251719D01*
X112627Y251869D01*
X112755Y251909D01*
X113075Y252024D01*
X113284Y252076D01*
Y252076D01*
X113285Y252077D01*
X113723Y252186D01*
X113854Y252213D01*
Y252213D01*
X114285Y252309D01*
X114462Y252332D01*
X114463Y252333D01*
X114978Y252401D01*
X115111Y252416D01*
X115243Y252432D01*
X115664Y252482D01*
X115666Y252482D01*
X115798Y252488D01*
X115931Y252497D01*
X116392Y252513D01*
X116526Y252518D01*
X116659Y252522D01*
X117282Y252543D01*
X117292Y252542D01*
Y252543D01*
X118884Y252543D01*
X118884D01*
X118884Y252543D01*
X118889Y252545D01*
X118889Y252546D01*
X118899Y252551D01*
X118902Y252624D01*
Y252624D01*
X118900Y252671D01*
X118858Y253631D01*
X118805Y254033D01*
X118790Y254166D01*
X118783Y254266D01*
X118775Y254299D01*
X118676Y254708D01*
X118502Y255128D01*
X118305Y255451D01*
X118222Y255551D01*
X118062Y255746D01*
X117684Y256056D01*
X117309Y256257D01*
X117253Y256287D01*
X117185Y256307D01*
X117185Y256307D01*
X117183Y256302D01*
X116769Y256443D01*
X116074Y256581D01*
X115367Y256627D01*
X115287Y256622D01*
X115154Y256623D01*
X115136Y256624D01*
X115022Y256618D01*
X114436Y256590D01*
X114303Y256581D01*
X114105Y256570D01*
Y256570D01*
X114076Y256567D01*
X113975Y256550D01*
X113800Y256520D01*
X113794Y256524D01*
X113626Y256490D01*
X113504Y256466D01*
X113504Y256466D01*
X113502Y256466D01*
X113379Y256441D01*
X113226Y256411D01*
X113220Y256400D01*
X113096Y256371D01*
X112993Y256346D01*
X112969Y256336D01*
X112970Y256335D01*
X112736Y256238D01*
Y256238D01*
X112515Y256146D01*
X112518Y256139D01*
X112317Y256032D01*
Y256032D01*
X112237Y255988D01*
X112206Y255963D01*
X111876Y255692D01*
X111579Y255330D01*
X111359Y254918D01*
X111223Y254470D01*
X111202Y254259D01*
X109953D01*
X109880Y254336D01*
X109866Y254393D01*
X109954Y254839D01*
X109980Y254965D01*
X110013Y255095D01*
X110080Y255292D01*
D01*
Y255292D01*
Y255292D01*
X110074Y255306D01*
X110145Y255477D01*
X110196Y255601D01*
X110196D01*
X110295Y255841D01*
X110581Y256307D01*
X110919Y256702D01*
X111233Y256970D01*
X111335Y257052D01*
X111444Y257120D01*
X111775Y257323D01*
X111899Y257375D01*
X112089Y257469D01*
X112198Y257510D01*
X112214Y257516D01*
X112339Y257559D01*
X112557Y257633D01*
X112557Y257633D01*
X112769Y257705D01*
X112924Y257736D01*
X113054Y257770D01*
X113318Y257815D01*
Y257815D01*
X113318Y257815D01*
X113603Y257863D01*
X113735Y257880D01*
X113995Y257919D01*
X114178Y257928D01*
X114179Y257928D01*
X114513Y257945D01*
X114646Y257951D01*
X115006Y257967D01*
X115140Y257963D01*
X115311Y257973D01*
X116122Y257927D01*
D02*
G37*
G36*
X107439Y257948D02*
X107452Y256685D01*
X107353Y256594D01*
X107178Y256611D01*
X107060Y256623D01*
X107045Y256622D01*
X106915Y256612D01*
X106671D01*
X106541Y256620D01*
X106536Y256620D01*
X106411Y256610D01*
X106090Y256585D01*
X105655Y256481D01*
X105392Y256372D01*
X105390Y256376D01*
X104890Y256130D01*
X104437Y255827D01*
X104349Y255768D01*
X104328Y255750D01*
X104236Y255679D01*
X103684Y255187D01*
X103488Y254966D01*
X103399Y254867D01*
X103399Y254867D01*
X103398Y254867D01*
X103310Y254767D01*
X103139Y254576D01*
X102716Y253979D01*
X102699Y253956D01*
X102649Y253865D01*
X102653Y253862D01*
X102652Y253858D01*
Y244330D01*
X101272D01*
Y257629D01*
X102652D01*
Y256091D01*
X102652Y255968D01*
Y255807D01*
X102651Y255806D01*
X102652Y255802D01*
Y255799D01*
X102654Y255794D01*
X102659Y255792D01*
X102659Y255792D01*
X102672Y255789D01*
X102786Y255917D01*
X102868Y256009D01*
X103099Y256267D01*
X103698Y256803D01*
X103837Y256901D01*
X103944Y256982D01*
X104468Y257331D01*
X104950Y257570D01*
X104950Y257570D01*
X105377Y257746D01*
X105988Y257893D01*
X105993Y257889D01*
X106146Y257920D01*
X106909Y257970D01*
X106909D01*
X106911Y257972D01*
X107167D01*
X107439Y257948D01*
D02*
G37*
G36*
X175569Y257925D02*
X176173Y257780D01*
X176748Y257542D01*
X176926Y257433D01*
X177040Y257363D01*
X177152Y257291D01*
X177523Y256974D01*
X177868Y256571D01*
X178146Y256118D01*
X178332Y255667D01*
X178337Y255656D01*
X178349Y255624D01*
X178371Y255535D01*
X178401Y255529D01*
X178548Y255750D01*
X179083Y256360D01*
X179496Y256722D01*
X179496Y256723D01*
X179637Y256847D01*
X180256Y257260D01*
X180672Y257466D01*
X180672Y257467D01*
X180849Y257554D01*
X181494Y257773D01*
X181872Y257848D01*
X181873Y257849D01*
X182343Y257929D01*
X182914Y257961D01*
X183045Y257968D01*
Y257968D01*
X183048Y257969D01*
X183178Y257967D01*
X183781Y257920D01*
X184260Y257805D01*
X184384Y257775D01*
X184505Y257726D01*
X184822Y257595D01*
X184937Y257527D01*
X184937D01*
X185227Y257350D01*
X185587Y257042D01*
X185895Y256682D01*
X186100Y256347D01*
X186158Y256227D01*
X186308Y255923D01*
X186417Y255600D01*
X186417Y255600D01*
X186417Y255600D01*
X186517Y255307D01*
X186577Y255006D01*
X186603Y254876D01*
X186626Y254745D01*
X186703Y254293D01*
X186716Y254055D01*
X186726Y253922D01*
X186763Y253165D01*
X186762Y253136D01*
X186763Y253136D01*
X186779Y244424D01*
X186685Y244330D01*
X185400D01*
Y252887D01*
X185411Y253016D01*
X185412Y253036D01*
X185406Y253148D01*
X185378Y253737D01*
X185369Y253870D01*
X185358Y254066D01*
X185334Y254195D01*
X185327Y254240D01*
X185308Y254373D01*
X185308D01*
X185251Y254658D01*
X185225Y254788D01*
X185208Y254871D01*
X185190Y254924D01*
X185159Y255043D01*
X185156Y255052D01*
X185156Y255052D01*
X185153Y255064D01*
X185111Y255167D01*
X185110Y255167D01*
X185018Y255388D01*
X185022Y255389D01*
X184916Y255588D01*
X184916D01*
X184916Y255588D01*
X184843Y255725D01*
X184806Y255770D01*
X184806Y255769D01*
X184804Y255769D01*
X184628Y255984D01*
X184465Y256118D01*
X184461Y256120D01*
X184458Y256123D01*
X184369Y256197D01*
X184361Y256202D01*
Y256202D01*
X184288Y256242D01*
X184173Y256303D01*
X184173Y256303D01*
X184171Y256304D01*
X184171D01*
X184007Y256392D01*
X183971Y256404D01*
X183872Y256434D01*
X183747Y256472D01*
X183748Y256475D01*
X183509Y256532D01*
X183509Y256533D01*
X183385Y256562D01*
X183364Y256567D01*
X183253Y256577D01*
Y256577D01*
X182980Y256598D01*
X182847Y256606D01*
X182695Y256616D01*
X182691Y256616D01*
Y256616D01*
X182564Y256605D01*
X182122Y256570D01*
X181519Y256425D01*
X180946Y256188D01*
X180527Y255931D01*
X180524Y255934D01*
X179872Y255450D01*
X179236Y254873D01*
X178659Y254237D01*
X178491Y254011D01*
X178492Y254010D01*
X178490Y254006D01*
Y244324D01*
X177111D01*
Y252884D01*
X177116Y253016D01*
X177122Y253134D01*
X177121Y253148D01*
X177078Y254012D01*
X176984Y254649D01*
X176987Y254649D01*
X176977Y254753D01*
X176968Y254781D01*
X176819Y255274D01*
X176614Y255657D01*
X176562Y255754D01*
X176546Y255773D01*
X176546Y255773D01*
X176540Y255768D01*
X176358Y255990D01*
X176078Y256219D01*
X175822Y256357D01*
X175759Y256390D01*
X175699Y256408D01*
X175576Y256458D01*
X175570Y256460D01*
X175061Y256582D01*
X174574Y256620D01*
X174539Y256623D01*
X174440Y256620D01*
Y256620D01*
X173901Y256578D01*
X173345Y256445D01*
X172817Y256226D01*
X172351Y255940D01*
X172356Y255933D01*
X171859Y255565D01*
X171150Y254922D01*
X170508Y254214D01*
X170362Y254017D01*
X170364Y254016D01*
X170362Y254012D01*
Y254012D01*
Y244330D01*
X168983D01*
Y257629D01*
X170362D01*
Y255947D01*
X170362Y255824D01*
Y255660D01*
X170364Y255654D01*
X170365Y255654D01*
X170370Y255652D01*
X170370Y255652D01*
X170370Y255652D01*
X170383Y255648D01*
X170496Y255772D01*
X170496D01*
X170579Y255864D01*
X170802Y256110D01*
X171450Y256697D01*
X171689Y256874D01*
Y256874D01*
X171691Y256889D01*
X172335Y257318D01*
X172844Y257570D01*
X172845Y257570D01*
X172845D01*
X173277Y257749D01*
X173871Y257891D01*
X173880Y257885D01*
D01*
X173880Y257885D01*
X173880Y257885D01*
X174146Y257930D01*
X174686Y257960D01*
X174820Y257963D01*
Y257963D01*
X174950Y257974D01*
X175569Y257925D01*
D02*
G37*
G36*
X145577Y257965D02*
X145710Y257967D01*
X146359Y257930D01*
X147051Y257813D01*
X147727Y257618D01*
X148050Y257484D01*
X148062Y257488D01*
X148623Y257211D01*
X149178Y256840D01*
X149680Y256400D01*
X149931Y256115D01*
X149931Y256115D01*
X150139Y255877D01*
X150592Y255201D01*
X150952Y254471D01*
X151136Y253928D01*
X151136Y253928D01*
X151136D01*
X151143Y253924D01*
X151366Y253033D01*
X151517Y252013D01*
X151568Y250984D01*
X151517Y249954D01*
X151366Y248934D01*
X151143Y248044D01*
X151135Y248039D01*
X151135D01*
X151068Y247807D01*
X150797Y247152D01*
X150454Y246533D01*
X150045Y245955D01*
X149938Y245836D01*
X149936Y245838D01*
X149692Y245560D01*
X149186Y245116D01*
X148626Y244742D01*
X148063Y244465D01*
X148054Y244468D01*
X147813Y244369D01*
X147092Y244161D01*
X146354Y244036D01*
X145606Y243994D01*
X144857Y244036D01*
X144119Y244161D01*
X143399Y244369D01*
X143157Y244468D01*
X143146Y244464D01*
X142577Y244745D01*
X142032Y245109D01*
X141540Y245541D01*
X141286Y245830D01*
X141285Y245828D01*
X141167Y245959D01*
X140753Y246543D01*
X140408Y247169D01*
X140134Y247829D01*
X140076Y248031D01*
X140067Y248036D01*
X139839Y248946D01*
X139688Y249964D01*
X139638Y250992D01*
X139688Y252020D01*
X139839Y253038D01*
X140067Y253949D01*
X140075Y253953D01*
Y253954D01*
X140261Y254499D01*
X140619Y255226D01*
X141069Y255900D01*
X141278Y256137D01*
X141278Y256137D01*
X141515Y256407D01*
X142018Y256849D01*
X142576Y257221D01*
X143155Y257507D01*
X143155Y257507D01*
Y257507D01*
X143156Y257510D01*
X143899Y257762D01*
X144694Y257920D01*
X145443Y257969D01*
X145577Y257965D01*
D02*
G37*
G36*
X83184Y252205D02*
X83184Y252205D01*
X83178Y252205D01*
X83185Y252019D01*
X83134Y250726D01*
X82982Y249441D01*
X82843Y248740D01*
X82844Y248740D01*
X82809Y248531D01*
X82612Y247849D01*
X82341Y247194D01*
X81998Y246573D01*
X81705Y246160D01*
X81705D01*
X81705Y246160D01*
X81705Y246154D01*
X81324Y245719D01*
X80825Y245281D01*
X80272Y244912D01*
X79676Y244618D01*
X79488Y244554D01*
X79488Y244556D01*
X79056Y244402D01*
X78132Y244170D01*
X77189Y244030D01*
X76237Y243984D01*
X75948Y243998D01*
X75947Y243995D01*
X75741Y243985D01*
X74718Y244035D01*
X73706Y244185D01*
X73053Y244349D01*
X73039Y244342D01*
X72298Y244593D01*
X71576Y244949D01*
X71165Y245224D01*
X71055Y245297D01*
X71055D01*
X70947Y245376D01*
X70526Y245746D01*
X70120Y246209D01*
X69797Y246693D01*
X69799Y246702D01*
Y246702D01*
X69799D01*
X69540Y247170D01*
X69239Y247897D01*
X69090Y248414D01*
X69090Y248415D01*
X69090D01*
X69090Y248415D01*
X68945Y248994D01*
X68805Y249941D01*
X68787Y250302D01*
X68774Y250313D01*
X68745Y250875D01*
X68753Y250884D01*
X68753D01*
X68753Y250884D01*
X68740Y251324D01*
X68737Y251457D01*
X68737D01*
X68720Y252022D01*
X68714Y252027D01*
X68714Y252208D01*
Y263128D01*
X70093D01*
Y252262D01*
X70092Y252261D01*
X70092D01*
X70092Y252261D01*
X70077Y251933D01*
X70127Y250805D01*
X70274Y249686D01*
X70479Y248761D01*
X70479Y248761D01*
X70494Y248685D01*
X70512Y248632D01*
X70697Y248087D01*
X70976Y247521D01*
X71326Y246996D01*
X71628Y246653D01*
X71621Y246646D01*
X72087Y246247D01*
X72612Y245926D01*
X73181Y245690D01*
X73340Y245652D01*
X73470Y245620D01*
X73845Y245526D01*
X74842Y245378D01*
X75848Y245329D01*
X75956Y245334D01*
X76055Y245329D01*
X76089Y245330D01*
X77090Y245379D01*
X78115Y245532D01*
X78467Y245620D01*
X78467Y245621D01*
X78467Y245621D01*
X78774Y245695D01*
X79322Y245921D01*
X79827Y246231D01*
X80217Y246564D01*
X80278Y246616D01*
X80313Y246657D01*
X80308Y246662D01*
X80308Y246663D01*
X80308Y246663D01*
X80394Y246761D01*
X80561Y246951D01*
X80919Y247486D01*
X81204Y248064D01*
X81399Y248640D01*
X81411Y248674D01*
X81430Y248770D01*
X81428Y248770D01*
X81622Y249641D01*
X81771Y250776D01*
X81821Y251920D01*
X81806Y252261D01*
Y252261D01*
X81805Y252262D01*
Y263128D01*
X83184D01*
Y252205D01*
D02*
G37*
G36*
X156312Y255947D02*
X156312Y255823D01*
Y255823D01*
X156312Y255660D01*
X156314Y255654D01*
X156319Y255652D01*
X156320Y255652D01*
X156334Y255647D01*
X156446Y255772D01*
X156528Y255865D01*
X156734Y256094D01*
X157438Y256723D01*
X157617Y256851D01*
X157619Y256857D01*
X158179Y257232D01*
X158725Y257501D01*
X158844Y257557D01*
X158969Y257602D01*
X159483Y257776D01*
X159855Y257850D01*
X159987Y257873D01*
X160315Y257929D01*
X160880Y257961D01*
X161012Y257967D01*
Y257967D01*
X161032Y257968D01*
X161145Y257967D01*
X161772Y257926D01*
X162370Y257807D01*
X162498Y257770D01*
X162626Y257737D01*
X163119Y257533D01*
Y257533D01*
X163119Y257533D01*
X163120Y257534D01*
X163561Y257264D01*
X163959Y256924D01*
X164299Y256525D01*
X164573Y256079D01*
X164719Y255726D01*
X164762Y255600D01*
X164911Y255162D01*
X164968Y254876D01*
X164995Y254745D01*
X165088Y254201D01*
X165096Y254055D01*
X165096D01*
X165107Y253922D01*
X165144Y253159D01*
X165143Y253136D01*
X165146Y253136D01*
X165146Y253136D01*
Y244330D01*
X163766D01*
Y252884D01*
X163771Y253016D01*
X163777Y253114D01*
X163775Y253149D01*
X163733Y253896D01*
X163609Y254626D01*
X163609Y254626D01*
X163470Y255084D01*
X163220Y255552D01*
X163148Y255639D01*
X163064Y255742D01*
X163065Y255743D01*
X162965Y255864D01*
X162621Y256146D01*
X162229Y256356D01*
X162219Y256359D01*
X162094Y256408D01*
X162079Y256414D01*
X161965Y256442D01*
X161418Y256573D01*
X160757Y256625D01*
X160740Y256626D01*
X160625Y256622D01*
Y256622D01*
X160020Y256574D01*
X159406Y256427D01*
X158823Y256185D01*
X158428Y255943D01*
X158423Y255951D01*
X158407Y255941D01*
X158314Y255872D01*
X157606Y255347D01*
X156867Y254677D01*
X156302Y254053D01*
X156306Y254050D01*
X156304Y254045D01*
Y244330D01*
X154924D01*
Y263128D01*
X156304D01*
X156312Y255947D01*
D02*
G37*
G36*
X137098Y261297D02*
X124453Y245919D01*
X124374Y245824D01*
Y245824D01*
X124274Y245702D01*
X124273Y245699D01*
X124272Y245697D01*
X124272Y245697D01*
X124272Y245696D01*
X124272Y245696D01*
X124273Y245694D01*
X124274Y245692D01*
X124275Y245692D01*
X124275Y245691D01*
X124275Y245691D01*
X124277Y245691D01*
X124279Y245690D01*
X124437D01*
X124561Y245690D01*
X137455D01*
Y244330D01*
X122881D01*
Y246141D01*
X135505Y261535D01*
X135583Y261631D01*
X135684Y261753D01*
X135684Y261755D01*
X135685Y261757D01*
X135685Y261758D01*
X135685Y261758D01*
X135684Y261760D01*
X135683Y261763D01*
X135683Y261763D01*
X135682Y261763D01*
X135682Y261763D01*
X135680Y261764D01*
X135678Y261765D01*
X124008D01*
Y263128D01*
X137098D01*
Y261297D01*
D02*
G37*
G36*
X89419Y244330D02*
X88039D01*
Y263128D01*
X89419D01*
Y244330D01*
D02*
G37*
G36*
X95762Y257639D02*
X95764Y257634D01*
X95769Y257632D01*
X97962D01*
Y256272D01*
X95769D01*
X95764Y256270D01*
X95762Y256265D01*
Y248007D01*
X95758Y248003D01*
X95758D01*
X95758Y248003D01*
X95749Y247868D01*
X95798Y247125D01*
X95885Y246685D01*
X95878Y246684D01*
X95974Y246365D01*
X96132Y246069D01*
X96249Y245928D01*
X96249Y245927D01*
X96249Y245927D01*
X96249Y245926D01*
X96247Y245925D01*
X96286Y245874D01*
X96341Y245832D01*
X96515Y245698D01*
X96722Y245613D01*
X96782Y245588D01*
X96849Y245579D01*
X96978Y245549D01*
X97026Y245538D01*
X97523Y245499D01*
X97611Y245492D01*
X97657Y245495D01*
X97789Y245503D01*
X97986D01*
X98043Y245503D01*
X98073Y245503D01*
X98073Y245503D01*
X98103Y245504D01*
X98103Y245504D01*
X98162Y245505D01*
X98167Y245505D01*
X98240Y245454D01*
X98291Y245388D01*
X98288Y244209D01*
X98119Y244191D01*
X98001Y244180D01*
X97883Y244170D01*
X97840Y244167D01*
X97706Y244169D01*
X97530Y244158D01*
X97530Y244158D01*
X97397Y244143D01*
X97354Y244142D01*
X97354D01*
X97295Y244141D01*
X97246Y244141D01*
X97118Y244150D01*
X96979Y244139D01*
X96434Y244182D01*
X95902Y244310D01*
X95679Y244402D01*
X95671Y244399D01*
X95392Y244548D01*
X95129Y244764D01*
X94912Y245028D01*
X94852Y245141D01*
X94852D01*
X94787Y245257D01*
X94616Y245668D01*
X94499Y246158D01*
X94481Y246376D01*
X94481Y246377D01*
X94430Y246806D01*
X94383Y247997D01*
X94388Y248120D01*
X94383Y248120D01*
X94383Y248120D01*
Y256262D01*
X94380Y256267D01*
X94375Y256269D01*
X92668D01*
Y257629D01*
X94375D01*
X94380Y257631D01*
X94383Y257636D01*
Y261120D01*
X95762D01*
Y257639D01*
D02*
G37*
G36*
X105248Y63779D02*
X103543Y62795D01*
Y64764D01*
X105248Y63779D01*
D02*
G37*
G36*
Y43701D02*
X103543Y42717D01*
Y44685D01*
X105248Y43701D01*
D02*
G37*
%LPC*%
G36*
X116769Y251194D02*
X116666Y251191D01*
X115652Y251154D01*
X115519Y251147D01*
X115428Y251143D01*
X115129Y251108D01*
X115125Y251111D01*
Y251111D01*
X114630Y251046D01*
X114630Y251045D01*
X114630Y251045D01*
X114163Y250976D01*
X114157Y250968D01*
X113858Y250918D01*
X113728Y250880D01*
X113728Y250879D01*
X113325Y250763D01*
X113325Y250764D01*
X112951Y250637D01*
X112950Y250636D01*
X112824Y250593D01*
X112729Y250546D01*
X112608Y250491D01*
X112488Y250441D01*
X112297Y250324D01*
X112297Y250323D01*
X112009Y250169D01*
X111597Y249831D01*
X111258Y249419D01*
X111007Y248949D01*
X110853Y248439D01*
X110809Y247994D01*
X110800Y247909D01*
X110805Y247860D01*
X110802Y247782D01*
X110843Y247362D01*
X110966Y246959D01*
X111164Y246587D01*
X111432Y246262D01*
X111748Y246002D01*
X111750Y246004D01*
X112119Y245779D01*
X112377Y245671D01*
Y245671D01*
X112378Y245671D01*
X112621Y245570D01*
X112857Y245514D01*
X112862Y245506D01*
X112996Y245479D01*
X113127Y245453D01*
X113127Y245453D01*
Y245453D01*
X113128Y245452D01*
X113129Y245453D01*
X113258Y245427D01*
X113403Y245398D01*
X113403Y245397D01*
X113445Y245389D01*
X113563Y245381D01*
X113696Y245371D01*
X114001Y245353D01*
Y245353D01*
X114133Y245346D01*
X114316Y245336D01*
X114320Y245336D01*
X114339Y245338D01*
X114916Y245376D01*
X115483Y245489D01*
X115697Y245561D01*
X115700Y245560D01*
X115700D01*
Y245560D01*
X115868Y245608D01*
X116530Y245882D01*
X116959Y246119D01*
X116959Y246119D01*
X117189Y246246D01*
X117871Y246731D01*
X118040Y246881D01*
X118045Y246881D01*
X118653Y247433D01*
X118898Y247702D01*
X118898Y247703D01*
X118900Y247707D01*
Y251176D01*
X118898Y251181D01*
X118893Y251183D01*
X116928D01*
X116799Y251193D01*
X116769Y251194D01*
D02*
G37*
G36*
X145568Y256622D02*
X144892Y256578D01*
X144228Y256446D01*
X143693Y256264D01*
X143694Y256260D01*
X143417Y256145D01*
X142897Y255826D01*
X142433Y255430D01*
X142332Y255311D01*
X142331Y255310D01*
X142244Y255210D01*
X142102Y255048D01*
X141754Y254527D01*
X141477Y253965D01*
X141304Y253457D01*
X141307Y253456D01*
X141149Y252822D01*
X141014Y251914D01*
X140969Y250997D01*
X141014Y250081D01*
X141149Y249173D01*
X141307Y248539D01*
X141304Y248538D01*
X141482Y248015D01*
X141768Y247435D01*
X142128Y246897D01*
X142243Y246765D01*
X142244Y246766D01*
X142245Y246765D01*
X142245Y246765D01*
X142463Y246511D01*
X142918Y246122D01*
X143427Y245810D01*
X143694Y245699D01*
X143692Y245692D01*
X144252Y245502D01*
X144874Y245378D01*
X145507Y245337D01*
X145576Y245341D01*
X145638Y245337D01*
X145709Y245341D01*
X146265Y245378D01*
X146881Y245500D01*
X147444Y245692D01*
X147441Y245699D01*
X147708Y245810D01*
X148218Y246122D01*
X148673Y246511D01*
X148890Y246765D01*
X148891Y246765D01*
X148893Y246765D01*
X149012Y246901D01*
X149378Y247448D01*
X149669Y248039D01*
X149796Y248414D01*
X149839Y248538D01*
X150012Y249231D01*
X150143Y250110D01*
X150186Y250997D01*
X150143Y251885D01*
X150012Y252765D01*
X149839Y253457D01*
X149838Y253457D01*
X149674Y253941D01*
X149392Y254514D01*
X149037Y255045D01*
X148892Y255210D01*
Y255210D01*
X148892D01*
X148805Y255311D01*
X148703Y255430D01*
X148239Y255826D01*
X147719Y256145D01*
X147441Y256260D01*
X147443Y256264D01*
X146908Y256446D01*
X146244Y256578D01*
X145568Y256622D01*
D02*
G37*
G36*
X143157Y244468D02*
X143157D01*
D01*
X143157D01*
D02*
G37*
G36*
X148054D02*
X148054D01*
X148054D01*
D01*
D02*
G37*
%LPD*%
D10*
X148161Y195630D02*
G03*
X148161Y195630I-394J0D01*
G01*
X156693Y57874D02*
Y66535D01*
X147638Y57874D02*
Y59055D01*
Y57874D02*
X165748D01*
Y59055D01*
Y65354D02*
Y66535D01*
X147638D02*
X165748D01*
X147638Y65354D02*
Y66535D01*
X40945Y290945D02*
Y299606D01*
X50000Y298425D02*
Y299606D01*
X31890D02*
X50000D01*
X31890Y298425D02*
Y299606D01*
Y290945D02*
Y292126D01*
Y290945D02*
X50000D01*
Y292126D01*
X38976Y281102D02*
X42913D01*
X38976Y288189D02*
X42913D01*
X84842Y157283D02*
Y157677D01*
X87598Y157283D02*
Y157677D01*
X79331Y157283D02*
Y157677D01*
X82087Y157283D02*
Y157677D01*
X100591Y172638D02*
X100984D01*
X100591Y175394D02*
X100984D01*
X100591Y135630D02*
X100984D01*
X100591Y138386D02*
X100984D01*
X154724Y76378D02*
X158661D01*
X154724Y69291D02*
X158661D01*
X118307Y154134D02*
X118701D01*
X118307Y156890D02*
X118701D01*
X68996Y155709D02*
Y156102D01*
X74311Y155709D02*
Y156102D01*
X66339Y37323D02*
X75394D01*
X66339Y50079D02*
X75394D01*
X66339Y57402D02*
X75394D01*
X66339Y70157D02*
X75394D01*
D11*
X110107Y40589D02*
G03*
X110081Y40701I224J112D01*
G01*
X110107Y60668D02*
G03*
X110081Y60780I224J112D01*
G01*
X150866Y80335D02*
Y234626D01*
Y80335D02*
X208347D01*
X150866Y234626D02*
X208347D01*
Y80335D02*
Y234626D01*
D12*
X108768Y157854D02*
G03*
X108768Y157854I-500J0D01*
G01*
X-9504Y123819D02*
X22496D01*
Y118319D02*
Y123819D01*
Y118319D02*
X40945D01*
X22441Y33661D02*
Y39161D01*
X-9504Y33661D02*
X22441D01*
X40945Y39161D02*
Y118319D01*
X22441Y39161D02*
X40945D01*
X119172Y40764D02*
X115173D01*
X119172Y44763D01*
Y45762D01*
X118172Y46762D01*
X116173D01*
X115173Y45762D01*
X124170Y40764D02*
Y46762D01*
X121171Y43763D01*
X125170D01*
X127169Y46762D02*
Y42763D01*
X129169Y40764D01*
X131168Y42763D01*
Y46762D01*
X119172Y66841D02*
X115173D01*
Y63841D01*
X117173Y64841D01*
X118172D01*
X119172Y63841D01*
Y61842D01*
X118172Y60843D01*
X116173D01*
X115173Y61842D01*
X121171Y66841D02*
Y62842D01*
X123171Y60843D01*
X125170Y62842D01*
Y66841D01*
X55119Y277952D02*
X58268Y273229D01*
Y277952D02*
X55119Y273229D01*
X62991D02*
X59842D01*
X62991Y276378D01*
Y277165D01*
X62204Y277952D01*
X60629D01*
X59842Y277165D01*
X167718Y59843D02*
Y64566D01*
X170080D01*
X170867Y63779D01*
Y62205D01*
X170080Y61418D01*
X167718D01*
X169293D02*
X170867Y59843D01*
X172441D02*
X174016D01*
X173229D01*
Y64566D01*
X172441Y63779D01*
X179526Y59843D02*
X176377D01*
X179526Y62992D01*
Y63779D01*
X178738Y64566D01*
X177164D01*
X176377Y63779D01*
X170866Y74409D02*
X170079Y75196D01*
X168505D01*
X167718Y74409D01*
Y71260D01*
X168505Y70473D01*
X170079D01*
X170866Y71260D01*
X172441Y74409D02*
X173228Y75196D01*
X174802D01*
X175589Y74409D01*
Y73622D01*
X174802Y72835D01*
X175589Y72048D01*
Y71260D01*
X174802Y70473D01*
X173228D01*
X172441Y71260D01*
Y72048D01*
X173228Y72835D01*
X172441Y73622D01*
Y74409D01*
X173228Y72835D02*
X174802D01*
X58268Y286220D02*
X57481Y287007D01*
X55906D01*
X55119Y286220D01*
Y283071D01*
X55906Y282284D01*
X57481D01*
X58268Y283071D01*
X59842Y286220D02*
X60629Y287007D01*
X62204D01*
X62991Y286220D01*
Y285433D01*
X62204Y284646D01*
X61417D01*
X62204D01*
X62991Y283858D01*
Y283071D01*
X62204Y282284D01*
X60629D01*
X59842Y283071D01*
X78741Y170867D02*
Y175590D01*
X81103D01*
X81890Y174803D01*
Y173228D01*
X81103Y172441D01*
X78741D01*
X80316D02*
X81890Y170867D01*
X85826D02*
Y175590D01*
X83464Y173228D01*
X86613D01*
X96852Y111812D02*
Y116535D01*
X99213D01*
X100000Y115747D01*
Y114173D01*
X99213Y113386D01*
X96852D01*
X98426D02*
X100000Y111812D01*
X101575Y116535D02*
X104723D01*
Y115747D01*
X101575Y112599D01*
Y111812D01*
X126380Y135828D02*
Y140550D01*
X128741D01*
X129528Y139763D01*
Y138189D01*
X128741Y137402D01*
X126380D01*
X127954D02*
X129528Y135828D01*
X131103D02*
X132677D01*
X131890D01*
Y140550D01*
X131103Y139763D01*
X135038Y135828D02*
X136612D01*
X135825D01*
Y140550D01*
X135038Y139763D01*
X78741Y135828D02*
Y140550D01*
X81103D01*
X81890Y139763D01*
Y138189D01*
X81103Y137402D01*
X78741D01*
X80316D02*
X81890Y135828D01*
X86613Y140550D02*
X83464D01*
Y138189D01*
X85039Y138976D01*
X85826D01*
X86613Y138189D01*
Y136615D01*
X85826Y135828D01*
X84251D01*
X83464Y136615D01*
X114174Y135828D02*
Y140550D01*
X116536D01*
X117323Y139763D01*
Y138189D01*
X116536Y137402D01*
X114174D01*
X115749D02*
X117323Y135828D01*
X118897Y136615D02*
X119685Y135828D01*
X121259D01*
X122046Y136615D01*
Y139763D01*
X121259Y140550D01*
X119685D01*
X118897Y139763D01*
Y138976D01*
X119685Y138189D01*
X122046D01*
X125593Y170867D02*
Y175590D01*
X127954D01*
X128741Y174803D01*
Y173228D01*
X127954Y172441D01*
X125593D01*
X127167D02*
X128741Y170867D01*
X130315D02*
X131890D01*
X131103D01*
Y175590D01*
X130315Y174803D01*
X134251D02*
X135038Y175590D01*
X136612D01*
X137400Y174803D01*
Y171654D01*
X136612Y170867D01*
X135038D01*
X134251Y171654D01*
Y174803D01*
X114174Y170867D02*
Y175590D01*
X116536D01*
X117323Y174803D01*
Y173228D01*
X116536Y172441D01*
X114174D01*
X115749D02*
X117323Y170867D01*
X118897Y174803D02*
X119685Y175590D01*
X121259D01*
X122046Y174803D01*
Y174015D01*
X121259Y173228D01*
X122046Y172441D01*
Y171654D01*
X121259Y170867D01*
X119685D01*
X118897Y171654D01*
Y172441D01*
X119685Y173228D01*
X118897Y174015D01*
Y174803D01*
X119685Y173228D02*
X121259D01*
X96852Y194489D02*
Y199212D01*
X99213D01*
X100000Y198425D01*
Y196850D01*
X99213Y196063D01*
X96852D01*
X98426D02*
X100000Y194489D01*
X104723Y199212D02*
X103149Y198425D01*
X101575Y196850D01*
Y195276D01*
X102362Y194489D01*
X103936D01*
X104723Y195276D01*
Y196063D01*
X103936Y196850D01*
X101575D01*
X70577Y171585D02*
X69790Y172372D01*
X68215D01*
X67428Y171585D01*
Y168436D01*
X68215Y167649D01*
X69790D01*
X70577Y168436D01*
X74512Y167649D02*
Y172372D01*
X72151Y170010D01*
X75300D01*
X86128Y70473D02*
Y75196D01*
X88490D01*
X89277Y74409D01*
Y72835D01*
X88490Y72048D01*
X86128D01*
X87702D02*
X89277Y70473D01*
X94000D02*
X90851D01*
X94000Y73622D01*
Y74409D01*
X93212Y75196D01*
X91638D01*
X90851Y74409D01*
X100395Y75196D02*
Y70473D01*
X102756D01*
X103544Y71260D01*
Y74409D01*
X102756Y75196D01*
X100395D01*
X108266Y70473D02*
X105118D01*
X108266Y73622D01*
Y74409D01*
X107479Y75196D01*
X105905D01*
X105118Y74409D01*
X55119Y292914D02*
Y297637D01*
X57481D01*
X58268Y296850D01*
Y295276D01*
X57481Y294488D01*
X55119D01*
X56694D02*
X58268Y292914D01*
X59842Y296850D02*
X60629Y297637D01*
X62204D01*
X62991Y296850D01*
Y296063D01*
X62204Y295276D01*
X61417D01*
X62204D01*
X62991Y294488D01*
Y293701D01*
X62204Y292914D01*
X60629D01*
X59842Y293701D01*
X129134Y157086D02*
X128347Y157873D01*
X126773D01*
X125986Y157086D01*
Y153937D01*
X126773Y153150D01*
X128347D01*
X129134Y153937D01*
X130708Y157873D02*
X133857D01*
Y157086D01*
X130708Y153937D01*
Y153150D01*
X100000Y123621D02*
X99213Y124409D01*
X97639D01*
X96852Y123621D01*
Y120473D01*
X97639Y119686D01*
X99213D01*
X100000Y120473D01*
X104723Y124409D02*
X101575D01*
Y122047D01*
X103149Y122834D01*
X103936D01*
X104723Y122047D01*
Y120473D01*
X103936Y119686D01*
X102362D01*
X101575Y120473D01*
X100000Y190551D02*
X99213Y191338D01*
X97639D01*
X96852Y190551D01*
Y187402D01*
X97639Y186615D01*
X99213D01*
X100000Y187402D01*
X104723Y191338D02*
X103149Y190551D01*
X101575Y188976D01*
Y187402D01*
X102362Y186615D01*
X103936D01*
X104723Y187402D01*
Y188189D01*
X103936Y188976D01*
X101575D01*
X86221Y132283D02*
X85434Y133070D01*
X83859D01*
X83072Y132283D01*
Y129134D01*
X83859Y128347D01*
X85434D01*
X86221Y129134D01*
X90944Y128347D02*
X87795D01*
X90944Y131496D01*
Y132283D01*
X90157Y133070D01*
X88582D01*
X87795Y132283D01*
X77559D02*
X76772Y133070D01*
X75198D01*
X74410Y132283D01*
Y129134D01*
X75198Y128347D01*
X76772D01*
X77559Y129134D01*
X79133Y128347D02*
X80708D01*
X79921D01*
Y133070D01*
X79133Y132283D01*
X47245Y112598D02*
X50394Y107875D01*
Y112598D02*
X47245Y107875D01*
X51968Y111811D02*
X52755Y112598D01*
X54330D01*
X55117Y111811D01*
Y111023D01*
X54330Y110236D01*
X53543D01*
X54330D01*
X55117Y109449D01*
Y108662D01*
X54330Y107875D01*
X52755D01*
X51968Y108662D01*
X140946Y233464D02*
X144095Y228741D01*
Y233464D02*
X140946Y228741D01*
X145669D02*
X147243D01*
X146456D01*
Y233464D01*
X145669Y232677D01*
X87009Y50394D02*
Y55117D01*
X89370D01*
X90158Y54330D01*
Y52756D01*
X89370Y51969D01*
X87009D01*
X88583D02*
X90158Y50394D01*
X91732D02*
X93306D01*
X92519D01*
Y55117D01*
X91732Y54330D01*
X101182Y55117D02*
Y50394D01*
X103544D01*
X104331Y51182D01*
Y54330D01*
X103544Y55117D01*
X101182D01*
X105905Y50394D02*
X107479D01*
X106692D01*
Y55117D01*
X105905Y54330D01*
D13*
X110768Y156959D02*
G03*
X110768Y154459I0J-1250D01*
G01*
X-11658Y143780D02*
Y271779D01*
X50343Y143780D02*
Y271779D01*
X28842D02*
X50343D01*
X-11658D02*
X17842D01*
X-11658Y143780D02*
X17842D01*
X28842D02*
X50343D01*
X90768Y159617D02*
X110768D01*
X90768Y151800D02*
Y159617D01*
Y151800D02*
X110768D01*
Y154459D01*
Y156959D02*
Y159617D01*
D14*
X68717Y251457D02*
G03*
X68737Y250883I32744J884D01*
G01*
X94968Y289145D02*
G03*
X94796Y288731I414J-414D01*
G01*
X95672Y244384D02*
G03*
X97119Y244133I1307J3240D01*
G01*
X96254Y245931D02*
G03*
X96851Y245588I814J725D01*
G01*
X95892Y246687D02*
G03*
X96254Y245931I1662J333D01*
G01*
X96136Y266386D02*
G03*
X96550Y266216I411J413D01*
G01*
X95964Y266799D02*
G03*
X96136Y266386I583J-0D01*
G01*
X95964Y288731D02*
G03*
X95382Y289317I-586J0D01*
G01*
X97531Y244140D02*
G03*
X97707Y244149I-231J5771D01*
G01*
X98264Y245522D02*
G03*
X98298Y245527I-160J1335D01*
G01*
X98198Y245516D02*
G03*
X98264Y245522I-111J1493D01*
G01*
X98166Y245514D02*
G03*
X98198Y245516I-97J1717D01*
G01*
X104943Y257586D02*
G03*
X103828Y256914I2545J-5486D01*
G01*
X107461Y256571D02*
G03*
X107045Y256605I-401J-2378D01*
G01*
X106909Y257979D02*
G03*
X105991Y257904I50J-6234D01*
G01*
X109966Y254969D02*
G03*
X109839Y254252I5270J-1299D01*
G01*
X110178Y255609D02*
G03*
X110061Y255298I3764J-1594D01*
G01*
X110061D02*
G03*
X109966Y254969I4305J-1424D01*
G01*
X110623Y245000D02*
G03*
X111939Y244244I2573J2958D01*
G01*
X112257Y251737D02*
G03*
X111392Y251279I2300J-5393D01*
G01*
X112323Y256022D02*
G03*
X111208Y254251I1239J-2017D01*
G01*
X111890Y257393D02*
G03*
X111328Y257062I1602J-3361D01*
G01*
X111328Y257062D02*
G03*
X110475Y256171I1931J-2701D01*
G01*
X112208Y257531D02*
G03*
X111890Y257393I1620J-4180D01*
G01*
X113406Y245413D02*
G03*
X113697Y245380I804J5783D01*
G01*
X114001Y245361D02*
G03*
X114320Y245354I315J7513D01*
G01*
X113697Y245380D02*
G03*
X114001Y245361I582J6599D01*
G01*
X112865Y245519D02*
G03*
X113128Y245460I1138J4426D01*
G01*
X112380Y245678D02*
G03*
X112865Y245519I1439J3578D01*
G01*
X113731Y250867D02*
G03*
X113328Y250755I1687J-6885D01*
G01*
X114166Y250961D02*
G03*
X113731Y250867I1583J-8327D01*
G01*
X112955Y250626D02*
G03*
X112612Y250480I1778J-4641D01*
G01*
X113328Y250755D02*
G03*
X112955Y250626I1748J-5663D01*
G01*
X113850Y252233D02*
G03*
X113280Y252093I2124J-9894D01*
G01*
X114460Y252347D02*
G03*
X113850Y252233I1895J-11778D01*
G01*
X113280Y252093D02*
G03*
X112749Y251928I2288J-8284D01*
G01*
X113733Y257898D02*
G03*
X113314Y257834I1022J-8079D01*
G01*
X113796Y256511D02*
G03*
X113504Y256459I907J-5898D01*
G01*
X114177Y257944D02*
G03*
X113733Y257898I750J-9482D01*
G01*
X114107Y256552D02*
G03*
X113796Y256511I759J-6996D01*
G01*
X114437Y256581D02*
G03*
X114107Y256552I563J-8255D01*
G01*
X113314Y257834D02*
G03*
X112921Y257751I1233J-6864D01*
G01*
X112921D02*
G03*
X112552Y257650I1395J-5819D01*
G01*
X112975Y256319D02*
G03*
X112739Y256232I1142J-3445D01*
G01*
X113230Y256395D02*
G03*
X112975Y256319I1091J-4135D01*
G01*
X113504Y256459D02*
G03*
X113230Y256395I1015J-4948D01*
G01*
X113400Y265031D02*
G03*
X114456Y265589I-59J1393D01*
G01*
X113400Y266216D02*
G03*
X113522Y266280I-77J297D01*
G01*
X113146Y272080D02*
G03*
X113559Y272251I0J583D01*
G01*
D02*
G03*
X113729Y272665I-413J411D01*
G01*
X112560D02*
G03*
X112732Y272251I586J0D01*
G01*
D02*
G03*
X113146Y272080I414J414D01*
G01*
X113900Y288102D02*
G03*
X113729Y287688I414J-414D01*
G01*
X114097Y289431D02*
G03*
X113010Y288981I0J-1536D01*
G01*
X114883Y244066D02*
G03*
X116174Y244384I-812J6080D01*
G01*
X115127Y251099D02*
G03*
X114631Y251039I1199J-11962D01*
G01*
X115653Y251142D02*
G03*
X115127Y251099I893J-14199D01*
G01*
X115797Y252500D02*
G03*
X115109Y252436I1174J-16472D01*
G01*
X116525Y252538D02*
G03*
X115797Y252500I648J-19334D01*
G01*
X115139Y257979D02*
G03*
X114646Y257971I-20J-12910D01*
G01*
X116955Y246126D02*
G03*
X118036Y246890I-3738J6441D01*
G01*
X119793Y265616D02*
G03*
X119965Y265202I586J0D01*
G01*
X120379Y266202D02*
G03*
X119965Y266031I0J-586D01*
G01*
D02*
G03*
X119793Y265616I414J-414D01*
G01*
X119965Y265202D02*
G03*
X120379Y265031I414J414D01*
G01*
X129572Y288029D02*
G03*
X129586Y288190I-123J92D01*
G01*
X131262Y289022D02*
G03*
X130547Y289431I-667J-337D01*
G01*
X135453Y266372D02*
G03*
X135625Y266785I-411J413D01*
G01*
X135039Y266202D02*
G03*
X135453Y266372I3J583D01*
G01*
X136349Y265489D02*
G03*
X136793Y266584I-1095J1081D01*
G01*
X137376Y288266D02*
G03*
X136793Y287680I3J-586D01*
G01*
X137161Y289431D02*
G03*
X136075Y288981I0J-1536D01*
G01*
X155207Y266570D02*
G03*
X156743Y265031I1539J0D01*
G01*
X156547Y266383D02*
G03*
X156961Y266213I411J413D01*
G01*
X156375Y266796D02*
G03*
X156547Y266383I583J-0D01*
G01*
X158840Y257567D02*
G03*
X157608Y256864I2172J-5242D01*
G01*
X161012Y257979D02*
G03*
X159983Y257893I24J-6455D01*
G01*
X163594Y254622D02*
G03*
X163059Y255738I-2626J-574D01*
G01*
X163124Y257543D02*
G03*
X162503Y257786I-1649J-3312D01*
G01*
X163416Y265207D02*
G03*
X163583Y265628I-419J409D01*
G01*
X163583Y265628D02*
G03*
X163000Y266213I-586J0D01*
G01*
X163000Y265031D02*
G03*
X163416Y265207I-3J586D01*
G01*
X164987Y254880D02*
G03*
X164780Y255606I-5262J-1107D01*
G01*
X165111Y254056D02*
G03*
X164987Y254880I-7168J-660D01*
G01*
X173877Y257904D02*
G03*
X172837Y257586I732J-4254D01*
G01*
X175695Y256398D02*
G03*
X174441Y256605I-1156J-3113D01*
G01*
X180664Y257483D02*
G03*
X179484Y256736I2437J-5152D01*
G01*
X182980Y256591D02*
G03*
X182691Y256599I-285J-4842D01*
G01*
X184909Y255584D02*
G03*
X184796Y255763I-1809J-1024D01*
G01*
X185011Y255384D02*
G03*
X184909Y255584I-2255J-1019D01*
G01*
X185100Y255163D02*
G03*
X185011Y255384I-2812J-1009D01*
G01*
X184387Y257786D02*
G03*
X183045Y257979I-1282J-4138D01*
G01*
X184353Y256189D02*
G03*
X184168Y256298I-1079J-1621D01*
G01*
X184946Y257543D02*
G03*
X184387Y257786I-1521J-2745D01*
G01*
X183507Y256524D02*
G03*
X183252Y256566I-688J-3400D01*
G01*
X183745Y256465D02*
G03*
X183507Y256524I-822J-2828D01*
G01*
X183965Y256390D02*
G03*
X183745Y256465I-925J-2347D01*
G01*
X184168Y256298D02*
G03*
X183965Y256390I-1006J-1948D01*
G01*
X185393Y253016D02*
G03*
X185369Y253736I-10268J20D01*
G01*
X186733Y254056D02*
G03*
X186622Y254880I-7915J-651D01*
G01*
X185297Y254371D02*
G03*
X185244Y254656I-5308J-851D01*
G01*
X186622Y254880D02*
G03*
X186436Y255606I-5741J-1082D01*
G01*
X185244Y254656D02*
G03*
X185178Y254920I-4321J-934D01*
G01*
X185339Y254064D02*
G03*
X185297Y254371I-6473J-725D01*
G01*
X68707Y252021D02*
G03*
X68717Y251457I28637J209D01*
G01*
X69783Y246692D02*
G03*
X71046Y245284I4074J2384D01*
G01*
X70100Y252261D02*
G03*
X70491Y248764I12920J-328D01*
G01*
X81418Y248773D02*
G03*
X81797Y252261I-12721J3148D01*
G01*
X82862Y248736D02*
G03*
X83191Y252205I-16160J3283D01*
G01*
X94375Y248120D02*
G03*
X94462Y246375I15187J-123D01*
G01*
X94462D02*
G03*
X94835Y245131I3208J286D01*
G01*
X95769Y248003D02*
G03*
X95892Y246687I5670J-135D01*
G01*
X103404Y254862D02*
G03*
X102659Y253858I5033J-4511D01*
G01*
X105394Y256365D02*
G03*
X104338Y255738I1981J-4541D01*
G01*
X109426Y247724D02*
G03*
X109747Y246188I3608J-49D01*
G01*
X110820Y247861D02*
G03*
X111757Y246015I2132J-79D01*
G01*
X113128Y245460D02*
G03*
X113406Y245413I987J5062D01*
G01*
X112739Y256232D02*
G03*
X112522Y256133I1176J-2867D01*
G01*
X113010Y288981D02*
G03*
X112560Y287895I1086J-1086D01*
G01*
X114314Y288274D02*
G03*
X113900Y288103I0J-586D01*
G01*
X118296Y255445D02*
G03*
X117181Y256295I-1997J-1463D01*
G01*
X120008Y255085D02*
G03*
X119116Y256649I-3666J-1054D01*
G01*
X120287Y253016D02*
G03*
X120008Y255085I-7188J85D01*
G01*
X118884Y252551D02*
G03*
X118781Y254165I-11532J74D01*
G01*
X131167Y288204D02*
G03*
X131262Y289022I-572J481D01*
G01*
X141316Y248541D02*
G03*
X142250Y246771I4736J1367D01*
G01*
X142250Y255205D02*
G03*
X141316Y253454I3650J-3072D01*
G01*
X148886Y246771D02*
G03*
X149828Y248541I-3870J3196D01*
G01*
X149828Y253454D02*
G03*
X148886Y255205I-4665J-1382D01*
G01*
X156375Y287895D02*
G03*
X155925Y288981I-1536J0D01*
G01*
X163059Y255738D02*
G03*
X162088Y256390I-1698J-1477D01*
G01*
X165153Y253136D02*
G03*
X165111Y254056I-9743J23D01*
G01*
X171677Y256889D02*
G03*
X170370Y255660I5427J-7082D01*
G01*
X176532Y255763D02*
G03*
X175695Y256398I-1478J-1077D01*
G01*
X177103Y253016D02*
G03*
X176975Y254647I-8936J118D01*
G01*
X184796Y255763D02*
G03*
X184353Y256189I-1379J-989D01*
G01*
X186436Y255606D02*
G03*
X186176Y256236I-4170J-1357D01*
G01*
X186770Y253136D02*
G03*
X186733Y254056I-10813J29D01*
G01*
X185369Y253736D02*
G03*
X185339Y254064I-7831J-547D01*
G01*
X68768Y250301D02*
G03*
X69072Y248410I9741J596D01*
G01*
X70491Y248764D02*
G03*
X71634Y246659I4663J1169D01*
G01*
X80303Y246667D02*
G03*
X81418Y248773I-3649J3281D01*
G01*
X112301Y250317D02*
G03*
X110820Y247861I1218J-2409D01*
G01*
X178386Y255540D02*
G03*
X177050Y257380I-3255J-958D01*
G01*
X140058Y253959D02*
G03*
X140058Y248025I10067J-2967D01*
G01*
X141316Y253454D02*
G03*
X141316Y248541I9006J-2457D01*
G01*
X149828D02*
G03*
X149828Y253454I-8699J2457D01*
G01*
X151153Y248034D02*
G03*
X151153Y253934I-10089J2950D01*
G01*
X71046Y245284D02*
G03*
X73048Y244331I3606J4993D01*
G01*
X73048Y244331D02*
G03*
X75947Y243979I2693J10089D01*
G01*
X71634Y246659D02*
G03*
X73471Y245627I2759J2762D01*
G01*
X78465Y245627D02*
G03*
X80303Y246667I-858J3659D01*
G01*
X94835Y245131D02*
G03*
X95672Y244384I1523J863D01*
G01*
X96851Y245588D02*
G03*
X97657Y245510I760J3647D01*
G01*
X94796Y266570D02*
G03*
X96333Y265031I1539J0D01*
G01*
X95382Y289317D02*
G03*
X94968Y289145I0J-586D01*
G01*
X104338Y255738D02*
G03*
X103404Y254862I4008J-5212D01*
G01*
X105991Y257904D02*
G03*
X104943Y257586I724J-4275D01*
G01*
X106541Y256605D02*
G03*
X105394Y256365I-5J-2836D01*
G01*
X111939Y244244D02*
G03*
X113584Y243979I1606J4734D01*
G01*
X116174Y244384D02*
G03*
X117498Y245020I-2493J6891D01*
G01*
X113584Y243979D02*
G03*
X114883Y244066I18J9536D01*
G01*
X115697Y245569D02*
G03*
X116955Y246126I-1937J6064D01*
G01*
X111757Y246015D02*
G03*
X112380Y245678I1756J2500D01*
G01*
X116798Y251176D02*
G03*
X115653Y251142I-29J-18137D01*
G01*
X114631Y251039D02*
G03*
X114166Y250961I1425J-10012D01*
G01*
X112612Y250480D02*
G03*
X112301Y250317I1790J-3795D01*
G01*
X115109Y252436D02*
G03*
X114460Y252347I1584J-13962D01*
G01*
X117292Y252551D02*
G03*
X116525Y252538I-10J-22573D01*
G01*
X118781Y254165D02*
G03*
X118296Y255445I-2861J-353D01*
G01*
X112522Y256133D02*
G03*
X112323Y256022I1201J-2386D01*
G01*
X119116Y256649D02*
G03*
X117521Y257636I-2832J-2795D01*
G01*
X117521D02*
G03*
X115139Y257979I-2210J-6904D01*
G01*
X117181Y256295D02*
G03*
X115153Y256605I-1814J-5087D01*
G01*
X114646Y257971D02*
G03*
X114177Y257944I406J-11087D01*
G01*
X115153Y256605D02*
G03*
X114437Y256581I-18J-10472D01*
G01*
X112552Y257650D02*
G03*
X112208Y257531I1521J-4929D01*
G01*
X135260Y265031D02*
G03*
X136349Y265489I-6J1539D01*
G01*
X142250Y246771D02*
G03*
X143697Y245705I2907J2434D01*
G01*
X147439D02*
G03*
X148886Y246771I-1460J3500D01*
G01*
X148058Y257503D02*
G03*
X145576Y257979I-2401J-5799D01*
G01*
X158433Y255936D02*
G03*
X156311Y254045I5620J-8444D01*
G01*
X162088Y256390D02*
G03*
X160625Y256605I-1349J-4097D01*
G01*
X162503Y257786D02*
G03*
X161012Y257979I-1422J-5114D01*
G01*
X159983Y257893D02*
G03*
X158840Y257567I804J-4985D01*
G01*
X155207Y287680D02*
G03*
X154624Y288266I-586J0D01*
G01*
X155925Y288981D02*
G03*
X154839Y289431I-1086J-1086D01*
G01*
X176975Y254647D02*
G03*
X176532Y255763I-2723J-437D01*
G01*
X177050Y257380D02*
G03*
X174820Y257979I-2101J-3366D01*
G01*
X174820Y257979D02*
G03*
X173877Y257904I26J-6265D01*
G01*
X172837Y257586D02*
G03*
X171677Y256889I2578J-5603D01*
G01*
X185178Y254920D02*
G03*
X185100Y255163I-3494J-984D01*
G01*
X183045Y257979D02*
G03*
X181869Y257868I14J-6413D01*
G01*
X186176Y256236D02*
G03*
X184946Y257543I-2724J-1330D01*
G01*
X183252Y256566D02*
G03*
X182980Y256591I-513J-4069D01*
G01*
X181869Y257868D02*
G03*
X180664Y257483I972J-5120D01*
G01*
X73471Y245627D02*
G03*
X75956Y245349I2376J9967D01*
G01*
X69072Y248410D02*
G03*
X69783Y246692I6788J1804D01*
G01*
X79494Y244537D02*
G03*
X81719Y246149I-1762J4774D01*
G01*
X109747Y246188D02*
G03*
X110623Y245000I3210J1449D01*
G01*
X110475Y256171D02*
G03*
X110178Y255609I3036J-1969D01*
G01*
X117498Y245020D02*
G03*
X118893Y246040I-4825J8054D01*
G01*
X114320Y245354D02*
G03*
X115697Y245569I19J4405D01*
G01*
X118036Y246890D02*
G03*
X118893Y247707I-6324J7484D01*
G01*
X112749Y251928D02*
G03*
X112257Y251737I2403J-6922D01*
G01*
X136075Y288981D02*
G03*
X135625Y287895I1086J-1086D01*
G01*
X129586Y288190D02*
G03*
X129446Y288274I-137J-70D01*
G01*
X141271Y245817D02*
G03*
X143150Y244451I3811J3266D01*
G01*
X140058Y248025D02*
G03*
X141271Y245817I6095J1911D01*
G01*
X143697Y256253D02*
G03*
X142250Y255205I1484J-3571D01*
G01*
X141263Y256150D02*
G03*
X140058Y253959I4723J-4023D01*
G01*
X145576Y245354D02*
G03*
X147439Y245705I62J4787D01*
G01*
X148061Y244451D02*
G03*
X149951Y245825I-2008J4749D01*
G01*
D02*
G03*
X151153Y248034I-4843J4067D01*
G01*
X151153Y253934D02*
G03*
X149945Y256128I-5950J-1844D01*
G01*
X148886Y255205D02*
G03*
X147439Y256253I-2931J-2523D01*
G01*
X157608Y256864D02*
G03*
X156319Y255660I5077J-6721D01*
G01*
X160625Y256605D02*
G03*
X158433Y255936I25J-4004D01*
G01*
X163759Y253016D02*
G03*
X163594Y254622I-6970J97D01*
G01*
X174441Y256605D02*
G03*
X172360Y255927I30J-3625D01*
G01*
X179484Y256736D02*
G03*
X178386Y255540I3985J-4762D01*
G01*
X182691Y256599D02*
G03*
X180533Y255922I49J-3931D01*
G01*
X81719Y246149D02*
G03*
X82863Y248736I-5077J3789D01*
G01*
X143150Y257517D02*
G03*
X141263Y256150I1987J-4733D01*
G01*
X149945Y256128D02*
G03*
X148058Y257503I-3875J-3337D01*
G01*
X164780Y255606D02*
G03*
X163124Y257543I-3181J-1043D01*
G01*
X75947Y243979D02*
G03*
X79494Y244537I290J9713D01*
G01*
X143150Y244451D02*
G03*
X148061Y244451I2455J6225D01*
G01*
X147439Y256253D02*
G03*
X143697Y256253I-1871J-4807D01*
G01*
X145576Y257979D02*
G03*
X143150Y257517I-73J-6206D01*
G01*
X75956Y245349D02*
G03*
X78465Y245627I99J10542D01*
G01*
X103828Y256914D02*
G03*
X102659Y255799I4338J-5714D01*
G01*
X143697Y245705D02*
G03*
X145576Y245354I1810J4480D01*
G01*
X180533Y255922D02*
G03*
X178497Y254006I4894J-7239D01*
G01*
X172360Y255927D02*
G03*
X170370Y254012I5681J-7897D01*
G01*
X111392Y251279D02*
G03*
X109426Y247724I2042J-3450D01*
G01*
X68737Y250883D02*
X68768Y250301D01*
X68706Y252208D02*
X68707Y252021D01*
X92660Y256262D02*
Y257636D01*
X97119Y244133D02*
X97177Y244133D01*
X97236Y244133D01*
X97295Y244134D01*
X97354Y244135D02*
X97413Y244136D01*
X97472Y244138D01*
X97531Y244140D01*
X97707Y244149D02*
X97766Y244154D01*
X97883Y244163D01*
X98001Y244173D01*
X98119Y244184D01*
X98295Y244202D01*
X98134Y245512D02*
X98166Y245514D01*
X98103Y245511D02*
X98134Y245512D01*
X98072Y245511D02*
X98103Y245511D01*
X98043Y245510D02*
X98072Y245511D01*
X97986Y245510D02*
X98043Y245510D01*
X97657Y245510D02*
X97986D01*
X97969Y256265D02*
Y257639D01*
X106909Y257979D02*
X107168D01*
X107447Y257954D02*
X107461Y256571D01*
X107168Y257979D02*
X107447Y257954D01*
X106541Y256605D02*
X107045D01*
X118893Y244322D02*
X120287D01*
X163759D02*
X165153D01*
X177103Y244317D02*
X178497D01*
X185393Y244322D02*
X186787D01*
X94375Y257636D02*
Y261127D01*
X95769Y257639D02*
Y261127D01*
X98295Y244202D02*
X98298Y245527D01*
X118893Y244322D02*
Y246040D01*
X122874Y244322D02*
Y246143D01*
X124001Y261757D02*
Y263135D01*
X137462Y244322D02*
Y245697D01*
X137106Y261295D02*
Y263135D01*
X102659Y255799D02*
Y257636D01*
X118893Y247707D02*
Y251176D01*
X156311Y263135D02*
X156319Y255660D01*
X170370D02*
Y257636D01*
X68706Y252208D02*
Y263135D01*
X70100Y252261D02*
Y263135D01*
X81797Y252261D02*
Y263135D01*
X83192Y252205D02*
Y263135D01*
X88032Y244322D02*
Y263135D01*
X89426Y244322D02*
Y263135D01*
X94796Y266570D02*
Y288731D01*
X94375Y248120D02*
Y256262D01*
X95964Y266799D02*
Y288731D01*
X95769Y248003D02*
Y256265D01*
X101265Y244322D02*
Y257636D01*
X102659Y244322D02*
Y253858D01*
X113729Y272665D02*
Y287688D01*
X112560Y272665D02*
Y287895D01*
X120287Y244322D02*
Y253016D01*
X135625Y266785D02*
Y287895D01*
X136793Y266584D02*
Y287680D01*
X154917Y244322D02*
Y263135D01*
X156375Y266796D02*
Y287895D01*
X155207Y266570D02*
Y287680D01*
X156311Y244322D02*
Y254045D01*
X165153Y244322D02*
Y253136D01*
X163759Y244322D02*
Y253016D01*
X168975Y244322D02*
Y257636D01*
X170370Y244322D02*
Y254012D01*
X178497Y244317D02*
Y254006D01*
X177103Y244317D02*
Y253016D01*
X186770Y253136D02*
X186787Y244322D01*
X185393D02*
Y253016D01*
X68706Y263135D02*
X70100D01*
X81797D02*
X83192D01*
X88032Y244322D02*
X89426D01*
X88032Y263135D02*
X89426D01*
X101265Y244322D02*
X102659D01*
X97295Y244134D02*
X97354Y244135D01*
X95769Y257639D02*
X97969D01*
X95769Y256265D02*
X97969D01*
X101265Y257636D02*
X102659D01*
X94375Y261127D02*
X95769D01*
X109839Y254251D02*
X111208D01*
X116798Y251176D02*
X118893D01*
X117292Y252551D02*
X118884D01*
X154917Y244322D02*
X156311D01*
X154917Y263135D02*
X156311D01*
X168975Y244322D02*
X170370D01*
X168975Y257636D02*
X170370D01*
X92660D02*
X94375D01*
X92660Y256262D02*
X94375D01*
X96550Y266216D02*
X113400D01*
X96333Y265031D02*
X113400D01*
X124279Y245697D02*
X137462D01*
X137376Y288266D02*
X154624D01*
X137161Y289431D02*
X154839D01*
X124279Y245697D02*
X137106Y261295D01*
X122874Y244322D02*
X137462D01*
X124001Y261757D02*
X135678D01*
X124001Y263135D02*
X137106D01*
X120379Y266202D02*
X135039D01*
X120379Y265031D02*
X135260D01*
X156961Y266213D02*
X163000D01*
X156743Y265031D02*
X163000D01*
X114097Y289431D02*
X130547D01*
X114314Y288274D02*
X129446D01*
X114456Y265589D02*
X131167Y288204D01*
X113522Y266280D02*
X129572Y288029D01*
X122874Y246143D02*
X135678Y261757D01*
D15*
X98606Y41126D02*
X102756D01*
X98606D02*
Y46276D01*
X102756D01*
X109039Y41126D02*
X110055Y42142D01*
X105905Y41126D02*
X109039D01*
X110055Y42142D02*
Y45063D01*
X108843Y46276D02*
X110055Y45063D01*
X105905Y46276D02*
X108843D01*
X98606Y61205D02*
X102756D01*
X98606D02*
Y66354D01*
X102756D01*
X109039Y61205D02*
X110055Y62221D01*
X105905Y61205D02*
X109039D01*
X110055Y62221D02*
Y65142D01*
X108843Y66354D02*
X110055Y65142D01*
X105905Y66354D02*
X108843D01*
X95551Y65780D02*
Y66535D01*
X85551D02*
X95551D01*
X85551Y65780D02*
Y66535D01*
Y61024D02*
Y61779D01*
Y61024D02*
X95551D01*
Y61779D01*
X90551Y61024D02*
Y66535D01*
X95551Y45701D02*
Y46457D01*
X85551D02*
X95551D01*
X85551Y45701D02*
Y46457D01*
Y40945D02*
Y41701D01*
Y40945D02*
X95551D01*
Y41701D01*
X90551Y40945D02*
Y46457D01*
X118504Y162598D02*
Y168110D01*
X113504Y167354D02*
Y168110D01*
X123504D01*
Y167354D02*
Y168110D01*
Y162598D02*
Y163354D01*
X113504Y162598D02*
X123504D01*
X113504D02*
Y163354D01*
X77677Y143307D02*
Y144063D01*
Y143307D02*
X87677D01*
Y144063D01*
Y148063D02*
Y148819D01*
X77677D02*
X87677D01*
X77677Y148063D02*
Y148819D01*
X82677Y143307D02*
Y148819D01*
X77677Y162598D02*
Y163354D01*
Y162598D02*
X87677D01*
Y163354D01*
Y167354D02*
Y168110D01*
X77677D02*
X87677D01*
X77677Y167354D02*
Y168110D01*
X82677Y162598D02*
Y168110D01*
X95787Y178347D02*
Y179102D01*
Y178347D02*
X105787D01*
Y179102D01*
Y183102D02*
Y183858D01*
X95787D02*
X105787D01*
X95787Y183102D02*
Y183858D01*
X100787Y178347D02*
Y183858D01*
X95787Y127165D02*
Y127921D01*
Y127165D02*
X105787D01*
Y127921D01*
Y131921D02*
Y132677D01*
X95787D02*
X105787D01*
X95787Y131921D02*
Y132677D01*
X100787Y127165D02*
Y132677D01*
X125315Y143307D02*
Y144063D01*
Y143307D02*
X135315D01*
Y144063D01*
Y148063D02*
Y148819D01*
X125315D02*
X135315D01*
X125315Y148063D02*
Y148819D01*
X130315Y143307D02*
Y148819D01*
X113504Y143307D02*
Y144063D01*
Y143307D02*
X123504D01*
Y144063D01*
Y148063D02*
Y148819D01*
X113504D02*
X123504D01*
X113504Y148063D02*
Y148819D01*
X118504Y143307D02*
Y148819D01*
X125315Y162598D02*
Y163354D01*
Y162598D02*
X135315D01*
Y163354D01*
Y167354D02*
Y168110D01*
X125315D02*
X135315D01*
X125315Y167354D02*
Y168110D01*
X130315Y162598D02*
Y168110D01*
M02*
