G04*
G04 #@! TF.GenerationSoftware,Altium Limited,Altium Designer,24.6.1 (21)*
G04*
G04 Layer_Color=8388736*
%FSLAX25Y25*%
%MOIN*%
G70*
G04*
G04 #@! TF.SameCoordinates,82AAD4A9-244C-4A3F-97DA-24B785BF6BB8*
G04*
G04*
G04 #@! TF.FilePolarity,Negative*
G04*
G01*
G75*
%ADD26R,0.05524X0.07296*%
%ADD27R,0.03950X0.03950*%
%ADD28R,0.04147X0.04540*%
%ADD29R,0.06902X0.06115*%
G04:AMPARAMS|DCode=30|XSize=55.64mil|YSize=79.65mil|CornerRadius=11.86mil|HoleSize=0mil|Usage=FLASHONLY|Rotation=180.000|XOffset=0mil|YOffset=0mil|HoleType=Round|Shape=RoundedRectangle|*
%AMROUNDEDRECTD30*
21,1,0.05564,0.05593,0,0,180.0*
21,1,0.03192,0.07965,0,0,180.0*
1,1,0.02372,-0.01596,0.02797*
1,1,0.02372,0.01596,0.02797*
1,1,0.02372,0.01596,-0.02797*
1,1,0.02372,-0.01596,-0.02797*
%
%ADD30ROUNDEDRECTD30*%
%ADD31R,0.04343X0.03556*%
%ADD32R,0.03556X0.04343*%
%ADD33R,0.02965X0.08674*%
%ADD34R,0.02965X0.08674*%
%ADD35R,0.07414X0.13162*%
%ADD36C,0.17595*%
%ADD37R,0.07591X0.07591*%
%ADD38C,0.07591*%
%ADD39C,0.13005*%
%ADD40R,0.06312X0.06312*%
%ADD41C,0.06312*%
%ADD42C,0.13595*%
%ADD43C,0.10249*%
%ADD44C,0.06600*%
%ADD45C,0.02769*%
D26*
X162205Y62205D02*
D03*
X151181D02*
D03*
X35433Y295276D02*
D03*
X46457D02*
D03*
D27*
X101181Y43701D02*
D03*
X107480D02*
D03*
X101181Y63779D02*
D03*
X107480D02*
D03*
D28*
X87992D02*
D03*
X93110D02*
D03*
X87992Y43701D02*
D03*
X93110D02*
D03*
X115945Y165354D02*
D03*
X121063D02*
D03*
X85236Y146063D02*
D03*
X80118D02*
D03*
X85236Y165354D02*
D03*
X80118D02*
D03*
X103347Y181102D02*
D03*
X98228D02*
D03*
X103347Y129921D02*
D03*
X98228D02*
D03*
X132874Y146063D02*
D03*
X127756D02*
D03*
X121063D02*
D03*
X115945D02*
D03*
X132874Y165354D02*
D03*
X127756D02*
D03*
D29*
X71653Y151969D02*
D03*
Y159843D02*
D03*
D30*
X46654Y284646D02*
D03*
X35236D02*
D03*
X150984Y72835D02*
D03*
X162402D02*
D03*
D31*
X86221Y154724D02*
D03*
Y160236D02*
D03*
X80709Y154724D02*
D03*
Y160236D02*
D03*
D32*
X103543Y174016D02*
D03*
X98032D02*
D03*
X103543Y137008D02*
D03*
X98032D02*
D03*
X121260Y155512D02*
D03*
X115748D02*
D03*
D33*
X93268Y146063D02*
D03*
X98268D02*
D03*
X103268D02*
D03*
X108268D02*
D03*
D34*
X93268Y165354D02*
D03*
X98268D02*
D03*
X103268D02*
D03*
X108268D02*
D03*
D35*
X80276Y43701D02*
D03*
X61457D02*
D03*
X80276Y63779D02*
D03*
X61457D02*
D03*
D36*
X162402Y223071D02*
D03*
Y91890D02*
D03*
D37*
X157402Y195650D02*
D03*
D38*
Y184744D02*
D03*
Y173839D02*
D03*
Y162933D02*
D03*
Y152027D02*
D03*
Y141122D02*
D03*
Y130217D02*
D03*
Y119311D02*
D03*
X167402Y190197D02*
D03*
Y179291D02*
D03*
Y168386D02*
D03*
Y157480D02*
D03*
Y146575D02*
D03*
Y135669D02*
D03*
Y124764D02*
D03*
D39*
X17717Y17717D02*
D03*
X179134D02*
D03*
Y297244D02*
D03*
X17717D02*
D03*
D40*
X19842Y224780D02*
D03*
Y162779D02*
D03*
D41*
X26842Y228780D02*
D03*
X19842Y232780D02*
D03*
X26842Y236779D02*
D03*
X19842Y240779D02*
D03*
X26842Y244779D02*
D03*
X19842Y248780D02*
D03*
X26842Y252780D02*
D03*
Y190779D02*
D03*
X19842Y186779D02*
D03*
X26842Y182780D02*
D03*
X19842Y178779D02*
D03*
X26842Y174779D02*
D03*
X19842Y170780D02*
D03*
X26842Y166779D02*
D03*
D42*
X9843Y263779D02*
D03*
Y151779D02*
D03*
D43*
X23343Y270779D02*
D03*
Y144780D02*
D03*
D44*
X26496Y93740D02*
D03*
Y83740D02*
D03*
Y73740D02*
D03*
Y63740D02*
D03*
Y53740D02*
D03*
Y43740D02*
D03*
Y103740D02*
D03*
Y113740D02*
D03*
X36496Y43740D02*
D03*
Y53740D02*
D03*
Y63740D02*
D03*
Y73740D02*
D03*
Y83740D02*
D03*
Y93740D02*
D03*
Y103740D02*
D03*
Y113740D02*
D03*
D45*
X64961Y151969D02*
D03*
Y162598D02*
D03*
X64988Y159842D02*
D03*
X137402Y62205D02*
D03*
X51968Y295276D02*
D03*
X112598Y43701D02*
D03*
Y63779D02*
D03*
X137402Y72835D02*
D03*
X51968Y284646D02*
D03*
X87795Y68504D02*
D03*
X88189Y48819D02*
D03*
X98032Y155905D02*
D03*
X121260Y151181D02*
D03*
X86221Y150787D02*
D03*
X80709D02*
D03*
X103150Y155905D02*
D03*
M02*
