G04*
G04 #@! TF.GenerationSoftware,Altium Limited,Altium Designer,24.6.1 (21)*
G04*
G04 Layer_Color=16711935*
%FSLAX25Y25*%
%MOIN*%
G70*
G04*
G04 #@! TF.SameCoordinates,710C80C3-CA58-4EFA-8537-2607FA9E4165*
G04*
G04*
G04 #@! TF.FilePolarity,Negative*
G04*
G01*
G75*
%ADD36C,0.17595*%
%ADD37R,0.07591X0.07591*%
%ADD38C,0.07591*%
%ADD39C,0.13005*%
%ADD40R,0.06312X0.06312*%
%ADD41C,0.06312*%
%ADD42C,0.13595*%
%ADD43C,0.10249*%
%ADD44C,0.06600*%
%ADD45C,0.02769*%
D36*
X162402Y223071D02*
D03*
Y91890D02*
D03*
D37*
X157402Y195650D02*
D03*
D38*
Y184744D02*
D03*
Y173839D02*
D03*
Y162933D02*
D03*
Y152027D02*
D03*
Y141122D02*
D03*
Y130217D02*
D03*
Y119311D02*
D03*
X167402Y190197D02*
D03*
Y179291D02*
D03*
Y168386D02*
D03*
Y157480D02*
D03*
Y146575D02*
D03*
Y135669D02*
D03*
Y124764D02*
D03*
D39*
X17717Y17717D02*
D03*
X179134D02*
D03*
Y297244D02*
D03*
X17717D02*
D03*
D40*
X19842Y224780D02*
D03*
Y162779D02*
D03*
D41*
X26842Y228780D02*
D03*
X19842Y232780D02*
D03*
X26842Y236779D02*
D03*
X19842Y240779D02*
D03*
X26842Y244779D02*
D03*
X19842Y248780D02*
D03*
X26842Y252780D02*
D03*
Y190779D02*
D03*
X19842Y186779D02*
D03*
X26842Y182780D02*
D03*
X19842Y178779D02*
D03*
X26842Y174779D02*
D03*
X19842Y170780D02*
D03*
X26842Y166779D02*
D03*
D42*
X9843Y263779D02*
D03*
Y151779D02*
D03*
D43*
X23343Y270779D02*
D03*
Y144780D02*
D03*
D44*
X30433Y93740D02*
D03*
Y83740D02*
D03*
Y73740D02*
D03*
Y63740D02*
D03*
Y53740D02*
D03*
Y43740D02*
D03*
Y103740D02*
D03*
Y113740D02*
D03*
X40433Y43740D02*
D03*
Y53740D02*
D03*
Y63740D02*
D03*
Y73740D02*
D03*
Y83740D02*
D03*
Y93740D02*
D03*
Y103740D02*
D03*
Y113740D02*
D03*
D45*
X64961Y151969D02*
D03*
Y162598D02*
D03*
X64988Y159842D02*
D03*
X137402Y62205D02*
D03*
X51968Y295276D02*
D03*
X112598Y43701D02*
D03*
Y63779D02*
D03*
X137402Y72835D02*
D03*
X51968Y284646D02*
D03*
X87795Y68504D02*
D03*
X88189Y48819D02*
D03*
X98032Y155905D02*
D03*
X121260Y151181D02*
D03*
X86221Y150787D02*
D03*
X80709D02*
D03*
X103150Y155905D02*
D03*
M02*
